<svg version="1" xmlns="http://www.w3.org/2000/svg" width="1365.333" height="1365.333" viewBox="0 0 1024.000000 1024.000000"><path d="M471.5 17.5c-84.2 7.2-163.5 34.7-233 80.8C133.4 167.9 58.1 275.7 29.1 398c-17.2 72.8-17.4 153.5-.5 226 3.2 13.4 3.5 14.5 4.3 13.3.3-.5 7.4-2.6 15.6-4.7 59.2-15 125.9-43.7 177.5-76.4 94-59.7 162.9-143.3 193.6-234.9 12.5-37.2 16.9-64.9 18-112.3.6-25.7-.8-77.6-2.2-84.9l-.6-3.1h29l.6 5.7c1.3 13.3 1.8 92.8.7 108.6-7.2 99.5-51.3 190.7-130.2 269.6-61.5 61.5-141.3 109.4-234.3 140.6-20 6.7-54.6 16.5-58.2 16.5-1.5 0-2.4-.8-2.8-2.6-.4-1.5-.9-2.4-1.2-2.1-.3.2.9 4.9 2.7 10.3 12.2 38.3 33.6 82.4 57.2 117.9 29.5 44.6 68.1 86.1 110.2 118.7 12.5 9.6 21.6 15.9 19.8 13.7-1.1-1.3.5-4 9.4-16.5 24.4-34.1 91.5-134 131.5-195.9 12.4-19.3 48.2-75.5 79.6-125 56.7-89.5 121.2-190.3 153.5-240 51.9-79.6 105.2-151.8 162.2-219.3C774.7 109 783.4 99 783.6 99c.3 0 1.4.5 2.5 1 4.3 2.3 1.5-.2-5.3-4.8-19.2-12.9-59.5-34-82.3-43-62.9-24.9-123.3-36.4-189-36.1-12.6.1-29.7.7-38 1.4zM789.4 101.9c.7 1.1 4.6 3.5 4.6 2.8 0-.3-1.2-1.2-2.6-2.2-1.5-.9-2.3-1.2-2-.6zM795 105.4c0 .4 4.1 3.7 12.5 9.8.5.4 2.4 1.8 4 3.1 7 5.5 10.5 7.9 10.5 7.4 0-.6-12.7-10.6-21.7-17.1-2.9-2.1-5.3-3.5-5.3-3.2zM823 126.9c0 .5.7 1.2 1.6 1.5 1.4.5 1.5.4.4-.9-1.4-1.7-2-1.9-2-.6zM828 130.9c0 .5.4 1.1.9 1.3.5.1 5.1 4.2 10.3 8.9 5.1 4.7 10.8 9.9 12.6 11.5l3.4 2.9-15.3 23c-32.6 49.2-53.2 82.8-107.4 175.1-66.1 112.5-130.4 217.2-207.8 338.1-54.5 85.2-75.9 116.7-116.4 171.5-31.7 43-71.9 94.7-81.7 105.1l-2.6 2.8 4.3 1.8c7.2 3.1 35.7 12.8 46.7 16 88.5 25.4 185.6 25.4 274 0 46.9-13.5 95.5-36 136.5-63.2C890.6 856.1 965.9 748.3 994.9 626c19.3-81.6 17.2-170.4-6-251-13.5-46.9-36-95.5-63.2-136.5-18.1-27.3-39.4-53.4-62.2-76-15.1-15-35.5-33.2-35.5-31.6z"/><path d="M33.6 642c.4 1.9 1.3 5 2 7l1.4 3.5-.7-4c-.3-2.2-1.2-5.4-1.9-7l-1.4-3 .6 3.5zM230 919.3c0 .3 1.2 1.2 2.6 2.2 1.5.9 2.3 1.2 2 .6-.7-1.1-4.6-3.5-4.6-2.8zM236.4 923.9c.4.6 1.6 1.6 2.8 2.2 1.5.8 1.8.8 1.4 0-.4-.6-1.6-1.6-2.8-2.2-1.5-.8-1.8-.8-1.4 0zM242 927.4c0 1.1 30 18.9 30.7 18.3.3-.4-4.4-3.4-15.5-9.7-1.5-.9-4.5-2.7-6.7-4.1-5.1-3.3-8.5-5.1-8.5-4.5zM275.1 947.4c.2.2 1.5.9 2.9 1.5 2.4 1.1 2.4 1.1.6-.3-1.6-1.3-4.9-2.4-3.5-1.2zM284 952c5.6 3.7 31 15.6 31 14.5 0-.2-3.5-2-7.7-4-4.3-2-8.5-4-9.3-4.5-.8-.6-2.6-1.5-4-2-1.4-.6-4.1-1.9-6.1-3-3.8-2-6.6-2.8-3.9-1zM317 967.8c.8.5 2.6 1.3 4 1.6 1.7.5 2 .4 1-.2-.8-.5-2.6-1.3-4-1.6-1.7-.5-2-.4-1 .2z"/></svg>