<?xml version="1.0" standalone="no"?>
<!DOCTYPE svg PUBLIC "-//W3C//DTD SVG 1.1//EN" "http://www.w3.org/Graphics/SVG/1.1/DTD/svg11.dtd" >
<svg xmlns="http://www.w3.org/2000/svg" xmlns:xlink="http://www.w3.org/1999/xlink" version="1.1">
<metadata>
Created by FontForge 20170812 at Tue Mar  5 14:33:37 2019
 By www-data
Copyright 2014-2019 Indian Type Foundry (info@indiantypefoundry.com)
</metadata>
<defs>
<font id="Poppins-Regular" horiz-adv-x="640" >
  <font-face 
    font-family="Poppins"
    font-weight="400"
    font-stretch="normal"
    units-per-em="1000"
    panose-1="0 0 5 0 0 0 0 0 0 0"
    ascent="800"
    descent="-200"
    x-height="548"
    cap-height="697"
    bbox="-128 -270 1055 974"
    underline-thickness="50"
    underline-position="-150"
    unicode-range="U+000D-2265"
  />
<missing-glyph horiz-adv-x="500" 
 />
    <glyph glyph-name=".notdef" horiz-adv-x="500" 
 />
    <glyph glyph-name="glyph1" horiz-adv-x="0" 
 />
    <glyph glyph-name="glyph1" horiz-adv-x="0" 
 />
    <glyph glyph-name="uni000D" unicode="&#xd;" horiz-adv-x="267" 
 />
    <glyph glyph-name="space" unicode=" " horiz-adv-x="267" 
 />
    <glyph glyph-name="exclam" unicode="!" horiz-adv-x="298" 
d="M195 697l-11 -500h-76l-11 500h98zM106 12q-18 18 -18 44t18 44t44 18q25 0 42.5 -18t17.5 -44t-17.5 -44t-42.5 -18q-26 0 -44 18z" />
    <glyph glyph-name="quotedbl" unicode="&#x22;" horiz-adv-x="292" 
d="M121 796l-11 -199h-63l-12 199h86zM256 796l-11 -199h-63l-12 199h86z" />
    <glyph glyph-name="numbersign" unicode="#" horiz-adv-x="840" 
d="M629 460l-38 -180h138v-80h-155l-43 -200h-87l43 200h-210l-43 -200h-87l43 200h-157v80h174l38 180h-155v80h172l43 200h87l-43 -200h210l43 200h87l-43 -200h139v-80h-156zM542 460h-210l-38 -180h210z" />
    <glyph glyph-name="dollar" unicode="$" horiz-adv-x="622" 
d="M503 99.5q-24 -43.5 -70.5 -72.5t-111.5 -33v-81h-54v81q-91 8 -148 58.5t-58 128.5h97q4 -42 31.5 -73t77.5 -39v250q-67 17 -108 35t-70 56t-29 102q0 81 56.5 134t150.5 59v83h54v-83q85 -7 137 -54.5t60 -123.5h-97q-5 35 -31 63.5t-69 37.5v-244q66 -17 107.5 -34.5
t70 -55.5t28.5 -103q0 -48 -24 -91.5zM182 442q29 -26 85 -43v231q-52 -5 -83 -33.5t-31 -79.5q0 -49 29 -75zM405.5 107q30.5 33 30.5 79q0 49 -30 75.5t-85 42.5v-236q54 6 84.5 39z" />
    <glyph glyph-name="percent" unicode="%" horiz-adv-x="759" 
d="M83 668.5q41 40.5 105 40.5t105 -40.5t41 -108.5q0 -69 -41 -109.5t-105 -40.5t-105 40.5t-41 109.5q0 68 41 108.5zM626 698l-405 -698h-90l405 698h90zM134.5 629.5q-19.5 -23.5 -19.5 -69.5t19.5 -70t53.5 -24t54 24.5t20 69.5q0 46 -20 69.5t-54 23.5t-53.5 -23.5z
M466 247.5q41 40.5 105 40.5t104.5 -40.5t40.5 -109.5q0 -68 -40.5 -109t-104.5 -41t-105 40.5t-41 109.5t41 109.5zM516 207.5q-20 -23.5 -20 -69.5q0 -45 20 -68.5t54 -23.5t54 23.5t20 68.5q0 46 -20 69.5t-54 23.5t-54 -23.5z" />
    <glyph glyph-name="ampersand" unicode="&#x26;" horiz-adv-x="739" 
d="M612 0l-91 92q-51 -53 -109 -78.5t-131 -25.5q-72 0 -127.5 26t-86 74t-30.5 112q0 73 41.5 128.5t122.5 87.5q-32 38 -46 70t-14 70q0 44 22.5 79.5t64.5 55.5t97 20q54 0 94 -21t60 -58.5t18 -83.5h-91q1 41 -23 64.5t-62 23.5q-40 0 -64.5 -22.5t-24.5 -57.5
q0 -30 16.5 -58t55.5 -69l208 -209l18 28l68 114h98l-82 -142q-17 -30 -40 -63l157 -157h-119zM378.5 87q43.5 21 82.5 65l-205 206q-128 -49 -128 -155q0 -59 42.5 -98t110.5 -39q54 0 97.5 21z" />
    <glyph glyph-name="quotesingle" unicode="'" horiz-adv-x="159" 
d="M123 796l-12 -199h-63l-13 199h88z" />
    <glyph glyph-name="parenleft" unicode="(" horiz-adv-x="454" 
d="M161.5 53q-53.5 145 -53.5 313q0 172 56.5 321.5t161.5 246.5h95v-9q-112 -105 -168.5 -252.5t-56.5 -306.5q0 -155 53.5 -296t156.5 -247v-9h-95q-96 94 -149.5 239z" />
    <glyph glyph-name="parenright" unicode=")" horiz-adv-x="454" 
d="M48 -186v9q103 106 156.5 247t53.5 296q0 159 -56.5 306.5t-168.5 252.5v9h95q105 -97 161.5 -246.5t56.5 -321.5q0 -168 -53.5 -313t-149.5 -239h-95z" />
    <glyph glyph-name="asterisk" unicode="*" horiz-adv-x="486" 
d="M387 670l36 -65l-139 -58l140 -57l-38 -67l-121 88l16 -151h-75l15 151l-121 -89l-39 68l139 58l-139 56l37 67l124 -89l-16 152h76l-17 -152z" />
    <glyph glyph-name="plus" unicode="+" horiz-adv-x="683" 
d="M597 327h-213v-216h-85v216h-212v77h212v217h85v-217h213v-77z" />
    <glyph glyph-name="comma" unicode="," horiz-adv-x="198" 
d="M171 126l-112 -269h-61l73 269h100z" />
    <glyph glyph-name="hyphen" unicode="-" horiz-adv-x="551" 
d="M457 405v-77h-399v77h399z" />
    <glyph glyph-name="period" unicode="." horiz-adv-x="210" 
d="M62 12q-18 18 -18 44t18 44t44 18q25 0 42.5 -18t17.5 -44t-17.5 -44t-42.5 -18q-26 0 -44 18z" />
    <glyph glyph-name="slash" unicode="/" horiz-adv-x="476" 
d="M417 942l-274 -1112h-90l273 1112h91z" />
    <glyph glyph-name="zero" unicode="0" horiz-adv-x="628" 
d="M118 637.5q56 96.5 196 96.5q139 0 195 -96.5t56 -268.5q0 -175 -56 -272t-195 -97q-140 0 -196 97t-56 272q0 172 56 268.5zM463.5 516.5q-11.5 60.5 -47 97.5t-102.5 37q-68 0 -103.5 -37t-47 -97.5t-11.5 -147.5q0 -90 11.5 -151t47 -98t103.5 -37q67 0 102.5 37
t47 98t11.5 151q0 87 -11.5 147.5z" />
    <glyph glyph-name="one" unicode="1" horiz-adv-x="320" 
d="M38 640v83h188v-723h-92v640h-96z" />
    <glyph glyph-name="two" unicode="2" horiz-adv-x="575" 
d="M250 240.5q72 65.5 121.5 137t49.5 140.5q0 65 -31.5 102.5t-101.5 37.5q-68 0 -105.5 -42.5t-40.5 -113.5h-88q4 112 68 173t165 61q103 0 163.5 -57t60.5 -157q0 -83 -49.5 -161.5t-112.5 -138t-161 -138.5h344v-76h-481v65q127 102 199 167.5z" />
    <glyph glyph-name="three" unicode="3" horiz-adv-x="589" 
d="M131 685q64 52 166 52q68 0 117.5 -24.5t75 -66.5t25.5 -95q0 -62 -35.5 -107t-92.5 -58v-5q65 -16 103 -63t38 -123q0 -57 -26 -102.5t-78 -71.5t-125 -26q-106 0 -174 55.5t-76 157.5h88q7 -60 49 -98t112 -38t106.5 36.5t36.5 94.5q0 75 -50 108t-151 33h-23v76h24
q92 1 139 30.5t47 91.5q0 53 -34.5 85t-98.5 32q-62 0 -100 -32t-45 -86h-89q7 92 71 144z" />
    <glyph glyph-name="four" unicode="4" horiz-adv-x="629" 
d="M40 161v69l351 486h109v-476h100v-79h-100v-161h-90v161h-370zM414 621l-269 -381h269v381z" />
    <glyph glyph-name="five" unicode="5" horiz-adv-x="628" 
d="M523 644h-351v-228q23 32 68 52.5t97 20.5q83 0 135 -34.5t74.5 -89t22.5 -115.5q0 -72 -27 -129t-82.5 -90t-137.5 -33q-105 0 -170 54t-79 144h89q13 -57 55 -89t106 -32q79 0 119 47.5t40 125.5t-40 120.5t-118 42.5q-53 0 -92.5 -25.5t-57.5 -69.5h-86v408h435v-80z
" />
    <glyph glyph-name="six" unicode="6" horiz-adv-x="635" 
d="M328 662q-89 0 -133 -68.5t-43 -225.5q23 52 76.5 81.5t119.5 29.5q103 0 164.5 -64t61.5 -177q0 -68 -26.5 -122t-80 -86t-129.5 -32q-103 0 -161 46t-81 127t-23 200q0 367 256 367q98 0 154 -53t66 -134h-84q-22 111 -137 111zM248 384.5q-38 -17.5 -61.5 -53
t-23.5 -86.5q0 -76 44 -123.5t126 -47.5q70 0 111.5 43.5t41.5 117.5q0 78 -40 122.5t-117 44.5q-43 0 -81 -17.5z" />
    <glyph glyph-name="seven" unicode="7" horiz-adv-x="546" 
d="M507 652l-278 -652h-92l282 643h-386v78h474v-69z" />
    <glyph glyph-name="eight" unicode="8" horiz-adv-x="631" 
d="M108 440q-30 42 -30 102q0 54 27 97.5t80.5 69t129.5 25.5t129.5 -25.5t81 -69t27.5 -97.5q0 -58 -31 -101.5t-85 -64.5q62 -19 98.5 -66.5t36.5 -114.5q0 -65 -32 -113.5t-90.5 -75t-134.5 -26.5t-133.5 26.5t-89.5 75t-32 113.5q0 67 36 115t98 66q-56 22 -86 64z
M425 625q-40 33 -110 33q-69 0 -109 -33t-40 -95q0 -56 41.5 -90t107.5 -34q67 0 108.5 34.5t41.5 90.5q0 61 -40 94zM194 301.5q-47 -34.5 -47 -103.5q0 -64 45.5 -103t122.5 -39t122 39t45 103q0 67 -46 102.5t-121 35.5q-74 0 -121 -34.5z" />
    <glyph glyph-name="nine" unicode="9" horiz-adv-x="630" 
d="M225.5 106q36.5 -31 98.5 -31q83 0 122.5 65t37.5 219q-21 -45 -70 -70.5t-109 -25.5q-67 0 -119.5 27.5t-82.5 80.5t-30 128q0 107 62 172.5t176 65.5q140 0 196.5 -91t56.5 -271q0 -126 -22.5 -208t-76 -125t-146.5 -43q-102 0 -159 55t-65 140h84q10 -57 46.5 -88z
M430 381.5q43 41.5 43 112.5q0 75 -42 121t-118 46q-70 0 -111.5 -44t-41.5 -116q0 -73 41 -117t119 -44q67 0 110 41.5z" />
    <glyph glyph-name="colon" unicode=":" horiz-adv-x="213" 
d="M62 12q-18 18 -18 44t18 44t44 18q25 0 42.5 -18t17.5 -44t-17.5 -44t-42.5 -18q-26 0 -44 18zM62 440q-18 18 -18 44t18 44t44 18q25 0 42.5 -18t17.5 -44t-17.5 -44t-42.5 -18q-26 0 -44 18z" />
    <glyph glyph-name="semicolon" unicode=";" horiz-adv-x="264" 
d="M86 441q-18 18 -18 44t18 44t44 18q25 0 42.5 -18t17.5 -44t-17.5 -44t-42.5 -18q-26 0 -44 18zM196 126l-112 -269h-61l73 269h100z" />
    <glyph glyph-name="less" unicode="&#x3c;" horiz-adv-x="555" 
d="M325 136l-241 230l241 229h115l-242 -229l242 -230h-115z" />
    <glyph glyph-name="equal" unicode="=" horiz-adv-x="723" 
d="M621 512v-77h-520v77h520zM621 297v-77h-520v77h520z" />
    <glyph glyph-name="greater" unicode="&#x3e;" horiz-adv-x="539" 
d="M94 595h115l242 -229l-242 -230h-115l242 230z" />
    <glyph glyph-name="question" unicode="?" horiz-adv-x="524" 
d="M415 650q61 -56 61 -150q0 -105 -65 -155.5t-176 -50.5l-3 -95h-79l-4 158h29q99 0 155 30t56 113q0 60 -36 95t-97 35q-62 0 -97.5 -33.5t-35.5 -91.5h-86q0 60 27 105.5t76.5 70.5t114.5 25q99 0 160 -56zM148 12q-18 18 -18 44t18 44t44 18q25 0 42.5 -18t17.5 -44
t-17.5 -44t-42.5 -18q-26 0 -44 18z" />
    <glyph glyph-name="at" unicode="@" horiz-adv-x="1013" 
d="M770 599q82 -42 126 -117.5t44 -174.5q0 -79 -26 -151.5t-75.5 -117.5t-115.5 -45q-50 0 -77 25t-31 68q-31 -43 -78.5 -68t-100.5 -25q-76 0 -119.5 46.5t-43.5 125.5q0 75 31.5 140t87.5 104.5t127 39.5q95 0 128 -72l11 62h79l-50 -289q-3 -19 -3 -35q0 -60 53 -60
q40 0 69.5 38t44.5 95.5t15 113.5q0 131 -78.5 203t-221.5 72q-119 0 -214.5 -57.5t-149.5 -157.5t-54 -221q-1 -132 79 -203.5t222 -71.5q94 0 166 34l12 -62q-89 -37 -196 -37t-188.5 40.5t-126 116t-44.5 175.5q0 141 65 257.5t180.5 183.5t259.5 67q111 0 193 -42z
M546 90.5q38 26.5 60 72t22 99.5q0 52 -28.5 84.5t-80.5 32.5q-48 0 -84.5 -28.5t-56.5 -75t-20 -96.5q0 -53 27 -84t78 -31q45 0 83 26.5z" />
    <glyph glyph-name="A" unicode="A" horiz-adv-x="674" 
d="M489 155h-304l-56 -155h-96l252 693h105l251 -693h-96zM463 229l-126 352l-126 -352h252z" />
    <glyph glyph-name="B" unicode="B" horiz-adv-x="613" 
d="M495.5 328q31.5 -25 50 -62t18.5 -79q0 -53 -27 -95.5t-78.5 -67t-121.5 -24.5h-260v697h250q71 0 121 -23.5t75 -63.5t25 -90q0 -62 -33.5 -102.5t-88.5 -58.5q38 -6 69.5 -31zM168 396h153q64 0 99 30t35 83t-35 83t-101 30h-151v-226zM435 107q38 32 38 89
q0 58 -40 91.5t-107 33.5h-158v-246h161q68 0 106 32z" />
    <glyph glyph-name="C" unicode="C" horiz-adv-x="772" 
d="M89 532.5q46 81.5 125.5 127.5t176.5 46q114 0 199 -55t124 -156h-109q-29 63 -83.5 97t-130.5 34q-73 0 -131 -34t-91 -96.5t-33 -146.5q0 -83 33 -145.5t91 -96.5t131 -34q76 0 130.5 33.5t83.5 96.5h109q-39 -100 -124 -154.5t-199 -54.5q-97 0 -176.5 45.5
t-125.5 126.5t-46 183t46 183.5z" />
    <glyph glyph-name="D" unicode="D" horiz-adv-x="707" 
d="M491.5 654.5q83.5 -42.5 128 -121.5t44.5 -186t-44.5 -185.5t-128 -120t-197.5 -41.5h-217v697h217q114 0 197.5 -42.5zM500 146.5q71 71.5 71 200.5q0 130 -71.5 203t-205.5 73h-126v-548h126q135 0 206 71.5z" />
    <glyph glyph-name="E" unicode="E" horiz-adv-x="513" 
d="M168 623v-233h254v-75h-254v-240h284v-75h-375v698h375v-75h-284z" />
    <glyph glyph-name="F" unicode="F" horiz-adv-x="504" 
d="M471 697v-74h-303v-235h246v-74h-246v-314h-91v697h394z" />
    <glyph glyph-name="G" unicode="G" horiz-adv-x="778" 
d="M605 495q-29 61 -84 94.5t-128 33.5t-131.5 -33.5t-92 -96t-33.5 -144.5t33.5 -144t92 -95.5t131.5 -33.5q102 0 168 61t77 165h-278v74h375v-70q-8 -86 -54 -157.5t-121 -113t-167 -41.5q-97 0 -177 45.5t-126.5 126.5t-46.5 183t46.5 183.5t126.5 127t177 45.5
q111 0 196.5 -55t124.5 -155h-109z" />
    <glyph glyph-name="H" unicode="H" horiz-adv-x="692" 
d="M614 697v-697h-91v316h-355v-316h-91v697h91v-306h355v306h91z" />
    <glyph glyph-name="I" unicode="I" horiz-adv-x="246" 
d="M168 697v-697h-91v697h91z" />
    <glyph glyph-name="J" unicode="J" horiz-adv-x="530" 
d="M428 697v-515q0 -86 -53 -137.5t-140 -51.5q-88 0 -141 52.5t-53 143.5h91q1 -51 26.5 -83t76.5 -32t76 30.5t25 77.5v515h92z" />
    <glyph glyph-name="K" unicode="K" horiz-adv-x="599" 
d="M455 0l-287 318v-318h-91v697h91v-323l288 323h115l-316 -349l319 -348h-119z" />
    <glyph glyph-name="L" unicode="L" horiz-adv-x="432" 
d="M168 74h244v-74h-335v697h91v-623z" />
    <glyph glyph-name="M" unicode="M" horiz-adv-x="861" 
d="M784 692v-692h-91v516l-230 -516h-64l-231 517v-517h-91v692h98l256 -572l256 572h97z" />
    <glyph glyph-name="N" unicode="N" horiz-adv-x="703" 
d="M625 0h-91l-366 555v-555h-91v698h91l366 -554v554h91v-698z" />
    <glyph glyph-name="O" unicode="O" horiz-adv-x="786" 
d="M216 38.5q-80 45.5 -126.5 127t-46.5 183.5t46.5 183.5t126.5 127t177 45.5q98 0 178 -45.5t126 -126.5t46 -184t-46 -184t-126 -126.5t-178 -45.5q-97 0 -177 45.5zM524.5 106q58.5 34 92 97t33.5 146q0 84 -33.5 146.5t-91.5 96.5t-132 34t-132 -34t-91.5 -96.5
t-33.5 -146.5q0 -83 33.5 -146t92 -97t131.5 -34t131.5 34z" />
    <glyph glyph-name="P" unicode="P" horiz-adv-x="579" 
d="M483.5 348.5q-59.5 -57.5 -181.5 -57.5h-134v-291h-91v697h225q118 0 179.5 -57t61.5 -147q0 -87 -59.5 -144.5zM414 399q36 33 36 94q0 129 -148 129h-134v-256h134q76 0 112 33z" />
    <glyph glyph-name="Q" unicode="Q" horiz-adv-x="788" 
d="M636 -132l-139 139q-51 -14 -104 -14q-97 0 -177 45.5t-126.5 127t-46.5 183.5t46.5 183.5t126.5 127t177 45.5q98 0 178 -45.5t126 -126.5t46 -184q0 -100 -44 -180t-121 -126l176 -175h-118zM169.5 203q33.5 -63 92 -97t131.5 -34t131.5 34t92 97t33.5 146
q0 84 -33.5 146.5t-91.5 96.5t-132 34t-132 -34t-91.5 -96.5t-33.5 -146.5q0 -83 33.5 -146z" />
    <glyph glyph-name="R" unicode="R" horiz-adv-x="608" 
d="M444 0l-166 285h-110v-285h-91v697h225q79 0 133.5 -27t81.5 -73t27 -105q0 -72 -41.5 -127t-124.5 -73l175 -292h-109zM168 358h134q74 0 111 36.5t37 97.5q0 62 -36.5 96t-111.5 34h-134v-264z" />
    <glyph glyph-name="S" unicode="S" horiz-adv-x="587" 
d="M174.5 17.5q-54.5 24.5 -85.5 68t-32 100.5h97q5 -49 40.5 -82.5t103.5 -33.5q65 0 102.5 32.5t37.5 83.5q0 40 -22 65t-55 38t-89 28q-69 18 -110.5 36t-71 56.5t-29.5 103.5q0 57 29 101t81.5 68t120.5 24q98 0 160.5 -49t70.5 -130h-100q-5 40 -42 70.5t-98 30.5
q-57 0 -93 -29.5t-36 -82.5q0 -38 21.5 -62t53 -36.5t88.5 -28.5q69 -19 111 -37.5t72 -57t30 -104.5q0 -51 -27 -96t-80 -73t-125 -28q-69 0 -123.5 24.5z" />
    <glyph glyph-name="T" unicode="T" horiz-adv-x="541" 
d="M506 697v-74h-190v-623h-91v623h-191v74h472z" />
    <glyph glyph-name="U" unicode="U" horiz-adv-x="675" 
d="M166 697v-441q0 -93 45.5 -138t126.5 -45q80 0 125.5 45t45.5 138v441h91v-440q0 -87 -35 -146.5t-94.5 -88.5t-133.5 -29t-133.5 29t-94 88.5t-34.5 146.5v440h91z" />
    <glyph glyph-name="V" unicode="V" horiz-adv-x="676" 
d="M653 697l-263 -697h-105l-263 697h97l219 -601l219 601h96z" />
    <glyph glyph-name="W" unicode="W" horiz-adv-x="976" 
d="M953 697l-202 -697h-102l-162 561l-168 -561l-101 -1l-195 698h97l152 -591l168 591h102l160 -589l153 589h98z" />
    <glyph glyph-name="X" unicode="X" horiz-adv-x="621" 
d="M362 348l214 -348h-103l-167 272l-159 -272h-101l213 348l-214 349h102l168 -273l160 273h102z" />
    <glyph glyph-name="Y" unicode="Y" horiz-adv-x="584" 
d="M565 697l-227 -434v-263h-91v263l-228 434h101l172 -353l172 353h101z" />
    <glyph glyph-name="Z" unicode="Z" horiz-adv-x="541" 
d="M154 79h340v-79h-448v72l338 546h-334v79h442v-72z" />
    <glyph glyph-name="bracketleft" unicode="[" horiz-adv-x="423" 
d="M313 934v-75h-95v-969h95v-76h-180v1120h180z" />
    <glyph glyph-name="backslash" unicode="\" horiz-adv-x="658" 
d="M444 -170l-313 1112h90l313 -1112h-90z" />
    <glyph glyph-name="bracketright" unicode="]" horiz-adv-x="423" 
d="M290 -186h-180v76h95v969h-95v75h180v-1120z" />
    <glyph glyph-name="asciicircum" unicode="^" horiz-adv-x="629" 
d="M131 169h-94l235 524h85l236 -524h-95l-182 412z" />
    <glyph glyph-name="underscore" unicode="_" horiz-adv-x="733" 
d="M637 -38v-84h-532v84h532z" />
    <glyph glyph-name="grave" unicode="`" horiz-adv-x="257" 
d="M230 657v-68l-213 114v79z" />
    <glyph glyph-name="a" unicode="a" horiz-adv-x="676" 
d="M77 423.5q34 63.5 93.5 98.5t132.5 35q72 0 125 -31t79 -78v100h92v-548h-92v102q-27 -48 -80.5 -79.5t-124.5 -31.5q-73 0 -132 36t-93 101t-34 148q0 84 34 147.5zM482 383q-25 46 -67.5 70.5t-93.5 24.5t-93 -24t-67 -70t-25 -108q0 -63 25 -109.5t67 -71t93 -24.5
t93.5 24.5t67.5 71t25 108.5t-25 108z" />
    <glyph glyph-name="b" unicode="b" horiz-adv-x="676" 
d="M250 526q54 31 123 31q74 0 133 -35t93 -98.5t34 -147.5q0 -83 -34 -148t-93.5 -101t-132.5 -36q-71 0 -124.5 31t-80.5 79v-101h-91v740h91v-294q28 49 82 80zM515 384q-25 46 -67.5 70t-93.5 24q-50 0 -92.5 -24.5t-68 -71t-25.5 -107.5q0 -62 25.5 -108.5t68 -71
t92.5 -24.5q51 0 93.5 24.5t67.5 71t25 109.5q0 62 -25 108z" />
    <glyph glyph-name="c" unicode="c" horiz-adv-x="607" 
d="M77 423.5q34 63.5 94.5 98.5t138.5 35q101 0 166.5 -49t86.5 -136h-98q-14 50 -54.5 79t-100.5 29q-78 0 -126 -53.5t-48 -151.5q0 -99 48 -153t126 -54q60 0 100 28t55 80h98q-22 -84 -88 -134.5t-165 -50.5q-78 0 -138.5 35t-94.5 99t-34 150q0 85 34 148.5z" />
    <glyph glyph-name="d" unicode="d" horiz-adv-x="676" 
d="M77 423.5q34 63.5 93.5 98.5t133.5 35q64 0 119 -29.5t84 -77.5v290h92v-740h-92v103q-27 -49 -80 -80.5t-124 -31.5q-73 0 -132.5 36t-93.5 101t-34 148q0 84 34 147.5zM482 383q-25 46 -67.5 70.5t-93.5 24.5t-93 -24t-67 -70t-25 -108q0 -63 25 -109.5t67 -71
t93 -24.5t93.5 24.5t67.5 71t25 108.5t-25 108z" />
    <glyph glyph-name="e" unicode="e" horiz-adv-x="620" 
d="M574 240h-438q5 -81 55.5 -126.5t122.5 -45.5q59 0 98.5 27.5t55.5 73.5h98q-22 -79 -88 -128.5t-164 -49.5q-78 0 -139.5 35t-96.5 99.5t-35 149.5t34 149t95.5 98.5t141.5 34.5q78 0 138 -34t92.5 -93.5t32.5 -134.5q0 -26 -3 -55zM460 403.5q-23 37.5 -62.5 57
t-87.5 19.5q-69 0 -117.5 -44t-55.5 -122h346q0 52 -23 89.5z" />
    <glyph glyph-name="f" unicode="f" horiz-adv-x="329" 
d="M300 473h-115v-473h-91v473h-71v75h71v39q0 92 47.5 134.5t152.5 42.5v-76q-60 0 -84.5 -23.5t-24.5 -77.5v-39h115v-75z" />
    <glyph glyph-name="g" unicode="g" horiz-adv-x="676" 
d="M427.5 526q53.5 -31 79.5 -78v100h92v-560q0 -75 -32 -133.5t-91.5 -91.5t-138.5 -33q-108 0 -180 51t-85 139h90q15 -50 62 -80.5t113 -30.5q75 0 122.5 47t47.5 132v115q-27 -48 -80 -80t-124 -32q-73 0 -132.5 36t-93.5 101t-34 148q0 84 34 147.5t93.5 98.5t132.5 35
q71 0 124.5 -31zM482 383q-25 46 -67.5 70.5t-93.5 24.5t-93 -24t-67 -70t-25 -108q0 -63 25 -109.5t67 -71t93 -24.5t93.5 24.5t67.5 71t25 108.5t-25 108z" />
    <glyph glyph-name="h" unicode="h" 
d="M461 531.5q50 -26.5 78.5 -79.5t28.5 -129v-323h-90v310q0 82 -41 125.5t-112 43.5q-72 0 -114.5 -45t-42.5 -131v-303h-91v740h91v-270q27 42 74.5 65t106.5 23q62 0 112 -26.5z" />
    <glyph glyph-name="i" unicode="i" horiz-adv-x="246" 
d="M80 655q-18 18 -18 44t18 44t44 18q25 0 42.5 -18t17.5 -44t-17.5 -44t-42.5 -18q-26 0 -44 18zM168 548v-548h-91v548h91z" />
    <glyph glyph-name="j" unicode="j" horiz-adv-x="248" 
d="M82.5 655q-17.5 18 -17.5 44t17.5 44t43.5 18t43.5 -18t17.5 -44t-17.5 -44t-43.5 -18t-43.5 18zM171 -119q0 -73 -37 -107t-108 -34h-53v77h38q38 0 53.5 15t15.5 51v665h91v-667z" />
    <glyph glyph-name="k" unicode="k" horiz-adv-x="515" 
d="M383 0l-215 242v-242h-91v740h91v-435l211 243h127l-258 -273l259 -275h-124z" />
    <glyph glyph-name="l" unicode="l" horiz-adv-x="246" 
d="M168 740v-740h-91v740h91z" />
    <glyph glyph-name="m" unicode="m" horiz-adv-x="1030" 
d="M850 531.5q50 -26.5 79 -79.5t29 -129v-323h-90v310q0 82 -40.5 125.5t-109.5 43.5q-71 0 -113 -45.5t-42 -131.5v-302h-90v310q0 82 -40.5 125.5t-109.5 43.5q-71 0 -113 -45.5t-42 -131.5v-302h-91v548h91v-79q27 43 72.5 66t100.5 23q69 0 122 -31t79 -91q23 58 76 90
t118 32q64 0 114 -26.5z" />
    <glyph glyph-name="n" unicode="n" 
d="M506 497.5q62 -60.5 62 -174.5v-323h-90v310q0 82 -41 125.5t-112 43.5q-72 0 -114.5 -45t-42.5 -131v-303h-91v548h91v-78q27 42 73.5 65t102.5 23q100 0 162 -60.5z" />
    <glyph glyph-name="o" unicode="o" 
d="M176.5 26q-62.5 35 -98 99.5t-35.5 149.5q0 84 36.5 148.5t99.5 99t141 34.5t141 -34.5t99.5 -98.5t36.5 -149t-37.5 -149.5t-101.5 -99.5t-142 -35q-77 0 -139.5 35zM408 94q43 23 69.5 69t26.5 112t-26 112t-68 68.5t-91 22.5q-50 0 -91.5 -22.5t-66.5 -68.5t-25 -112
q0 -67 24.5 -113t65.5 -68.5t90 -22.5t92 23z" />
    <glyph glyph-name="p" unicode="p" horiz-adv-x="676" 
d="M248.5 525.5q53.5 31.5 124.5 31.5q73 0 132.5 -35t93.5 -98.5t34 -147.5q0 -83 -34 -148t-93.5 -101t-132.5 -36q-70 0 -123.5 31.5t-81.5 78.5v-361h-91v808h91v-101q27 47 80.5 78.5zM515 384q-25 46 -67.5 70t-93.5 24q-50 0 -92.5 -24.5t-68 -71t-25.5 -107.5
q0 -62 25.5 -108.5t68 -71t92.5 -24.5q51 0 93.5 24.5t67.5 71t25 109.5q0 62 -25 108z" />
    <glyph glyph-name="q" unicode="q" horiz-adv-x="676" 
d="M77 423.5q34 63.5 93.5 98.5t133.5 35q71 0 124.5 -31.5t78.5 -77.5v100h92v-808h-92v361q-26 -46 -80 -78t-126 -32t-131 36t-93 101t-34 148q0 84 34 147.5zM482 383q-25 46 -67.5 70.5t-93.5 24.5t-93 -24t-67 -70t-25 -108q0 -63 25 -109.5t67 -71t93 -24.5
t93.5 24.5t67.5 71t25 108.5t-25 108z" />
    <glyph glyph-name="r" unicode="r" horiz-adv-x="373" 
d="M236.5 532q44.5 26 108.5 26v-94h-24q-153 0 -153 -166v-298h-91v548h91v-89q24 47 68.5 73z" />
    <glyph glyph-name="s" unicode="s" horiz-adv-x="522" 
d="M158 12.5q-50 21.5 -79 60t-32 88.5h94q4 -41 38.5 -67t90.5 -26q52 0 82 23t30 58q0 36 -32 53.5t-99 34.5q-61 16 -99.5 32.5t-66 49t-27.5 85.5q0 42 25 77t71 55.5t105 20.5q91 0 147 -46t60 -126h-91q-3 43 -34.5 69t-84.5 26q-49 0 -78 -21t-29 -55
q0 -27 17.5 -44.5t44 -28t73.5 -23.5q59 -16 96 -31.5t63.5 -46.5t27.5 -81q0 -45 -25 -81t-70.5 -56.5t-104.5 -20.5q-63 0 -113 21.5z" />
    <glyph glyph-name="t" unicode="t" horiz-adv-x="364" 
d="M188 473v-323q0 -40 17 -56.5t59 -16.5h67v-77h-82q-76 0 -114 35t-38 115v323h-71v75h71v138h91v-138h143v-75h-143z" />
    <glyph glyph-name="u" unicode="u" 
d="M563 548v-548h-91v81q-26 -42 -72.5 -65.5t-102.5 -23.5q-64 0 -115 26.5t-80.5 79.5t-29.5 129v321h90v-309q0 -81 41 -124.5t112 -43.5q73 0 115 45t42 131v301h91z" />
    <glyph glyph-name="v" unicode="v" horiz-adv-x="561" 
d="M281 84l170 464h97l-215 -548h-106l-215 548h98z" />
    <glyph glyph-name="w" unicode="w" horiz-adv-x="820" 
d="M807 548l-171 -548h-94l-132 435l-132 -435h-94l-172 548h93l126 -460l136 460h93l133 -461l124 461h90z" />
    <glyph glyph-name="x" unicode="x" horiz-adv-x="479" 
d="M363 0l-130 204l-125 -204h-95l177 272l-177 276h103l130 -203l124 203h95l-176 -271l177 -277h-103z" />
    <glyph glyph-name="y" unicode="y" horiz-adv-x="563" 
d="M549 548l-330 -806h-94l108 264l-221 542h101l172 -444l170 444h94z" />
    <glyph glyph-name="z" unicode="z" horiz-adv-x="455" 
d="M145 75h269v-75h-373v75l266 399h-264v74h369v-74z" />
    <glyph glyph-name="braceleft" unicode="{" horiz-adv-x="462" 
d="M105 409q102 19 102 105q0 38 -10 130q-10 98 -10 142q0 72 40.5 110t108.5 38h58v-79h-41q-39 0 -58 -17.5t-19 -57.5q0 -29 4 -71.5t5 -57.5q10 -96 10 -140q0 -53 -26.5 -88.5t-81.5 -47.5v-2q55 -12 81.5 -48t26.5 -89q0 -44 -10 -140q-1 -15 -5 -57.5t-4 -71.5
q0 -40 19 -57.5t58 -17.5h41v-79h-58q-68 0 -108.5 38t-40.5 110q0 44 10 142q10 92 10 130q0 86 -102 105v71z" />
    <glyph glyph-name="bar" unicode="|" horiz-adv-x="291" 
d="M191 -106h-91v901h91v-901z" />
    <glyph glyph-name="braceright" unicode="}" horiz-adv-x="462" 
d="M255 233q0 -38 10 -130q10 -98 10 -142q0 -72 -40.5 -110t-108.5 -38h-58v79h41q39 0 58 17.5t19 57.5q0 29 -4 71.5t-5 57.5q-10 96 -10 140q0 53 26.5 89t81.5 48v2q-55 12 -81.5 47.5t-26.5 88.5q0 44 10 140q1 15 5 57.5t4 71.5q0 40 -19 57.5t-58 17.5h-41v79h58
q68 0 108.5 -38t40.5 -110q0 -44 -10 -142q-10 -92 -10 -130q0 -86 102 -105v-71q-102 -19 -102 -105z" />
    <glyph glyph-name="asciitilde" unicode="~" horiz-adv-x="519" 
d="M178 394q27 0 48.5 -9.5t48.5 -27.5q24 -15 39.5 -22t32.5 -7q26 0 44.5 17.5t22.5 47.5h68q-25 -146 -142 -146q-26 0 -46 9t-49 27q-24 15 -39 22.5t-34 7.5q-26 0 -45 -17.5t-23 -47.5h-67q26 146 141 146z" />
    <glyph glyph-name="uni00A0" unicode="&#xa0;" horiz-adv-x="267" 
 />
    <glyph glyph-name="exclamdown" unicode="&#xa1;" horiz-adv-x="298" 
d="M192.5 546q17.5 -18 17.5 -44t-17.5 -44t-42.5 -18q-26 0 -44 18t-18 44t18 44t44 18q25 0 42.5 -18zM108 361h76l11 -500h-98z" />
    <glyph glyph-name="cent" unicode="&#xa2;" horiz-adv-x="665" 
d="M421.5 107.5q38.5 27.5 49.5 76.5h85q-9 -74 -65.5 -123t-143.5 -56v-94h-54v94q-108 9 -168 79.5t-60 177.5t60 177.5t168 79.5v92h54v-92q87 -7 143.5 -56t65.5 -122h-85q-12 48 -50 76t-99 28q-76 0 -123.5 -48.5t-47.5 -134.5t47.5 -134t123.5 -48q61 0 99.5 27.5z
" />
    <glyph glyph-name="sterling" unicode="&#xa3;" horiz-adv-x="620" 
d="M545 74v-76h-446l-16 52q42 47 62.5 90t20.5 106q0 26 -9 62h-113v64h91q-13 35 -20 66.5t-7 69.5q0 64 27.5 111.5t77 73.5t113.5 26q102 0 157 -59t59 -149h-84q-2 59 -35.5 95t-96.5 36q-58 0 -94.5 -34t-36.5 -104q0 -33 7 -62.5t21 -69.5h194v-64h-174q9 -36 9 -62
q0 -95 -71 -172h364z" />
    <glyph glyph-name="currency" unicode="&#xa4;" horiz-adv-x="537" 
d="M414 271l59 -59l-41 -42l-60 60q-47 -30 -105 -30q-60 0 -103 29l-59 -59l-42 42l59 59q-30 46 -30 106q0 62 32 107l-61 60l42 42l61 -61q43 29 102 29t103 -29l61 61l41 -42l-60 -60q33 -44 33 -107q0 -60 -32 -106zM339 290.5q30 31.5 30 86.5t-29.5 87t-72.5 32
q-42 0 -70.5 -31.5t-28.5 -87.5t28 -87t71 -31q42 0 72 31.5z" />
    <glyph glyph-name="yen" unicode="&#xa5;" horiz-adv-x="595" 
d="M407 383h137v-66l-173 -2l-27 -52v-39h200v-67h-200v-157h-91v157h-200v67h200v39l-28 52l-172 2v66h137l-165 314h102l171 -352l171 352h102z" />
    <glyph glyph-name="brokenbar" unicode="&#xa6;" horiz-adv-x="291" 
d="M100 795h91v-378h-91v378zM191 -106h-91v379h91v-379z" />
    <glyph glyph-name="section" unicode="&#xa7;" horiz-adv-x="575" 
d="M470.5 40q28.5 -32 28.5 -79q0 -43 -24.5 -79t-71 -57t-108.5 -21q-92 0 -150.5 43.5t-60.5 121.5h91q4 -45 33.5 -73t86.5 -28q54 0 83.5 21.5t29.5 64.5q0 25 -14.5 43.5t-48.5 35t-98 37.5q-102 34 -151.5 76t-49.5 112q0 56 35.5 99.5t102.5 62.5q-51 25 -79.5 56.5
t-28.5 78.5q0 43 24.5 79t71 57t109.5 21q92 0 150 -44t60 -122h-91q-3 44 -32.5 72.5t-86.5 28.5q-54 0 -84 -21.5t-30 -62.5q0 -26 14.5 -44.5t48.5 -35.5t98 -38q101 -33 151 -75t50 -112q0 -56 -35 -99t-103 -64q51 -23 79.5 -55zM180 176q41 -33 110 -33
q67 0 106.5 33.5t39.5 81.5q0 50 -41 82t-109 32t-107.5 -33t-39.5 -81q0 -49 41 -82z" />
    <glyph glyph-name="dieresis" unicode="&#xa8;" horiz-adv-x="314" 
d="M38.5 637q-15.5 15 -15.5 37t15.5 37.5t37.5 15.5q21 0 36.5 -15.5t15.5 -37.5t-15.5 -37t-36.5 -15q-22 0 -37.5 15zM201 637q-15 15 -15 37t15 37.5t37 15.5t37.5 -15.5t15.5 -37.5t-15.5 -37t-37.5 -15t-37 15z" />
    <glyph glyph-name="copyright" unicode="&#xa9;" horiz-adv-x="792" 
d="M577 658.5q79 -45.5 122.5 -126t43.5 -183.5t-43.5 -183.5t-122.5 -126t-180 -45.5q-102 0 -181 45.5t-123 126t-44 183.5t44 183.5t123 126t181 45.5q101 0 180 -45.5zM235 624.5q-69 -39.5 -106 -110.5t-37 -165q0 -93 37 -164.5t106 -111.5t162 -40q92 0 160.5 40
t105.5 111.5t37 164.5q0 94 -37 165t-105.5 110.5t-160.5 39.5q-93 0 -162 -39.5zM285.5 553q-49.5 -28 -78.5 -80.5t-29 -122.5t29 -122.5t78.5 -81t109.5 -28.5q75 0 130 40.5t75 108.5h-84q-30 -83 -121 -83q-60 0 -98 43t-38 122q0 80 38 123t98 43q44 0 76 -21.5
t45 -61.5h84q-19 71 -74 110t-131 39q-60 0 -109.5 -28z" />
    <glyph glyph-name="ordfeminine" unicode="&#xaa;" horiz-adv-x="450" 
d="M55 623q22 41 60 63.5t85 22.5t80.5 -18.5t50.5 -48.5v61h72v-350h-72v60q-16 -29 -49.5 -47.5t-79.5 -18.5q-48 0 -86.5 23.5t-60.5 65t-22 94.5q0 52 22 93zM140 438q32 -34 79 -34q48 0 80 33.5t32 90.5t-32 90.5t-80 33.5q-47 0 -79 -33t-32 -90t32 -91z" />
    <glyph glyph-name="guillemotleft" unicode="&#xab;" horiz-adv-x="461" 
d="M141 120l-96 175l96 175h89l-99 -175l99 -175h-89zM321 120l-95 175l95 175h90l-99 -175l99 -175h-90z" />
    <glyph glyph-name="logicalnot" unicode="&#xac;" horiz-adv-x="650" 
d="M606 432v-212h-91v140h-474v72h565z" />
    <glyph glyph-name="uni00AD" unicode="&#xad;" horiz-adv-x="551" 
d="M457 405v-77h-399v77h399z" />
    <glyph glyph-name="registered" unicode="&#xae;" horiz-adv-x="509" 
d="M359 679.5q46 -26.5 72 -73t26 -104.5t-26 -105t-72 -73.5t-104 -26.5q-59 0 -105 26.5t-72 73.5t-26 105t26 104.5t72 73t105 26.5q58 0 104 -26.5zM371.5 383q44.5 46 44.5 119t-44.5 119t-116.5 46q-73 0 -116.5 -46t-43.5 -119t43.5 -119t116.5 -46q72 0 116.5 46z
M332.5 503.5q-12.5 -16.5 -34.5 -23.5l56 -83l-63 -1l-48 80h-17v-80h-52v215h96q34 0 54.5 -18t20.5 -49q0 -24 -12.5 -40.5zM226 519h41q11 0 18.5 6t7.5 17t-7.5 16.5t-18.5 5.5h-41v-45z" />
    <glyph glyph-name="macron" unicode="&#xaf;" horiz-adv-x="387" 
d="M369 709v-68h-352v68h352z" />
    <glyph glyph-name="degree" unicode="&#xb0;" horiz-adv-x="410" 
d="M77.5 651q49.5 48 127.5 48t127 -48t49 -127q0 -53 -23 -93t-63.5 -62t-91.5 -22q-78 0 -126.5 48.5t-48.5 128.5q0 79 49.5 127zM278.5 613.5q-29.5 32.5 -74.5 32.5q-44 0 -73.5 -32.5t-29.5 -89.5q0 -59 28.5 -90.5t73.5 -31.5t75 32t30 90q0 57 -29.5 89.5z" />
    <glyph glyph-name="plusminus" unicode="&#xb1;" horiz-adv-x="686" 
d="M386 377v-182h211v-77h-509v77h213v182h-213v77h213v170h85v-170h211v-77h-211z" />
    <glyph glyph-name="uni00B2" unicode="&#xb2;" horiz-adv-x="330" 
d="M289 411v-59h-257v52l109 88q33 27 50.5 51.5t17.5 53.5q0 27 -14.5 42t-37.5 15q-24 0 -37.5 -13.5t-16.5 -37.5h-73q2 47 36 77t93 30q57 0 91.5 -32t34.5 -78q0 -38 -22 -67.5t-71 -65.5l-79 -56h176z" />
    <glyph glyph-name="uni00B3" unicode="&#xb3;" horiz-adv-x="332" 
d="M68.5 682.5q36.5 27.5 94.5 27.5q56 0 94 -30t38 -73q0 -30 -17 -50t-45 -28v-2q28 -10 46.5 -31.5t18.5 -51.5q0 -41 -38.5 -69t-99.5 -28q-60 0 -96.5 28t-40.5 79h72q4 -27 20.5 -40t43.5 -13q28 0 44.5 14t16.5 38t-17.5 38t-45.5 14h-43v48h41q29 0 46 13t17 37
q0 23 -16 37.5t-44 14.5q-26 0 -41.5 -12t-20.5 -32h-69q5 44 41.5 71.5z" />
    <glyph glyph-name="acute" unicode="&#xb4;" horiz-adv-x="247" 
d="M230 703l-213 -114v68l213 125v-79z" />
    <glyph glyph-name="mu" unicode="&#xb5;" horiz-adv-x="645" 
d="M568 548v-548h-91v100q-26 -54 -73.5 -81.5t-108.5 -27.5q-40 0 -73.5 15t-54.5 48v-314h-90v808h90v-300q0 -87 42.5 -133t113.5 -46t112.5 45t41.5 131v303h91z" />
    <glyph glyph-name="paragraph" unicode="&#xb6;" horiz-adv-x="596" 
d="M518 0h-81v621h-77v-621h-81v286h-11q-117 0 -177 56t-60 146t60.5 147t176.5 57h250v-692z" />
    <glyph glyph-name="periodcentered" unicode="&#xb7;" horiz-adv-x="212" 
d="M65 297q-18 18 -18 44t18 44t44 18q25 0 42.5 -18t17.5 -44t-17.5 -44t-42.5 -18q-26 0 -44 18z" />
    <glyph glyph-name="cedilla" unicode="&#xb8;" horiz-adv-x="272" 
d="M219 -83q35 -26 35 -74q0 -47 -34 -75t-88 -28h-115v59h97q33 0 48.5 10t15.5 34q0 23 -15.5 33t-48.5 10h-50v121h61v-65q59 1 94 -25z" />
    <glyph glyph-name="uni00B9" unicode="&#xb9;" horiz-adv-x="196" 
d="M25 648v56h126v-352h-72v296h-54z" />
    <glyph glyph-name="ordmasculine" unicode="&#xba;" horiz-adv-x="436" 
d="M57 623q24 41 66.5 63.5t94.5 22.5q53 0 95 -22.5t66 -63.5t24 -95q0 -53 -24.5 -94.5t-67 -64.5t-94.5 -23q-53 0 -94.5 23t-65.5 64t-24 95t24 95zM296.5 619q-32.5 33 -78.5 33q-47 0 -78.5 -33t-31.5 -92q0 -58 31 -90.5t78 -32.5q46 0 79 33t33 90q0 59 -32.5 92z
" />
    <glyph glyph-name="guillemotright" unicode="&#xbb;" horiz-adv-x="461" 
d="M149 295l-99 175h89l96 -175l-96 -175h-89zM329 295l-98 175h89l96 -175l-96 -175h-89z" />
    <glyph glyph-name="onequarter" unicode="&#xbc;" 
d="M38 648v56h126v-352h-72v296h-54zM522 698l-374 -698h-86l374 698h86zM604 69h-48v-69h-72v69h-183v42l158 242h97v-237h48v-47zM486 291l-111 -175h111v175z" />
    <glyph glyph-name="onehalf" unicode="&#xbd;" horiz-adv-x="675" 
d="M90 648h-54v56h126v-352h-72v296zM509 698l-365 -698h-87l366 698h86zM627 58v-59h-257v52l109 88q33 27 50.5 51.5t17.5 53.5q0 27 -14.5 42t-37.5 15q-24 0 -37.5 -13.5t-16.5 -37.5h-73q2 47 36 77t93 30q57 0 91.5 -32t34.5 -78q0 -38 -22 -67.5t-71 -65.5l-79 -56
h176z" />
    <glyph glyph-name="threequarters" unicode="&#xbe;" horiz-adv-x="709" 
d="M80.5 682.5q36.5 27.5 94.5 27.5q56 0 94 -30t38 -73q0 -30 -17 -50t-45 -28v-2q28 -10 46.5 -31.5t18.5 -51.5q0 -41 -38.5 -69t-99.5 -28q-60 0 -96.5 28t-40.5 79h72q4 -27 20.5 -40t43.5 -13q28 0 44.5 14t16.5 38t-17.5 38t-45.5 14h-43v48h41q29 0 46 13t17 37
q0 23 -16 37.5t-44 14.5q-26 0 -41.5 -12t-20.5 -32h-69q5 44 41.5 71.5zM617 698l-389 -698h-85l388 698h86zM682 69h-47v-69h-72v69h-183v42l158 242h97v-237h47v-47zM564 291l-111 -175h111v175z" />
    <glyph glyph-name="questiondown" unicode="&#xbf;" horiz-adv-x="519" 
d="M374 538q18 -18 18 -44t-18 -44t-44 -18q-25 0 -42.5 18t-17.5 44t17.5 44t42.5 18q26 0 44 -18zM107 -100q-61 56 -61 150q0 105 65 155.5t176 50.5l3 95h79l4 -158h-29q-99 0 -155 -30t-56 -113q0 -60 36 -95t97 -35q62 0 97.5 33.5t35.5 91.5h86q0 -60 -27 -105.5
t-76.5 -70.5t-114.5 -25q-99 0 -160 56z" />
    <glyph glyph-name="Agrave" unicode="&#xc0;" horiz-adv-x="674" 
d="M489 155h-304l-56 -155h-96l252 693h105l251 -693h-96zM463 229l-126 352l-126 -352h252zM435 802v-68l-213 114v79z" />
    <glyph glyph-name="Aacute" unicode="&#xc1;" horiz-adv-x="674" 
d="M489 155h-304l-56 -155h-96l252 693h105l251 -693h-96zM463 229l-126 352l-126 -352h252zM435 848l-213 -114v68l213 125v-79z" />
    <glyph glyph-name="Acircumflex" unicode="&#xc2;" horiz-adv-x="674" 
d="M489 155h-304l-56 -155h-96l252 693h105l251 -693h-96zM463 229l-126 352l-126 -352h252zM338 827l-139 -85v72l139 83l138 -83v-72z" />
    <glyph glyph-name="Atilde" unicode="&#xc3;" horiz-adv-x="674" 
d="M489 155h-304l-56 -155h-96l252 693h105l251 -693h-96zM463 229l-126 352l-126 -352h252zM223.5 830q26.5 27 66.5 27q19 0 32.5 -6.5t32.5 -18.5q14 -10 25 -15.5t24 -5.5q17 0 29 11t15 32h52q-6 -50 -33 -77t-67 -27q-19 0 -33.5 6.5t-32.5 19.5q-16 10 -25.5 15
t-22.5 5q-17 0 -28.5 -11t-14.5 -33h-53q7 51 33.5 78z" />
    <glyph glyph-name="Adieresis" unicode="&#xc4;" horiz-adv-x="674" 
d="M489 155h-304l-56 -155h-96l252 693h105l251 -693h-96zM463 229l-126 352l-126 -352h252zM219.5 782q-15.5 15 -15.5 37t15.5 37.5t37.5 15.5q21 0 36.5 -15.5t15.5 -37.5t-15.5 -37t-36.5 -15q-22 0 -37.5 15zM382 782q-15 15 -15 37t15 37.5t37 15.5t37.5 -15.5
t15.5 -37.5t-15.5 -37t-37.5 -15t-37 15z" />
    <glyph glyph-name="Aring" unicode="&#xc5;" horiz-adv-x="674" 
d="M489 155h-304l-56 -155h-96l252 693h105l251 -693h-96zM463 229l-126 352l-126 -352h252zM414.5 780.5q-30.5 -28.5 -76.5 -28.5q-45 0 -76 29t-31 76t31 76t76 29q46 0 76.5 -28.5t30.5 -76.5t-30.5 -76.5zM376.5 898.5q-15.5 15.5 -38.5 15.5t-38.5 -15.5t-15.5 -40.5
t15.5 -41t38.5 -16t38.5 16t15.5 41t-15.5 40.5z" />
    <glyph glyph-name="AE" unicode="&#xc6;" horiz-adv-x="900" 
d="M556 626v-239h252v-70h-252v-245h282v-72h-373v155h-267l-87 -155h-99l395 698h431v-72h-282zM465 226v403l-227 -403h227z" />
    <glyph glyph-name="Ccedilla" unicode="&#xc7;" horiz-adv-x="772" 
d="M521.5 106.5q54.5 33.5 83.5 96.5h109q-36 -92 -111.5 -146t-176.5 -62v-53q59 1 94 -25t35 -74q0 -47 -34 -75t-88 -28h-115v59h97q33 0 48.5 10t15.5 34q0 23 -15.5 33t-48.5 10h-50v109q-91 6 -164.5 52.5t-115.5 125t-42 176.5q0 102 46 183.5t125.5 127.5t176.5 46
q114 0 199 -55t124 -156h-109q-29 63 -83.5 97t-130.5 34q-73 0 -131 -34t-91 -96.5t-33 -146.5q0 -83 33 -145.5t91 -96.5t131 -34q76 0 130.5 33.5z" />
    <glyph glyph-name="Egrave" unicode="&#xc8;" horiz-adv-x="513" 
d="M168 623v-233h254v-75h-254v-240h284v-75h-375v698h375v-75h-284zM352 802v-68l-213 114v79z" />
    <glyph glyph-name="Eacute" unicode="&#xc9;" horiz-adv-x="513" 
d="M168 623v-233h254v-75h-254v-240h284v-75h-375v698h375v-75h-284zM352 848l-213 -114v68l213 125v-79z" />
    <glyph glyph-name="Ecircumflex" unicode="&#xca;" horiz-adv-x="513" 
d="M168 623v-233h254v-75h-254v-240h284v-75h-375v698h375v-75h-284zM255 827l-139 -85v72l139 83l138 -83v-72z" />
    <glyph glyph-name="Edieresis" unicode="&#xcb;" horiz-adv-x="513" 
d="M168 623v-233h254v-75h-254v-240h284v-75h-375v698h375v-75h-284zM136.5 782q-15.5 15 -15.5 37t15.5 37.5t37.5 15.5q21 0 36.5 -15.5t15.5 -37.5t-15.5 -37t-36.5 -15q-22 0 -37.5 15zM299 782q-15 15 -15 37t15 37.5t37 15.5t37.5 -15.5t15.5 -37.5t-15.5 -37
t-37.5 -15t-37 15z" />
    <glyph glyph-name="Igrave" unicode="&#xcc;" horiz-adv-x="246" 
d="M168 697v-697h-91v697h91zM220 802v-68l-213 114v79z" />
    <glyph glyph-name="Iacute" unicode="&#xcd;" horiz-adv-x="246" 
d="M168 697v-697h-91v697h91zM220 848l-213 -114v68l213 125v-79z" />
    <glyph glyph-name="Icircumflex" unicode="&#xce;" horiz-adv-x="246" 
d="M168 697v-697h-91v697h91zM123 827l-139 -85v72l139 83l138 -83v-72z" />
    <glyph glyph-name="Idieresis" unicode="&#xcf;" horiz-adv-x="246" 
d="M168 697v-697h-91v697h91zM4.5 782q-15.5 15 -15.5 37t15.5 37.5t37.5 15.5q21 0 36.5 -15.5t15.5 -37.5t-15.5 -37t-36.5 -15q-22 0 -37.5 15zM167 782q-15 15 -15 37t15 37.5t37 15.5t37.5 -15.5t15.5 -37.5t-15.5 -37t-37.5 -15t-37 15z" />
    <glyph glyph-name="Eth" unicode="&#xd0;" horiz-adv-x="725" 
d="M509.5 654.5q83.5 -42.5 128 -121.5t44.5 -186t-44.5 -185.5t-128 -120t-196.5 -41.5h-217v305h-87v84h87v308h217q113 0 196.5 -42.5zM518 143.5q71 73.5 71 203.5t-71 203t-205 73h-126v-234h192v-84h-192v-235h126q134 0 205 73.5z" />
    <glyph glyph-name="Ntilde" unicode="&#xd1;" horiz-adv-x="703" 
d="M625 0h-91l-366 555v-555h-91v698h91l366 -554v554h91v-698zM238.5 830q26.5 27 66.5 27q19 0 32.5 -6.5t32.5 -18.5q14 -10 25 -15.5t24 -5.5q17 0 29 11t15 32h52q-6 -50 -33 -77t-67 -27q-19 0 -33.5 6.5t-32.5 19.5q-16 10 -25.5 15t-22.5 5q-17 0 -28.5 -11
t-14.5 -33h-53q7 51 33.5 78z" />
    <glyph glyph-name="Ograve" unicode="&#xd2;" horiz-adv-x="786" 
d="M216 38.5q-80 45.5 -126.5 127t-46.5 183.5t46.5 183.5t126.5 127t177 45.5q98 0 178 -45.5t126 -126.5t46 -184t-46 -184t-126 -126.5t-178 -45.5q-97 0 -177 45.5zM524.5 106q58.5 34 92 97t33.5 146q0 84 -33.5 146.5t-91.5 96.5t-132 34t-132 -34t-91.5 -96.5
t-33.5 -146.5q0 -83 33.5 -146t92 -97t131.5 -34t131.5 34zM493 802v-68l-213 114v79z" />
    <glyph glyph-name="Oacute" unicode="&#xd3;" horiz-adv-x="786" 
d="M216 38.5q-80 45.5 -126.5 127t-46.5 183.5t46.5 183.5t126.5 127t177 45.5q98 0 178 -45.5t126 -126.5t46 -184t-46 -184t-126 -126.5t-178 -45.5q-97 0 -177 45.5zM524.5 106q58.5 34 92 97t33.5 146q0 84 -33.5 146.5t-91.5 96.5t-132 34t-132 -34t-91.5 -96.5
t-33.5 -146.5q0 -83 33.5 -146t92 -97t131.5 -34t131.5 34zM493 848l-213 -114v68l213 125v-79z" />
    <glyph glyph-name="Ocircumflex" unicode="&#xd4;" horiz-adv-x="786" 
d="M216 38.5q-80 45.5 -126.5 127t-46.5 183.5t46.5 183.5t126.5 127t177 45.5q98 0 178 -45.5t126 -126.5t46 -184t-46 -184t-126 -126.5t-178 -45.5q-97 0 -177 45.5zM524.5 106q58.5 34 92 97t33.5 146q0 84 -33.5 146.5t-91.5 96.5t-132 34t-132 -34t-91.5 -96.5
t-33.5 -146.5q0 -83 33.5 -146t92 -97t131.5 -34t131.5 34zM396 827l-139 -85v72l139 83l138 -83v-72z" />
    <glyph glyph-name="Otilde" unicode="&#xd5;" horiz-adv-x="786" 
d="M216 38.5q-80 45.5 -126.5 127t-46.5 183.5t46.5 183.5t126.5 127t177 45.5q98 0 178 -45.5t126 -126.5t46 -184t-46 -184t-126 -126.5t-178 -45.5q-97 0 -177 45.5zM524.5 106q58.5 34 92 97t33.5 146q0 84 -33.5 146.5t-91.5 96.5t-132 34t-132 -34t-91.5 -96.5
t-33.5 -146.5q0 -83 33.5 -146t92 -97t131.5 -34t131.5 34zM282.5 830q26.5 27 66.5 27q19 0 32.5 -6.5t32.5 -18.5q14 -10 25 -15.5t24 -5.5q17 0 29 11t15 32h52q-6 -50 -33 -77t-67 -27q-19 0 -33.5 6.5t-32.5 19.5q-16 10 -25.5 15t-22.5 5q-17 0 -28.5 -11t-14.5 -33
h-53q7 51 33.5 78z" />
    <glyph glyph-name="Odieresis" unicode="&#xd6;" horiz-adv-x="786" 
d="M216 38.5q-80 45.5 -126.5 127t-46.5 183.5t46.5 183.5t126.5 127t177 45.5q98 0 178 -45.5t126 -126.5t46 -184t-46 -184t-126 -126.5t-178 -45.5q-97 0 -177 45.5zM524.5 106q58.5 34 92 97t33.5 146q0 84 -33.5 146.5t-91.5 96.5t-132 34t-132 -34t-91.5 -96.5
t-33.5 -146.5q0 -83 33.5 -146t92 -97t131.5 -34t131.5 34zM277.5 782q-15.5 15 -15.5 37t15.5 37.5t37.5 15.5q21 0 36.5 -15.5t15.5 -37.5t-15.5 -37t-36.5 -15q-22 0 -37.5 15zM440 782q-15 15 -15 37t15 37.5t37 15.5t37.5 -15.5t15.5 -37.5t-15.5 -37t-37.5 -15t-37 15
z" />
    <glyph glyph-name="multiply" unicode="&#xd7;" horiz-adv-x="643" 
d="M481 150l-159 159l-159 -159l-60 60l159 159l-156 156l58 59l157 -157l157 157l60 -60l-157 -157l158 -159z" />
    <glyph glyph-name="Oslash" unicode="&#xd8;" horiz-adv-x="786" 
d="M654 593q43 -47 66 -109.5t23 -134.5q0 -103 -46 -184t-126 -126.5t-178 -45.5q-63 0 -119.5 19.5t-101.5 55.5l-63 -68h-74l97 106q-42 48 -65.5 110t-23.5 133q0 102 46.5 183.5t126.5 127t177 45.5q63 0 119.5 -19.5t101.5 -55.5l63 68h74zM191 169l367 400
q-68 57 -165 57q-74 0 -132 -34t-91.5 -96.5t-33.5 -146.5q0 -108 55 -180zM596 529l-368 -400q68 -57 165 -57q73 0 131.5 34t92 97t33.5 146q0 107 -54 180z" />
    <glyph glyph-name="Ugrave" unicode="&#xd9;" horiz-adv-x="675" 
d="M166 697v-441q0 -93 45.5 -138t126.5 -45q80 0 125.5 45t45.5 138v441h91v-440q0 -87 -35 -146.5t-94.5 -88.5t-133.5 -29t-133.5 29t-94 88.5t-34.5 146.5v440h91zM435 802v-68l-213 114v79z" />
    <glyph glyph-name="Uacute" unicode="&#xda;" horiz-adv-x="675" 
d="M166 697v-441q0 -93 45.5 -138t126.5 -45q80 0 125.5 45t45.5 138v441h91v-440q0 -87 -35 -146.5t-94.5 -88.5t-133.5 -29t-133.5 29t-94 88.5t-34.5 146.5v440h91zM435 848l-213 -114v68l213 125v-79z" />
    <glyph glyph-name="Ucircumflex" unicode="&#xdb;" horiz-adv-x="675" 
d="M166 697v-441q0 -93 45.5 -138t126.5 -45q80 0 125.5 45t45.5 138v441h91v-440q0 -87 -35 -146.5t-94.5 -88.5t-133.5 -29t-133.5 29t-94 88.5t-34.5 146.5v440h91zM338 827l-139 -85v72l139 83l138 -83v-72z" />
    <glyph glyph-name="Udieresis" unicode="&#xdc;" horiz-adv-x="675" 
d="M166 697v-441q0 -93 45.5 -138t126.5 -45q80 0 125.5 45t45.5 138v441h91v-440q0 -87 -35 -146.5t-94.5 -88.5t-133.5 -29t-133.5 29t-94 88.5t-34.5 146.5v440h91zM219.5 782q-15.5 15 -15.5 37t15.5 37.5t37.5 15.5q21 0 36.5 -15.5t15.5 -37.5t-15.5 -37t-36.5 -15
q-22 0 -37.5 15zM382 782q-15 15 -15 37t15 37.5t37 15.5t37.5 -15.5t15.5 -37.5t-15.5 -37t-37.5 -15t-37 15z" />
    <glyph glyph-name="Yacute" unicode="&#xdd;" horiz-adv-x="584" 
d="M565 697l-227 -434v-263h-91v263l-228 434h101l172 -353l172 353h101zM390 848l-213 -114v68l213 125v-79z" />
    <glyph glyph-name="Thorn" unicode="&#xde;" horiz-adv-x="579" 
d="M483.5 203.5q-59.5 -57.5 -181.5 -57.5h-134v-146h-91v698h91v-145h134q118 0 179.5 -57t61.5 -147q0 -88 -59.5 -145.5zM413.5 253.5q36.5 34.5 36.5 95.5q0 62 -36.5 97t-111.5 35h-134v-262h134q75 0 111.5 34.5z" />
    <glyph glyph-name="germandbls" unicode="&#xdf;" horiz-adv-x="681" 
d="M119.5 712.5q59.5 58.5 175.5 58.5q69 0 118.5 -23t75 -61t25.5 -82q0 -48 -24 -81.5t-66 -68.5q-27 -23 -39 -37.5t-12 -30.5q0 -22 23 -38t88 -38q73 -24 106 -62.5t33 -97.5q0 -72 -50.5 -116.5t-139.5 -44.5q-87 0 -142 48t-62 132h92q3 -49 32.5 -78t79.5 -29
q47 0 72 21t25 60q0 36 -22 58t-77 40q-81 27 -115.5 57t-34.5 76q0 35 19 61t56 59q34 31 50.5 53t16.5 50q0 45 -34.5 70.5t-94.5 25.5q-143 0 -143 -144v-550h-91v561q0 93 59.5 151.5z" />
    <glyph glyph-name="agrave" unicode="&#xe0;" horiz-adv-x="676" 
d="M77 423.5q34 63.5 93.5 98.5t132.5 35q72 0 125 -31t79 -78v100h92v-548h-92v102q-27 -48 -80.5 -79.5t-124.5 -31.5q-73 0 -132 36t-93 101t-34 148q0 84 34 147.5zM482 383q-25 46 -67.5 70.5t-93.5 24.5t-93 -24t-67 -70t-25 -108q0 -63 25 -109.5t67 -71t93 -24.5
t93.5 24.5t67.5 71t25 108.5t-25 108zM436 657v-68l-213 114v79z" />
    <glyph glyph-name="aacute" unicode="&#xe1;" horiz-adv-x="676" 
d="M77 423.5q34 63.5 93.5 98.5t132.5 35q72 0 125 -31t79 -78v100h92v-548h-92v102q-27 -48 -80.5 -79.5t-124.5 -31.5q-73 0 -132 36t-93 101t-34 148q0 84 34 147.5zM482 383q-25 46 -67.5 70.5t-93.5 24.5t-93 -24t-67 -70t-25 -108q0 -63 25 -109.5t67 -71t93 -24.5
t93.5 24.5t67.5 71t25 108.5t-25 108zM436 703l-213 -114v68l213 125v-79z" />
    <glyph glyph-name="acircumflex" unicode="&#xe2;" horiz-adv-x="676" 
d="M77 423.5q34 63.5 93.5 98.5t132.5 35q72 0 125 -31t79 -78v100h92v-548h-92v102q-27 -48 -80.5 -79.5t-124.5 -31.5q-73 0 -132 36t-93 101t-34 148q0 84 34 147.5zM482 383q-25 46 -67.5 70.5t-93.5 24.5t-93 -24t-67 -70t-25 -108q0 -63 25 -109.5t67 -71t93 -24.5
t93.5 24.5t67.5 71t25 108.5t-25 108zM339 682l-139 -85v72l139 83l138 -83v-72z" />
    <glyph glyph-name="atilde" unicode="&#xe3;" horiz-adv-x="676" 
d="M77 423.5q34 63.5 93.5 98.5t132.5 35q72 0 125 -31t79 -78v100h92v-548h-92v102q-27 -48 -80.5 -79.5t-124.5 -31.5q-73 0 -132 36t-93 101t-34 148q0 84 34 147.5zM482 383q-25 46 -67.5 70.5t-93.5 24.5t-93 -24t-67 -70t-25 -108q0 -63 25 -109.5t67 -71t93 -24.5
t93.5 24.5t67.5 71t25 108.5t-25 108zM225.5 685q26.5 27 66.5 27q19 0 32.5 -6.5t32.5 -18.5q14 -10 25 -15.5t24 -5.5q17 0 29 11t15 32h52q-6 -50 -33 -77t-67 -27q-19 0 -33.5 6.5t-32.5 19.5q-16 10 -25.5 15t-22.5 5q-17 0 -28.5 -11t-14.5 -33h-53q7 51 33.5 78z" />
    <glyph glyph-name="adieresis" unicode="&#xe4;" horiz-adv-x="676" 
d="M77 423.5q34 63.5 93.5 98.5t132.5 35q72 0 125 -31t79 -78v100h92v-548h-92v102q-27 -48 -80.5 -79.5t-124.5 -31.5q-73 0 -132 36t-93 101t-34 148q0 84 34 147.5zM482 383q-25 46 -67.5 70.5t-93.5 24.5t-93 -24t-67 -70t-25 -108q0 -63 25 -109.5t67 -71t93 -24.5
t93.5 24.5t67.5 71t25 108.5t-25 108zM220.5 637q-15.5 15 -15.5 37t15.5 37.5t37.5 15.5q21 0 36.5 -15.5t15.5 -37.5t-15.5 -37t-36.5 -15q-22 0 -37.5 15zM383 637q-15 15 -15 37t15 37.5t37 15.5t37.5 -15.5t15.5 -37.5t-15.5 -37t-37.5 -15t-37 15z" />
    <glyph glyph-name="aring" unicode="&#xe5;" horiz-adv-x="676" 
d="M77 423.5q34 63.5 93.5 98.5t132.5 35q72 0 125 -31t79 -78v100h92v-548h-92v102q-27 -48 -80.5 -79.5t-124.5 -31.5q-73 0 -132 36t-93 101t-34 148q0 84 34 147.5zM482 383q-25 46 -67.5 70.5t-93.5 24.5t-93 -24t-67 -70t-25 -108q0 -63 25 -109.5t67 -71t93 -24.5
t93.5 24.5t67.5 71t25 108.5t-25 108zM415.5 635.5q-30.5 -28.5 -76.5 -28.5q-45 0 -76 29t-31 76t31 76t76 29q46 0 76.5 -28.5t30.5 -76.5t-30.5 -76.5zM377.5 753.5q-15.5 15.5 -38.5 15.5t-38.5 -15.5t-15.5 -40.5t15.5 -41t38.5 -16t38.5 16t15.5 41t-15.5 40.5z" />
    <glyph glyph-name="ae" unicode="&#xe6;" horiz-adv-x="1097" 
d="M1051 243h-451q5 -56 32 -95.5t67 -59.5t84 -20q64 0 106 27.5t56 73.5h98q-22 -79 -86 -128.5t-159 -49.5q-67 0 -123.5 31t-85.5 84v-106h-79v105q-30 -51 -84 -82.5t-123 -31.5q-73 0 -132.5 36t-93.5 101t-34 148q0 84 34.5 147.5t94.5 98.5t136 35q67 0 119.5 -28.5
t85.5 -81.5v101h76v-101q71 110 209 110q76 0 134.5 -34.5t90.5 -94t32 -131.5q0 -29 -4 -54zM937.5 400.5q-23.5 38.5 -64 59t-89.5 20.5q-72 0 -124.5 -46t-59.5 -125h361q0 53 -23.5 91.5zM414.5 95.5q42.5 24.5 67.5 71t25 108.5t-25 108t-67.5 70.5t-93.5 24.5t-93 -24
t-67 -70t-25 -108q0 -63 25 -109.5t67 -71t93 -24.5t93.5 24.5z" />
    <glyph glyph-name="ccedilla" unicode="&#xe7;" horiz-adv-x="607" 
d="M410 96q40 28 55 80h98q-20 -78 -78.5 -127.5t-146.5 -56.5v-50q59 1 94 -25t35 -74q0 -47 -34 -75t-88 -28h-115v59h97q33 0 48.5 10t15.5 34q0 23 -15.5 33t-48.5 10h-50v107q-69 7 -122 43.5t-82.5 98t-29.5 140.5q0 85 34 148.5t94.5 98.5t138.5 35q101 0 166.5 -49
t86.5 -136h-98q-14 50 -54.5 79t-100.5 29q-78 0 -126 -53.5t-48 -151.5q0 -99 48 -153t126 -54q60 0 100 28z" />
    <glyph glyph-name="egrave" unicode="&#xe8;" horiz-adv-x="620" 
d="M574 240h-438q5 -81 55.5 -126.5t122.5 -45.5q59 0 98.5 27.5t55.5 73.5h98q-22 -79 -88 -128.5t-164 -49.5q-78 0 -139.5 35t-96.5 99.5t-35 149.5t34 149t95.5 98.5t141.5 34.5q78 0 138 -34t92.5 -93.5t32.5 -134.5q0 -26 -3 -55zM460 403.5q-23 37.5 -62.5 57
t-87.5 19.5q-69 0 -117.5 -44t-55.5 -122h346q0 52 -23 89.5zM408 657v-68l-213 114v79z" />
    <glyph glyph-name="eacute" unicode="&#xe9;" horiz-adv-x="620" 
d="M574 240h-438q5 -81 55.5 -126.5t122.5 -45.5q59 0 98.5 27.5t55.5 73.5h98q-22 -79 -88 -128.5t-164 -49.5q-78 0 -139.5 35t-96.5 99.5t-35 149.5t34 149t95.5 98.5t141.5 34.5q78 0 138 -34t92.5 -93.5t32.5 -134.5q0 -26 -3 -55zM460 403.5q-23 37.5 -62.5 57
t-87.5 19.5q-69 0 -117.5 -44t-55.5 -122h346q0 52 -23 89.5zM408 703l-213 -114v68l213 125v-79z" />
    <glyph glyph-name="ecircumflex" unicode="&#xea;" horiz-adv-x="620" 
d="M574 240h-438q5 -81 55.5 -126.5t122.5 -45.5q59 0 98.5 27.5t55.5 73.5h98q-22 -79 -88 -128.5t-164 -49.5q-78 0 -139.5 35t-96.5 99.5t-35 149.5t34 149t95.5 98.5t141.5 34.5q78 0 138 -34t92.5 -93.5t32.5 -134.5q0 -26 -3 -55zM460 403.5q-23 37.5 -62.5 57
t-87.5 19.5q-69 0 -117.5 -44t-55.5 -122h346q0 52 -23 89.5zM311 682l-139 -85v72l139 83l138 -83v-72z" />
    <glyph glyph-name="edieresis" unicode="&#xeb;" horiz-adv-x="620" 
d="M574 240h-438q5 -81 55.5 -126.5t122.5 -45.5q59 0 98.5 27.5t55.5 73.5h98q-22 -79 -88 -128.5t-164 -49.5q-78 0 -139.5 35t-96.5 99.5t-35 149.5t34 149t95.5 98.5t141.5 34.5q78 0 138 -34t92.5 -93.5t32.5 -134.5q0 -26 -3 -55zM460 403.5q-23 37.5 -62.5 57
t-87.5 19.5q-69 0 -117.5 -44t-55.5 -122h346q0 52 -23 89.5zM191.5 637q-15.5 15 -15.5 37t15.5 37.5t37.5 15.5q21 0 36.5 -15.5t15.5 -37.5t-15.5 -37t-36.5 -15q-22 0 -37.5 15zM354 637q-15 15 -15 37t15 37.5t37 15.5t37.5 -15.5t15.5 -37.5t-15.5 -37t-37.5 -15
t-37 15z" />
    <glyph glyph-name="igrave" unicode="&#xec;" horiz-adv-x="246" 
d="M168 548v-548h-91v548h91zM220 657v-68l-213 114v79z" />
    <glyph glyph-name="iacute" unicode="&#xed;" horiz-adv-x="246" 
d="M168 548v-548h-91v548h91zM220 703l-213 -114v68l213 125v-79z" />
    <glyph glyph-name="icircumflex" unicode="&#xee;" horiz-adv-x="246" 
d="M168 548v-548h-91v548h91zM123 682l-139 -85v72l139 83l138 -83v-72z" />
    <glyph glyph-name="idieresis" unicode="&#xef;" horiz-adv-x="246" 
d="M168 548v-548h-91v548h91zM4.5 637q-15.5 15 -15.5 37t15.5 37.5t37.5 15.5q21 0 36.5 -15.5t15.5 -37.5t-15.5 -37t-36.5 -15q-22 0 -37.5 15zM167 637q-15 15 -15 37t15 37.5t37 15.5t37.5 -15.5t15.5 -37.5t-15.5 -37t-37.5 -15t-37 15z" />
    <glyph glyph-name="eth" unicode="&#xf0;" horiz-adv-x="638" 
d="M596 315q0 -105 -36 -177.5t-99.5 -109.5t-144.5 -37q-79 0 -141.5 35.5t-97 101t-34.5 150.5q0 83 35 146.5t96 98.5t137 35q119 0 181 -92q-32 95 -101 172l-130 -44v50l94 32q-32 31 -73 64h93q40 -35 46 -41l131 44v-51l-94 -32q138 -153 138 -345zM408.5 92
q42.5 24 68 71t25.5 112t-25 112t-67 70.5t-92 23.5t-91.5 -23.5t-66 -69t-24.5 -110.5q0 -66 24 -113.5t65 -72t91 -24.5t92.5 24z" />
    <glyph glyph-name="ntilde" unicode="&#xf1;" 
d="M506 497.5q62 -60.5 62 -174.5v-323h-90v310q0 82 -41 125.5t-112 43.5q-72 0 -114.5 -45t-42.5 -131v-303h-91v548h91v-78q27 42 73.5 65t102.5 23q100 0 162 -60.5zM208.5 685q26.5 27 66.5 27q19 0 32.5 -6.5t32.5 -18.5q14 -10 25 -15.5t24 -5.5q17 0 29 11t15 32h52
q-6 -50 -33 -77t-67 -27q-19 0 -33.5 6.5t-32.5 19.5q-16 10 -25.5 15t-22.5 5q-17 0 -28.5 -11t-14.5 -33h-53q7 51 33.5 78z" />
    <glyph glyph-name="ograve" unicode="&#xf2;" 
d="M176.5 26q-62.5 35 -98 99.5t-35.5 149.5q0 84 36.5 148.5t99.5 99t141 34.5t141 -34.5t99.5 -98.5t36.5 -149t-37.5 -149.5t-101.5 -99.5t-142 -35q-77 0 -139.5 35zM408 94q43 23 69.5 69t26.5 112t-26 112t-68 68.5t-91 22.5q-50 0 -91.5 -22.5t-66.5 -68.5t-25 -112
q0 -67 24.5 -113t65.5 -68.5t90 -22.5t92 23zM418 664v-68l-213 114v79z" />
    <glyph glyph-name="oacute" unicode="&#xf3;" 
d="M176.5 26q-62.5 35 -98 99.5t-35.5 149.5q0 84 36.5 148.5t99.5 99t141 34.5t141 -34.5t99.5 -98.5t36.5 -149t-37.5 -149.5t-101.5 -99.5t-142 -35q-77 0 -139.5 35zM408 94q43 23 69.5 69t26.5 112t-26 112t-68 68.5t-91 22.5q-50 0 -91.5 -22.5t-66.5 -68.5t-25 -112
q0 -67 24.5 -113t65.5 -68.5t90 -22.5t92 23zM418 710l-213 -114v68l213 125v-79z" />
    <glyph glyph-name="ocircumflex" unicode="&#xf4;" 
d="M176.5 26q-62.5 35 -98 99.5t-35.5 149.5q0 84 36.5 148.5t99.5 99t141 34.5t141 -34.5t99.5 -98.5t36.5 -149t-37.5 -149.5t-101.5 -99.5t-142 -35q-77 0 -139.5 35zM408 94q43 23 69.5 69t26.5 112t-26 112t-68 68.5t-91 22.5q-50 0 -91.5 -22.5t-66.5 -68.5t-25 -112
q0 -67 24.5 -113t65.5 -68.5t90 -22.5t92 23zM321 689l-139 -85v72l139 83l138 -83v-72z" />
    <glyph glyph-name="otilde" unicode="&#xf5;" 
d="M176.5 26q-62.5 35 -98 99.5t-35.5 149.5q0 84 36.5 148.5t99.5 99t141 34.5t141 -34.5t99.5 -98.5t36.5 -149t-37.5 -149.5t-101.5 -99.5t-142 -35q-77 0 -139.5 35zM408 94q43 23 69.5 69t26.5 112t-26 112t-68 68.5t-91 22.5q-50 0 -91.5 -22.5t-66.5 -68.5t-25 -112
q0 -67 24.5 -113t65.5 -68.5t90 -22.5t92 23zM207.5 692q26.5 27 66.5 27q19 0 32.5 -6.5t32.5 -18.5q14 -10 25 -15.5t24 -5.5q17 0 29 11t15 32h52q-6 -50 -33 -77t-67 -27q-19 0 -33.5 6.5t-32.5 19.5q-16 10 -25.5 15t-22.5 5q-17 0 -28.5 -11t-14.5 -33h-53
q7 51 33.5 78z" />
    <glyph glyph-name="odieresis" unicode="&#xf6;" 
d="M176.5 26q-62.5 35 -98 99.5t-35.5 149.5q0 84 36.5 148.5t99.5 99t141 34.5t141 -34.5t99.5 -98.5t36.5 -149t-37.5 -149.5t-101.5 -99.5t-142 -35q-77 0 -139.5 35zM408 94q43 23 69.5 69t26.5 112t-26 112t-68 68.5t-91 22.5q-50 0 -91.5 -22.5t-66.5 -68.5t-25 -112
q0 -67 24.5 -113t65.5 -68.5t90 -22.5t92 23zM202.5 644q-15.5 15 -15.5 37t15.5 37.5t37.5 15.5q21 0 36.5 -15.5t15.5 -37.5t-15.5 -37t-36.5 -15q-22 0 -37.5 15zM365 644q-15 15 -15 37t15 37.5t37 15.5t37.5 -15.5t15.5 -37.5t-15.5 -37t-37.5 -15t-37 15z" />
    <glyph glyph-name="divide" unicode="&#xf7;" horiz-adv-x="657" 
d="M291 538q-18 18 -18 44t18 44t44 18q25 0 42.5 -18t17.5 -44t-17.5 -44t-42.5 -18q-26 0 -44 18zM588 405v-77h-510v77h510zM291 109q-18 18 -18 44t18 44t44 18q25 0 42.5 -18t17.5 -44t-17.5 -44t-42.5 -18q-26 0 -44 18z" />
    <glyph glyph-name="oslash" unicode="&#xf8;" 
d="M530 468q32 -37 49.5 -86t17.5 -107q0 -85 -37.5 -149.5t-101.5 -99.5t-142 -35q-97 0 -171 55l-42 -46h-65l72 79q-32 38 -49.5 87.5t-17.5 108.5q0 84 36.5 148.5t99.5 99t141 34.5q101 0 175 -57l43 48h65zM171 145l266 292q-48 41 -118 41q-50 0 -91.5 -22.5
t-66.5 -68.5t-25 -112q0 -77 35 -130zM469 401l-266 -292q47 -38 113 -38q49 0 92 23t69.5 69t26.5 112q0 77 -35 126z" />
    <glyph glyph-name="ugrave" unicode="&#xf9;" 
d="M563 548v-548h-91v81q-26 -42 -72.5 -65.5t-102.5 -23.5q-64 0 -115 26.5t-80.5 79.5t-29.5 129v321h90v-309q0 -81 41 -124.5t112 -43.5q73 0 115 45t42 131v301h91zM418 657v-68l-213 114v79z" />
    <glyph glyph-name="uacute" unicode="&#xfa;" 
d="M563 548v-548h-91v81q-26 -42 -72.5 -65.5t-102.5 -23.5q-64 0 -115 26.5t-80.5 79.5t-29.5 129v321h90v-309q0 -81 41 -124.5t112 -43.5q73 0 115 45t42 131v301h91zM418 703l-213 -114v68l213 125v-79z" />
    <glyph glyph-name="ucircumflex" unicode="&#xfb;" 
d="M563 548v-548h-91v81q-26 -42 -72.5 -65.5t-102.5 -23.5q-64 0 -115 26.5t-80.5 79.5t-29.5 129v321h90v-309q0 -81 41 -124.5t112 -43.5q73 0 115 45t42 131v301h91zM321 682l-139 -85v72l139 83l138 -83v-72z" />
    <glyph glyph-name="udieresis" unicode="&#xfc;" 
d="M563 548v-548h-91v81q-26 -42 -72.5 -65.5t-102.5 -23.5q-64 0 -115 26.5t-80.5 79.5t-29.5 129v321h90v-309q0 -81 41 -124.5t112 -43.5q73 0 115 45t42 131v301h91zM202.5 637q-15.5 15 -15.5 37t15.5 37.5t37.5 15.5q21 0 36.5 -15.5t15.5 -37.5t-15.5 -37t-36.5 -15
q-22 0 -37.5 15zM365 637q-15 15 -15 37t15 37.5t37 15.5t37.5 -15.5t15.5 -37.5t-15.5 -37t-37.5 -15t-37 15z" />
    <glyph glyph-name="yacute" unicode="&#xfd;" horiz-adv-x="563" 
d="M549 548l-330 -806h-94l108 264l-221 542h101l172 -444l170 444h94zM379 703l-213 -114v68l213 125v-79z" />
    <glyph glyph-name="thorn" unicode="&#xfe;" horiz-adv-x="676" 
d="M247.5 522.5q53.5 34.5 125.5 34.5q73 0 132.5 -35t93.5 -98.5t34 -147.5q0 -83 -34 -148t-93.5 -101t-132.5 -36q-72 0 -125 35.5t-80 93.5v-380h-91v1000h91v-308q26 56 79.5 90.5zM515 384q-25 46 -67.5 70t-93.5 24q-50 0 -92.5 -24.5t-68 -71t-25.5 -107.5
q0 -62 25.5 -108.5t68 -71t92.5 -24.5q51 0 93.5 24.5t67.5 71t25 109.5q0 62 -25 108z" />
    <glyph glyph-name="ydieresis" unicode="&#xff;" horiz-adv-x="563" 
d="M549 548l-330 -806h-94l108 264l-221 542h101l172 -444l170 444h94zM163.5 637q-15.5 15 -15.5 37t15.5 37.5t37.5 15.5q21 0 36.5 -15.5t15.5 -37.5t-15.5 -37t-36.5 -15q-22 0 -37.5 15zM326 637q-15 15 -15 37t15 37.5t37 15.5t37.5 -15.5t15.5 -37.5t-15.5 -37
t-37.5 -15t-37 15z" />
    <glyph glyph-name="Amacron" unicode="&#x100;" horiz-adv-x="674" 
d="M489 155h-304l-56 -155h-96l252 693h105l251 -693h-96zM463 229l-126 352l-126 -352h252zM513 854v-68h-352v68h352z" />
    <glyph glyph-name="amacron" unicode="&#x101;" horiz-adv-x="676" 
d="M77 423.5q34 63.5 93.5 98.5t132.5 35q72 0 125 -31t79 -78v100h92v-548h-92v102q-27 -48 -80.5 -79.5t-124.5 -31.5q-73 0 -132 36t-93 101t-34 148q0 84 34 147.5zM482 383q-25 46 -67.5 70.5t-93.5 24.5t-93 -24t-67 -70t-25 -108q0 -63 25 -109.5t67 -71t93 -24.5
t93.5 24.5t67.5 71t25 108.5t-25 108zM515 709v-68h-352v68h352z" />
    <glyph glyph-name="Abreve" unicode="&#x102;" horiz-adv-x="674" 
d="M489 155h-304l-56 -155h-96l252 693h105l251 -693h-96zM463 229l-126 352l-126 -352h252zM442.5 783.5q-37.5 -36.5 -104.5 -36.5t-105 36.5t-38 94.5v17h54q0 -38 21 -57.5t68 -19.5q46 0 67 19.5t21 57.5h54v-18q0 -57 -37.5 -93.5z" />
    <glyph glyph-name="abreve" unicode="&#x103;" horiz-adv-x="676" 
d="M77 423.5q34 63.5 93.5 98.5t132.5 35q72 0 125 -31t79 -78v100h92v-548h-92v102q-27 -48 -80.5 -79.5t-124.5 -31.5q-73 0 -132 36t-93 101t-34 148q0 84 34 147.5zM482 383q-25 46 -67.5 70.5t-93.5 24.5t-93 -24t-67 -70t-25 -108q0 -63 25 -109.5t67 -71t93 -24.5
t93.5 24.5t67.5 71t25 108.5t-25 108zM443.5 638.5q-37.5 -36.5 -104.5 -36.5t-105 36.5t-38 94.5v17h54q0 -38 21 -57.5t68 -19.5q46 0 67 19.5t21 57.5h54v-18q0 -57 -37.5 -93.5z" />
    <glyph glyph-name="Aogonek" unicode="&#x104;" horiz-adv-x="674" 
d="M650 -132v-60q-38 -14 -76 -14q-51 0 -87 24.5t-36 75.5q0 34 21 63t69 55l-52 143h-304l-56 -155h-96l252 693h105l251 -693l-54 -27q-33 -16 -47 -33t-14 -37q0 -23 16 -35.5t43 -12.5q29 0 65 13zM463 229l-126 352l-126 -352h252z" />
    <glyph glyph-name="aogonek" unicode="&#x105;" horiz-adv-x="676" 
d="M608 -132v-60q-40 -14 -77 -14q-51 0 -86.5 24.5t-35.5 75.5q0 71 98 123v85q-27 -48 -80.5 -79.5t-124.5 -31.5q-73 0 -132 36t-93 101t-34 148q0 84 34 147.5t93.5 98.5t132.5 35q72 0 125 -31t79 -78v100h92v-548l-55 -27q-60 -29 -60 -70q0 -23 16 -35.5t43 -12.5
q28 0 65 13zM414.5 95.5q42.5 24.5 67.5 71t25 108.5t-25 108t-67.5 70.5t-93.5 24.5t-93 -24t-67 -70t-25 -108q0 -63 25 -109.5t67 -71t93 -24.5t93.5 24.5z" />
    <glyph glyph-name="Cacute" unicode="&#x106;" horiz-adv-x="772" 
d="M89 532.5q46 81.5 125.5 127.5t176.5 46q114 0 199 -55t124 -156h-109q-29 63 -83.5 97t-130.5 34q-73 0 -131 -34t-91 -96.5t-33 -146.5q0 -83 33 -145.5t91 -96.5t131 -34q76 0 130.5 33.5t83.5 96.5h109q-39 -100 -124 -154.5t-199 -54.5q-97 0 -176.5 45.5
t-125.5 126.5t-46 183t46 183.5zM494 854l-213 -114v68l213 125v-79z" />
    <glyph glyph-name="cacute" unicode="&#x107;" horiz-adv-x="607" 
d="M77 423.5q34 63.5 94.5 98.5t138.5 35q101 0 166.5 -49t86.5 -136h-98q-14 50 -54.5 79t-100.5 29q-78 0 -126 -53.5t-48 -151.5q0 -99 48 -153t126 -54q60 0 100 28t55 80h98q-22 -84 -88 -134.5t-165 -50.5q-78 0 -138.5 35t-94.5 99t-34 150q0 85 34 148.5zM402 703
l-213 -114v68l213 125v-79z" />
    <glyph glyph-name="Cdotaccent" unicode="&#x10a;" horiz-adv-x="772" 
d="M89 532.5q46 81.5 125.5 127.5t176.5 46q114 0 199 -55t124 -156h-109q-29 63 -83.5 97t-130.5 34q-73 0 -131 -34t-91 -96.5t-33 -146.5q0 -83 33 -145.5t91 -96.5t131 -34q76 0 130.5 33.5t83.5 96.5h109q-39 -100 -124 -154.5t-199 -54.5q-97 0 -176.5 45.5
t-125.5 126.5t-46 183t46 183.5zM359.5 782q-15.5 15 -15.5 37t15.5 37.5t37.5 15.5t37 -15.5t15 -37.5t-15 -37t-37 -15t-37.5 15z" />
    <glyph glyph-name="cdotaccent" unicode="&#x10b;" horiz-adv-x="607" 
d="M77 423.5q34 63.5 94.5 98.5t138.5 35q101 0 166.5 -49t86.5 -136h-98q-14 50 -54.5 79t-100.5 29q-78 0 -126 -53.5t-48 -151.5q0 -99 48 -153t126 -54q60 0 100 28t55 80h98q-22 -84 -88 -134.5t-165 -50.5q-78 0 -138.5 35t-94.5 99t-34 150q0 85 34 148.5zM266.5 632
q-15.5 15 -15.5 37t15.5 37.5t37.5 15.5t37 -15.5t15 -37.5t-15 -37t-37 -15t-37.5 15z" />
    <glyph glyph-name="Ccaron" unicode="&#x10c;" horiz-adv-x="772" 
d="M89 532.5q46 81.5 125.5 127.5t176.5 46q114 0 199 -55t124 -156h-109q-29 63 -83.5 97t-130.5 34q-73 0 -131 -34t-91 -96.5t-33 -146.5q0 -83 33 -145.5t91 -96.5t131 -34q76 0 130.5 33.5t83.5 96.5h109q-39 -100 -124 -154.5t-199 -54.5q-97 0 -176.5 45.5
t-125.5 126.5t-46 183t46 183.5zM535 830l-138 -82l-139 82v72l139 -85l138 85v-72z" />
    <glyph glyph-name="ccaron" unicode="&#x10d;" horiz-adv-x="607" 
d="M77 423.5q34 63.5 94.5 98.5t138.5 35q101 0 166.5 -49t86.5 -136h-98q-14 50 -54.5 79t-100.5 29q-78 0 -126 -53.5t-48 -151.5q0 -99 48 -153t126 -54q60 0 100 28t55 80h98q-22 -84 -88 -134.5t-165 -50.5q-78 0 -138.5 35t-94.5 99t-34 150q0 85 34 148.5zM442 679
l-138 -82l-139 82v72l139 -85l138 85v-72z" />
    <glyph glyph-name="Dcaron" unicode="&#x10e;" horiz-adv-x="707" 
d="M491.5 654.5q83.5 -42.5 128 -121.5t44.5 -186t-44.5 -185.5t-128 -120t-197.5 -41.5h-217v697h217q114 0 197.5 -42.5zM500 146.5q71 71.5 71 200.5q0 130 -71.5 203t-205.5 73h-126v-548h126q135 0 206 71.5zM490 824l-138 -82l-139 82v72l139 -85l138 85v-72z" />
    <glyph glyph-name="dcaron" unicode="&#x10f;" horiz-adv-x="754" 
d="M77 423.5q34 63.5 93.5 98.5t133.5 35q64 0 119 -29.5t84 -77.5v290h92v-740h-92v103q-27 -49 -80 -80.5t-124 -31.5q-73 0 -132.5 36t-93.5 101t-34 148q0 84 34 147.5zM754 648q0 -58 -25.5 -85.5t-76.5 -27.5v43q26 0 37 13t11 40v23h-49v86h92q11 -55 11 -92z
M482 383q-25 46 -67.5 70.5t-93.5 24.5t-93 -24t-67 -70t-25 -108q0 -63 25 -109.5t67 -71t93 -24.5t93.5 24.5t67.5 71t25 108.5t-25 108z" />
    <glyph glyph-name="Dcroat" unicode="&#x110;" horiz-adv-x="725" 
d="M509.5 654.5q83.5 -42.5 128 -121.5t44.5 -186t-44.5 -185.5t-128 -120t-196.5 -41.5h-217v305h-87v84h87v308h217q113 0 196.5 -42.5zM518 143.5q71 73.5 71 203.5t-71 203t-205 73h-126v-234h192v-84h-192v-235h126q134 0 205 73.5z" />
    <glyph glyph-name="dcroat" unicode="&#x111;" horiz-adv-x="675" 
d="M660 605h-61v-605h-92v103q-27 -49 -80 -80.5t-124 -31.5q-73 0 -132.5 36t-93.5 101t-34 148q0 84 34 147.5t93.5 98.5t133.5 35q64 0 119 -29.5t84 -77.5v155h-112v54h112v81h92v-81h61v-54zM414.5 95.5q42.5 24.5 67.5 71t25 108.5t-25 108t-67.5 70.5t-93.5 24.5
t-93 -24t-67 -70t-25 -108q0 -63 25 -109.5t67 -71t93 -24.5t93.5 24.5z" />
    <glyph glyph-name="Emacron" unicode="&#x112;" horiz-adv-x="513" 
d="M168 623v-233h254v-75h-254v-240h284v-75h-375v698h375v-75h-284zM430 854v-68h-352v68h352z" />
    <glyph glyph-name="emacron" unicode="&#x113;" horiz-adv-x="620" 
d="M574 240h-438q5 -81 55.5 -126.5t122.5 -45.5q59 0 98.5 27.5t55.5 73.5h98q-22 -79 -88 -128.5t-164 -49.5q-78 0 -139.5 35t-96.5 99.5t-35 149.5t34 149t95.5 98.5t141.5 34.5q78 0 138 -34t92.5 -93.5t32.5 -134.5q0 -26 -3 -55zM460 403.5q-23 37.5 -62.5 57
t-87.5 19.5q-69 0 -117.5 -44t-55.5 -122h346q0 52 -23 89.5zM486 709v-68h-352v68h352z" />
    <glyph glyph-name="Ebreve" unicode="&#x114;" horiz-adv-x="513" 
d="M168 623v-233h254v-75h-254v-240h284v-75h-375v698h375v-75h-284zM359.5 783.5q-37.5 -36.5 -104.5 -36.5t-105 36.5t-38 94.5v17h54q0 -38 21 -57.5t68 -19.5q46 0 67 19.5t21 57.5h54v-18q0 -57 -37.5 -93.5z" />
    <glyph glyph-name="ebreve" unicode="&#x115;" horiz-adv-x="620" 
d="M574 240h-438q5 -81 55.5 -126.5t122.5 -45.5q59 0 98.5 27.5t55.5 73.5h98q-22 -79 -88 -128.5t-164 -49.5q-78 0 -139.5 35t-96.5 99.5t-35 149.5t34 149t95.5 98.5t141.5 34.5q78 0 138 -34t92.5 -93.5t32.5 -134.5q0 -26 -3 -55zM460 403.5q-23 37.5 -62.5 57
t-87.5 19.5q-69 0 -117.5 -44t-55.5 -122h346q0 52 -23 89.5zM415.5 638.5q-37.5 -36.5 -104.5 -36.5t-105 36.5t-38 94.5v17h54q0 -38 21 -57.5t68 -19.5q46 0 67 19.5t21 57.5h54v-18q0 -57 -37.5 -93.5z" />
    <glyph glyph-name="Edotaccent" unicode="&#x116;" horiz-adv-x="513" 
d="M168 623v-233h254v-75h-254v-240h284v-75h-375v698h375v-75h-284zM217.5 776q-15.5 15 -15.5 37t15.5 37.5t37.5 15.5t37 -15.5t15 -37.5t-15 -37t-37 -15t-37.5 15z" />
    <glyph glyph-name="edotaccent" unicode="&#x117;" horiz-adv-x="620" 
d="M574 240h-438q5 -81 55.5 -126.5t122.5 -45.5q59 0 98.5 27.5t55.5 73.5h98q-22 -79 -88 -128.5t-164 -49.5q-78 0 -139.5 35t-96.5 99.5t-35 149.5t34 149t95.5 98.5t141.5 34.5q78 0 138 -34t92.5 -93.5t32.5 -134.5q0 -26 -3 -55zM460 403.5q-23 37.5 -62.5 57
t-87.5 19.5q-69 0 -117.5 -44t-55.5 -122h346q0 52 -23 89.5zM273.5 632q-15.5 15 -15.5 37t15.5 37.5t37.5 15.5t37 -15.5t15 -37.5t-15 -37t-37 -15t-37.5 15z" />
    <glyph glyph-name="Eogonek" unicode="&#x118;" horiz-adv-x="513" 
d="M461 -132v-60q-40 -14 -77 -14q-51 0 -86.5 24.5t-35.5 75.5q0 60 69 106h-254v698h375v-75h-284v-233h254v-75h-254v-240h284v-75l-55 -27q-60 -29 -60 -70q0 -23 16 -35.5t43 -12.5q28 0 65 13z" />
    <glyph glyph-name="eogonek" unicode="&#x119;" horiz-adv-x="620" 
d="M574 240h-438q5 -81 55.5 -126.5t122.5 -45.5q59 0 98.5 27.5t55.5 73.5h98q-17 -61 -61.5 -105.5t-111.5 -62.5l-28 -14q-60 -29 -60 -70q0 -23 16 -35.5t43 -12.5q28 0 65 13v-60q-40 -14 -77 -14q-51 0 -86.5 24.5t-35.5 75.5q0 49 43 86q-68 9 -120 45.5t-81 97
t-29 138.5q0 85 34 149t95.5 98.5t141.5 34.5q78 0 138 -34t92.5 -93.5t32.5 -134.5q0 -26 -3 -55zM460 403.5q-23 37.5 -62.5 57t-87.5 19.5q-69 0 -117.5 -44t-55.5 -122h346q0 52 -23 89.5z" />
    <glyph glyph-name="Ecaron" unicode="&#x11a;" horiz-adv-x="513" 
d="M168 623v-233h254v-75h-254v-240h284v-75h-375v698h375v-75h-284zM393 824l-138 -82l-139 82v72l139 -85l138 85v-72z" />
    <glyph glyph-name="ecaron" unicode="&#x11b;" horiz-adv-x="620" 
d="M574 240h-438q5 -81 55.5 -126.5t122.5 -45.5q59 0 98.5 27.5t55.5 73.5h98q-22 -79 -88 -128.5t-164 -49.5q-78 0 -139.5 35t-96.5 99.5t-35 149.5t34 149t95.5 98.5t141.5 34.5q78 0 138 -34t92.5 -93.5t32.5 -134.5q0 -26 -3 -55zM460 403.5q-23 37.5 -62.5 57
t-87.5 19.5q-69 0 -117.5 -44t-55.5 -122h346q0 52 -23 89.5zM449 679l-138 -82l-139 82v72l139 -85l138 85v-72z" />
    <glyph glyph-name="Gbreve" unicode="&#x11e;" horiz-adv-x="778" 
d="M605 495q-29 61 -84 94.5t-128 33.5t-131.5 -33.5t-92 -96t-33.5 -144.5t33.5 -144t92 -95.5t131.5 -33.5q102 0 168 61t77 165h-278v74h375v-70q-8 -86 -54 -157.5t-121 -113t-167 -41.5q-97 0 -177 45.5t-126.5 126.5t-46.5 183t46.5 183.5t126.5 127t177 45.5
q111 0 196.5 -55t124.5 -155h-109zM497.5 783.5q-37.5 -36.5 -104.5 -36.5t-105 36.5t-38 94.5v17h54q0 -38 21 -57.5t68 -19.5q46 0 67 19.5t21 57.5h54v-18q0 -57 -37.5 -93.5z" />
    <glyph glyph-name="gbreve" unicode="&#x11f;" horiz-adv-x="676" 
d="M427.5 526q53.5 -31 79.5 -78v100h92v-560q0 -75 -32 -133.5t-91.5 -91.5t-138.5 -33q-108 0 -180 51t-85 139h90q15 -50 62 -80.5t113 -30.5q75 0 122.5 47t47.5 132v115q-27 -48 -80 -80t-124 -32q-73 0 -132.5 36t-93.5 101t-34 148q0 84 34 147.5t93.5 98.5t132.5 35
q71 0 124.5 -31zM482 383q-25 46 -67.5 70.5t-93.5 24.5t-93 -24t-67 -70t-25 -108q0 -63 25 -109.5t67 -71t93 -24.5t93.5 24.5t67.5 71t25 108.5t-25 108zM443.5 638.5q-37.5 -36.5 -104.5 -36.5t-105 36.5t-38 94.5v17h54q0 -38 21 -57.5t68 -19.5q46 0 67 19.5t21 57.5
h54v-18q0 -57 -37.5 -93.5z" />
    <glyph glyph-name="Gdotaccent" unicode="&#x120;" horiz-adv-x="778" 
d="M605 495q-29 61 -84 94.5t-128 33.5t-131.5 -33.5t-92 -96t-33.5 -144.5t33.5 -144t92 -95.5t131.5 -33.5q102 0 168 61t77 165h-278v74h375v-70q-8 -86 -54 -157.5t-121 -113t-167 -41.5q-97 0 -177 45.5t-126.5 126.5t-46.5 183t46.5 183.5t126.5 127t177 45.5
q111 0 196.5 -55t124.5 -155h-109zM354.5 776q-15.5 15 -15.5 37t15.5 37.5t37.5 15.5t37 -15.5t15 -37.5t-15 -37t-37 -15t-37.5 15z" />
    <glyph glyph-name="gdotaccent" unicode="&#x121;" horiz-adv-x="676" 
d="M427.5 526q53.5 -31 79.5 -78v100h92v-560q0 -75 -32 -133.5t-91.5 -91.5t-138.5 -33q-108 0 -180 51t-85 139h90q15 -50 62 -80.5t113 -30.5q75 0 122.5 47t47.5 132v115q-27 -48 -80 -80t-124 -32q-73 0 -132.5 36t-93.5 101t-34 148q0 84 34 147.5t93.5 98.5t132.5 35
q71 0 124.5 -31zM482 383q-25 46 -67.5 70.5t-93.5 24.5t-93 -24t-67 -70t-25 -108q0 -63 25 -109.5t67 -71t93 -24.5t93.5 24.5t67.5 71t25 108.5t-25 108zM301.5 632q-15.5 15 -15.5 37t15.5 37.5t37.5 15.5t37 -15.5t15 -37.5t-15 -37t-37 -15t-37.5 15z" />
    <glyph glyph-name="uni0122" unicode="&#x122;" horiz-adv-x="778" 
d="M605 495q-29 61 -84 94.5t-128 33.5t-131.5 -33.5t-92 -96t-33.5 -144.5t33.5 -144t92 -95.5t131.5 -33.5q102 0 168 61t77 165h-278v74h375v-70q-8 -86 -54 -157.5t-121 -113t-167 -41.5q-97 0 -177 45.5t-126.5 126.5t-46.5 183t46.5 183.5t126.5 127t177 45.5
q111 0 196.5 -55t124.5 -155h-109zM444 -132q0 -115 -101 -115v42q48 0 48 56v18h-48v82h90q11 -47 11 -83z" />
    <glyph glyph-name="uni0123" unicode="&#x123;" horiz-adv-x="676" 
d="M280 688q0 113 101 113v-42q-47 0 -47 -54v-23h48v-86h-91q-11 48 -11 92zM427.5 526q53.5 -31 79.5 -78v100h92v-560q0 -75 -32 -133.5t-91.5 -91.5t-138.5 -33q-108 0 -180 51t-85 139h90q15 -50 62 -80.5t113 -30.5q75 0 122.5 47t47.5 132v115q-27 -48 -80 -80
t-124 -32q-73 0 -132.5 36t-93.5 101t-34 148q0 84 34 147.5t93.5 98.5t132.5 35q71 0 124.5 -31zM482 383q-25 46 -67.5 70.5t-93.5 24.5t-93 -24t-67 -70t-25 -108q0 -63 25 -109.5t67 -71t93 -24.5t93.5 24.5t67.5 71t25 108.5t-25 108z" />
    <glyph glyph-name="Itilde" unicode="&#x128;" horiz-adv-x="246" 
d="M168 697v-697h-91v697h91zM9.5 830q26.5 27 66.5 27q19 0 32.5 -6.5t32.5 -18.5q14 -10 25 -15.5t24 -5.5q17 0 29 11t15 32h52q-6 -50 -33 -77t-67 -27q-19 0 -33.5 6.5t-32.5 19.5q-16 10 -25.5 15t-22.5 5q-17 0 -28.5 -11t-14.5 -33h-53q7 51 33.5 78z" />
    <glyph glyph-name="itilde" unicode="&#x129;" horiz-adv-x="246" 
d="M168 548v-548h-91v548h91zM9.5 685q26.5 27 66.5 27q19 0 32.5 -6.5t32.5 -18.5q14 -10 25 -15.5t24 -5.5q17 0 29 11t15 32h52q-6 -50 -33 -77t-67 -27q-19 0 -33.5 6.5t-32.5 19.5q-16 10 -25.5 15t-22.5 5q-17 0 -28.5 -11t-14.5 -33h-53q7 51 33.5 78z" />
    <glyph glyph-name="Imacron" unicode="&#x12a;" horiz-adv-x="246" 
d="M168 697v-697h-91v697h91zM298 854v-68h-352v68h352z" />
    <glyph glyph-name="imacron" unicode="&#x12b;" horiz-adv-x="246" 
d="M168 548v-548h-91v548h91zM298 709v-68h-352v68h352z" />
    <glyph glyph-name="Ibreve" unicode="&#x12c;" horiz-adv-x="246" 
d="M168 697v-697h-91v697h91zM227.5 783.5q-37.5 -36.5 -104.5 -36.5t-105 36.5t-38 94.5v17h54q0 -38 21 -57.5t68 -19.5q46 0 67 19.5t21 57.5h54v-18q0 -57 -37.5 -93.5z" />
    <glyph glyph-name="ibreve" unicode="&#x12d;" horiz-adv-x="246" 
d="M168 548v-548h-91v548h91zM227.5 638.5q-37.5 -36.5 -104.5 -36.5t-105 36.5t-38 94.5v17h54q0 -38 21 -57.5t68 -19.5q46 0 67 19.5t21 57.5h54v-18q0 -57 -37.5 -93.5z" />
    <glyph glyph-name="Iogonek" unicode="&#x12e;" horiz-adv-x="246" 
d="M177 -131v-60q-40 -14 -77 -14q-51 0 -86.5 24.5t-35.5 75.5q0 72 99 123v679h91v-697h-2l-53 -26q-60 -29 -60 -70q0 -23 16 -35.5t43 -12.5q28 0 65 13z" />
    <glyph glyph-name="iogonek" unicode="&#x12f;" horiz-adv-x="246" 
d="M80 655q-18 18 -18 44t18 44t44 18q25 0 42.5 -18t17.5 -44t-17.5 -44t-42.5 -18q-26 0 -44 18zM69 -131.5q16 -12.5 43 -12.5q28 0 65 13v-60q-40 -14 -77 -14q-51 0 -86.5 24.5t-35.5 75.5q0 72 99 123v530h91v-548h-2l-53 -26q-60 -29 -60 -70q0 -23 16 -35.5z" />
    <glyph glyph-name="Idotaccent" unicode="&#x130;" horiz-adv-x="246" 
d="M168 697v-697h-91v697h91zM85.5 776q-15.5 15 -15.5 37t15.5 37.5t37.5 15.5t37 -15.5t15 -37.5t-15 -37t-37 -15t-37.5 15z" />
    <glyph glyph-name="dotlessi" unicode="&#x131;" horiz-adv-x="246" 
d="M168 548v-548h-91v548h91z" />
    <glyph glyph-name="uni0136" unicode="&#x136;" horiz-adv-x="599" 
d="M574 0h-119l-287 318v-318h-91v697h91v-323l288 323h115l-316 -349zM341 -49q11 -41 11 -83q0 -115 -100 -115v42q47 0 47 56v18h-48v82h90z" />
    <glyph glyph-name="uni0137" unicode="&#x137;" horiz-adv-x="515" 
d="M507 0h-124l-215 242v-242h-91v740h91v-435l211 243h127l-258 -273zM302 -49q10 -43 10 -83q0 -115 -100 -115v42q47 0 47 56v18h-47v82h90z" />
    <glyph glyph-name="Lacute" unicode="&#x139;" horiz-adv-x="432" 
d="M168 74h244v-74h-335v697h91v-623zM314 848l-213 -114v68l213 125v-79z" />
    <glyph glyph-name="lacute" unicode="&#x13a;" horiz-adv-x="246" 
d="M168 740v-740h-91v740h91zM220 895l-213 -114v68l213 125v-79z" />
    <glyph glyph-name="uni013B" unicode="&#x13b;" horiz-adv-x="432" 
d="M168 74h244v-74h-335v697h91v-623zM298 -132q0 -115 -101 -115v42q47 0 47 56v18h-48v82h91q11 -41 11 -83z" />
    <glyph glyph-name="uni013C" unicode="&#x13c;" horiz-adv-x="246" 
d="M168 740v-740h-91v740h91zM177 -132q0 -115 -102 -115v42q48 0 48 56v18h-48v82h91q11 -47 11 -83z" />
    <glyph glyph-name="Lcaron" unicode="&#x13d;" horiz-adv-x="446" 
d="M168 74h244v-74h-335v697h91v-623zM384 606q0 -58 -25.5 -86t-75.5 -28v43q25 0 36 13t11 41v23h-49v85h92q11 -48 11 -91z" />
    <glyph glyph-name="lcaron" unicode="&#x13e;" horiz-adv-x="369" 
d="M168 740v-740h-91v740h91zM344 648q0 -113 -101 -113v43q25 0 36.5 13t11.5 40v23h-50v86h92q11 -48 11 -92z" />
    <glyph glyph-name="Ldot" unicode="&#x13f;" horiz-adv-x="432" 
d="M77 697h91v-623h244v-74h-335v697zM307.5 338.5q-15.5 15.5 -15.5 37.5t15.5 37t37.5 15t37 -15t15 -37t-15 -37.5t-37 -15.5t-37.5 15.5z" />
    <glyph glyph-name="ldot" unicode="&#x140;" horiz-adv-x="295" 
d="M77 740h91v-740h-91v740zM233.5 329.5q-15.5 15.5 -15.5 37.5t15.5 37t37.5 15q21 0 36.5 -15t15.5 -37t-15.5 -37.5t-36.5 -15.5q-22 0 -37.5 15.5z" />
    <glyph glyph-name="Lslash" unicode="&#x141;" horiz-adv-x="437" 
d="M425 70v-70h-334v308l-82 -29v69l82 30v319h91v-286l109 39v-70l-109 -39v-271h243z" />
    <glyph glyph-name="lslash" unicode="&#x142;" horiz-adv-x="251" 
d="M242 400l-71 -28v-372h-91v337l-71 -28v72l71 27v332h91v-296l71 27v-71z" />
    <glyph glyph-name="Nacute" unicode="&#x143;" horiz-adv-x="703" 
d="M625 0h-91l-366 555v-555h-91v698h91l366 -554v554h91v-698zM449 848l-213 -114v68l213 125v-79z" />
    <glyph glyph-name="nacute" unicode="&#x144;" 
d="M506 497.5q62 -60.5 62 -174.5v-323h-90v310q0 82 -41 125.5t-112 43.5q-72 0 -114.5 -45t-42.5 -131v-303h-91v548h91v-78q27 42 73.5 65t102.5 23q100 0 162 -60.5zM419 703l-213 -114v68l213 125v-79z" />
    <glyph glyph-name="uni0145" unicode="&#x145;" horiz-adv-x="703" 
d="M625 0h-91l-366 555v-555h-91v698h91l366 -554v554h91v-698zM405 -132q0 -115 -100 -115v42q46 0 46 56v18h-47v82h90q11 -41 11 -83z" />
    <glyph glyph-name="uni0146" unicode="&#x146;" 
d="M506 497.5q62 -60.5 62 -174.5v-323h-90v310q0 82 -41 125.5t-112 43.5q-72 0 -114.5 -45t-42.5 -131v-303h-91v548h91v-78q27 42 73.5 65t102.5 23q100 0 162 -60.5zM364 -49q12 -45 12 -83q0 -115 -101 -115v42q47 0 47 56v18h-48v82h90z" />
    <glyph glyph-name="Ncaron" unicode="&#x147;" horiz-adv-x="703" 
d="M625 0h-91l-366 555v-555h-91v698h91l366 -554v554h91v-698zM490 824l-138 -82l-139 82v72l139 -85l138 85v-72z" />
    <glyph glyph-name="ncaron" unicode="&#x148;" 
d="M506 497.5q62 -60.5 62 -174.5v-323h-90v310q0 82 -41 125.5t-112 43.5q-72 0 -114.5 -45t-42.5 -131v-303h-91v548h91v-78q27 42 73.5 65t102.5 23q100 0 162 -60.5zM460 679l-138 -82l-139 82v72l139 -85l138 85v-72z" />
    <glyph glyph-name="Omacron" unicode="&#x14c;" horiz-adv-x="786" 
d="M216 38.5q-80 45.5 -126.5 127t-46.5 183.5t46.5 183.5t126.5 127t177 45.5q98 0 178 -45.5t126 -126.5t46 -184t-46 -184t-126 -126.5t-178 -45.5q-97 0 -177 45.5zM524.5 106q58.5 34 92 97t33.5 146q0 84 -33.5 146.5t-91.5 96.5t-132 34t-132 -34t-91.5 -96.5
t-33.5 -146.5q0 -83 33.5 -146t92 -97t131.5 -34t131.5 34zM571 854v-68h-352v68h352z" />
    <glyph glyph-name="omacron" unicode="&#x14d;" 
d="M176.5 26q-62.5 35 -98 99.5t-35.5 149.5q0 84 36.5 148.5t99.5 99t141 34.5t141 -34.5t99.5 -98.5t36.5 -149t-37.5 -149.5t-101.5 -99.5t-142 -35q-77 0 -139.5 35zM408 94q43 23 69.5 69t26.5 112t-26 112t-68 68.5t-91 22.5q-50 0 -91.5 -22.5t-66.5 -68.5t-25 -112
q0 -67 24.5 -113t65.5 -68.5t90 -22.5t92 23zM496 716v-68h-352v68h352z" />
    <glyph glyph-name="Obreve" unicode="&#x14e;" horiz-adv-x="786" 
d="M216 38.5q-80 45.5 -126.5 127t-46.5 183.5t46.5 183.5t126.5 127t177 45.5q98 0 178 -45.5t126 -126.5t46 -184t-46 -184t-126 -126.5t-178 -45.5q-97 0 -177 45.5zM524.5 106q58.5 34 92 97t33.5 146q0 84 -33.5 146.5t-91.5 96.5t-132 34t-132 -34t-91.5 -96.5
t-33.5 -146.5q0 -83 33.5 -146t92 -97t131.5 -34t131.5 34zM500.5 783.5q-37.5 -36.5 -104.5 -36.5t-105 36.5t-38 94.5v17h54q0 -38 21 -57.5t68 -19.5q46 0 67 19.5t21 57.5h54v-18q0 -57 -37.5 -93.5z" />
    <glyph glyph-name="obreve" unicode="&#x14f;" 
d="M176.5 26q-62.5 35 -98 99.5t-35.5 149.5q0 84 36.5 148.5t99.5 99t141 34.5t141 -34.5t99.5 -98.5t36.5 -149t-37.5 -149.5t-101.5 -99.5t-142 -35q-77 0 -139.5 35zM408 94q43 23 69.5 69t26.5 112t-26 112t-68 68.5t-91 22.5q-50 0 -91.5 -22.5t-66.5 -68.5t-25 -112
q0 -67 24.5 -113t65.5 -68.5t90 -22.5t92 23zM425.5 645.5q-37.5 -36.5 -104.5 -36.5t-105 36.5t-38 94.5v17h54q0 -38 21 -57.5t68 -19.5q46 0 67 19.5t21 57.5h54v-18q0 -57 -37.5 -93.5z" />
    <glyph glyph-name="Ohungarumlaut" unicode="&#x150;" horiz-adv-x="786" 
d="M216 38.5q-80 45.5 -126.5 127t-46.5 183.5t46.5 183.5t126.5 127t177 45.5q98 0 178 -45.5t126 -126.5t46 -184t-46 -184t-126 -126.5t-178 -45.5q-97 0 -177 45.5zM524.5 106q58.5 34 92 97t33.5 146q0 84 -33.5 146.5t-91.5 96.5t-132 34t-132 -34t-91.5 -96.5
t-33.5 -146.5q0 -83 33.5 -146t92 -97t131.5 -34t131.5 34zM342 746h-61l67 154h81zM490 746h-60l72 154h80z" />
    <glyph glyph-name="ohungarumlaut" unicode="&#x151;" 
d="M176.5 26q-62.5 35 -98 99.5t-35.5 149.5q0 84 36.5 148.5t99.5 99t141 34.5t141 -34.5t99.5 -98.5t36.5 -149t-37.5 -149.5t-101.5 -99.5t-142 -35q-77 0 -139.5 35zM408 94q43 23 69.5 69t26.5 112t-26 112t-68 68.5t-91 22.5q-50 0 -91.5 -22.5t-66.5 -68.5t-25 -112
q0 -67 24.5 -113t65.5 -68.5t90 -22.5t92 23zM267 608h-61l67 154h81zM415 608h-60l72 154h80z" />
    <glyph glyph-name="OE" unicode="&#x152;" horiz-adv-x="1086" 
d="M741 387h253v-71h-253v-244h283v-72h-374v143q-39 -72 -107.5 -111t-156.5 -39q-94 0 -172.5 45.5t-124.5 127t-46 183.5q0 103 46 184t124.5 126.5t171.5 45.5q88 0 157 -38t108 -109v139h374v-71h-283v-239zM169.5 205q33.5 -62 92 -96t131.5 -34t131.5 34t92 96
t33.5 144t-33.5 144.5t-92 96t-131.5 33.5t-131.5 -33.5t-92 -96t-33.5 -144.5t33.5 -144z" />
    <glyph glyph-name="oe" unicode="&#x153;" horiz-adv-x="1080" 
d="M1033 243h-436q4 -82 52 -128.5t121 -46.5q60 0 99.5 27.5t55.5 73.5h98q-22 -79 -88 -128.5t-165 -49.5q-74 0 -132.5 35.5t-89.5 99.5q-34 -64 -95.5 -99.5t-136.5 -35.5q-78 0 -140 35t-97.5 99.5t-35.5 149.5q0 84 36.5 148.5t99.5 99t141 34.5q74 0 134.5 -35
t93.5 -98q32 63 91 98t135 35q78 0 137.5 -34t92.5 -93t33 -133q0 -29 -4 -54zM408 91.5q43 23.5 69 70.5t26 113t-25.5 112.5t-68 69.5t-91.5 23t-90.5 -23t-66.5 -69.5t-25 -112.5q0 -67 24.5 -113.5t65.5 -70t90 -23.5t92 23.5zM920 399.5q-23 39.5 -62.5 60t-87.5 20.5
q-71 0 -119.5 -46t-53.5 -128h346q0 54 -23 93.5z" />
    <glyph glyph-name="Racute" unicode="&#x154;" horiz-adv-x="608" 
d="M444 0l-166 285h-110v-285h-91v697h225q79 0 133.5 -27t81.5 -73t27 -105q0 -72 -41.5 -127t-124.5 -73l175 -292h-109zM168 358h134q74 0 111 36.5t37 97.5q0 62 -36.5 96t-111.5 34h-134v-264zM408 848l-213 -114v68l213 125v-79z" />
    <glyph glyph-name="racute" unicode="&#x155;" horiz-adv-x="373" 
d="M236.5 532q44.5 26 108.5 26v-94h-24q-153 0 -153 -166v-298h-91v548h91v-89q24 47 68.5 73zM328 703l-213 -114v68l213 125v-79z" />
    <glyph glyph-name="uni0156" unicode="&#x156;" horiz-adv-x="608" 
d="M553 0h-109l-166 285h-110v-285h-91v697h225q79 0 133.5 -27t81.5 -73t27 -105q0 -72 -41.5 -127t-124.5 -73zM168 358h134q74 0 111 36.5t37 97.5q0 62 -36.5 96t-111.5 34h-134v-264zM346 -49q10 -43 10 -83q0 -115 -100 -115v42q47 0 47 56v18h-47v82h90z" />
    <glyph glyph-name="uni0157" unicode="&#x157;" horiz-adv-x="373" 
d="M236.5 532q44.5 26 108.5 26v-94h-24q-153 0 -153 -166v-298h-91v548h91v-89q24 47 68.5 73zM165 -49q11 -41 11 -83q0 -115 -101 -115v42q47 0 47 56v18h-47v82h90z" />
    <glyph glyph-name="Rcaron" unicode="&#x158;" horiz-adv-x="608" 
d="M444 0l-166 285h-110v-285h-91v697h225q79 0 133.5 -27t81.5 -73t27 -105q0 -72 -41.5 -127t-124.5 -73l175 -292h-109zM168 358h134q74 0 111 36.5t37 97.5q0 62 -36.5 96t-111.5 34h-134v-264zM449 824l-138 -82l-139 82v72l139 -85l138 85v-72z" />
    <glyph glyph-name="rcaron" unicode="&#x159;" horiz-adv-x="373" 
d="M236.5 532q44.5 26 108.5 26v-94h-24q-153 0 -153 -166v-298h-91v548h91v-89q24 47 68.5 73zM369 679l-138 -82l-139 82v72l139 -85l138 85v-72z" />
    <glyph glyph-name="Sacute" unicode="&#x15a;" horiz-adv-x="587" 
d="M174.5 17.5q-54.5 24.5 -85.5 68t-32 100.5h97q5 -49 40.5 -82.5t103.5 -33.5q65 0 102.5 32.5t37.5 83.5q0 40 -22 65t-55 38t-89 28q-69 18 -110.5 36t-71 56.5t-29.5 103.5q0 57 29 101t81.5 68t120.5 24q98 0 160.5 -49t70.5 -130h-100q-5 40 -42 70.5t-98 30.5
q-57 0 -93 -29.5t-36 -82.5q0 -38 21.5 -62t53 -36.5t88.5 -28.5q69 -19 111 -37.5t72 -57t30 -104.5q0 -51 -27 -96t-80 -73t-125 -28q-69 0 -123.5 24.5zM389 854l-213 -114v68l213 125v-79z" />
    <glyph glyph-name="sacute" unicode="&#x15b;" horiz-adv-x="522" 
d="M158 12.5q-50 21.5 -79 60t-32 88.5h94q4 -41 38.5 -67t90.5 -26q52 0 82 23t30 58q0 36 -32 53.5t-99 34.5q-61 16 -99.5 32.5t-66 49t-27.5 85.5q0 42 25 77t71 55.5t105 20.5q91 0 147 -46t60 -126h-91q-3 43 -34.5 69t-84.5 26q-49 0 -78 -21t-29 -55
q0 -27 17.5 -44.5t44 -28t73.5 -23.5q59 -16 96 -31.5t63.5 -46.5t27.5 -81q0 -45 -25 -81t-70.5 -56.5t-104.5 -20.5q-63 0 -113 21.5zM358 710l-213 -114v68l213 125v-79z" />
    <glyph glyph-name="Scedilla" unicode="&#x15e;" horiz-adv-x="587" 
d="M506.5 100.5q-23.5 -42.5 -69 -71.5t-108.5 -35v-57q59 1 94 -25t35 -74q0 -47 -34 -75t-88 -28h-115v59h97q33 0 48.5 10t15.5 34q0 23 -15.5 33t-48.5 10h-50v113q-94 8 -152 60t-59 132h97q5 -49 40.5 -82.5t103.5 -33.5q65 0 102.5 32.5t37.5 83.5q0 40 -22 65
t-55 38t-89 28q-69 18 -110.5 36t-71 56.5t-29.5 103.5q0 57 29 101t81.5 68t120.5 24q98 0 160.5 -49t70.5 -130h-100q-5 40 -42 70.5t-98 30.5q-57 0 -93 -29.5t-36 -82.5q0 -38 21.5 -62t53 -36.5t88.5 -28.5q69 -19 111 -37.5t72 -57t30 -104.5q0 -47 -23.5 -89.5z" />
    <glyph glyph-name="scedilla" unicode="&#x15f;" horiz-adv-x="522" 
d="M423 41.5q-48 -43.5 -128 -49.5v-50q59 1 94 -25t35 -74q0 -47 -34 -75t-88 -28h-115v59h97q33 0 48.5 10t15.5 34q0 23 -15.5 33t-48.5 10h-50v107q-81 9 -132 55t-55 113h94q4 -41 38.5 -67t90.5 -26q52 0 82 23t30 58q0 36 -32 53.5t-99 34.5q-61 16 -99.5 32.5
t-66 49t-27.5 85.5q0 42 25 77t71 55.5t105 20.5q91 0 147 -46t60 -126h-91q-3 43 -34.5 69t-84.5 26q-49 0 -78 -21t-29 -55q0 -27 17.5 -44.5t44 -28t73.5 -23.5q59 -16 96 -31.5t63.5 -46.5t27.5 -81q0 -64 -48 -107.5z" />
    <glyph glyph-name="Scaron" unicode="&#x160;" horiz-adv-x="587" 
d="M174.5 17.5q-54.5 24.5 -85.5 68t-32 100.5h97q5 -49 40.5 -82.5t103.5 -33.5q65 0 102.5 32.5t37.5 83.5q0 40 -22 65t-55 38t-89 28q-69 18 -110.5 36t-71 56.5t-29.5 103.5q0 57 29 101t81.5 68t120.5 24q98 0 160.5 -49t70.5 -130h-100q-5 40 -42 70.5t-98 30.5
q-57 0 -93 -29.5t-36 -82.5q0 -38 21.5 -62t53 -36.5t88.5 -28.5q69 -19 111 -37.5t72 -57t30 -104.5q0 -51 -27 -96t-80 -73t-125 -28q-69 0 -123.5 24.5zM429 830l-138 -82l-139 82v72l139 -85l138 85v-72z" />
    <glyph glyph-name="scaron" unicode="&#x161;" horiz-adv-x="522" 
d="M158 12.5q-50 21.5 -79 60t-32 88.5h94q4 -41 38.5 -67t90.5 -26q52 0 82 23t30 58q0 36 -32 53.5t-99 34.5q-61 16 -99.5 32.5t-66 49t-27.5 85.5q0 42 25 77t71 55.5t105 20.5q91 0 147 -46t60 -126h-91q-3 43 -34.5 69t-84.5 26q-49 0 -78 -21t-29 -55
q0 -27 17.5 -44.5t44 -28t73.5 -23.5q59 -16 96 -31.5t63.5 -46.5t27.5 -81q0 -45 -25 -81t-70.5 -56.5t-104.5 -20.5q-63 0 -113 21.5zM399 686l-138 -82l-139 82v72l139 -85l138 85v-72z" />
    <glyph glyph-name="uni0162" unicode="&#x162;" horiz-adv-x="541" 
d="M302 0v-58q59 1 94 -25t35 -74q0 -47 -34 -75t-88 -28h-115v59h97q33 0 48.5 10t15.5 34q0 23 -15.5 33t-48.5 10h-50v114h-16v623h-191v74h472v-74h-190v-623h-14z" />
    <glyph glyph-name="uni0163" unicode="&#x163;" horiz-adv-x="364" 
d="M321 -83q35 -26 35 -74q0 -47 -34 -75t-88 -28h-115v59h97q33 0 48.5 10t15.5 34q0 23 -15.5 33t-48.5 10h-51v129q-68 31 -68 135v323h-71v75h71v138h91v-138h143v-75h-143v-323q0 -40 17 -56.5t59 -16.5h67v-77h-82q-15 0 -22 1v-59q59 1 94 -25z" />
    <glyph glyph-name="Tcaron" unicode="&#x164;" horiz-adv-x="541" 
d="M506 697v-74h-190v-623h-91v623h-191v74h472zM409 824l-138 -82l-139 82v72l139 -85l138 85v-72z" />
    <glyph glyph-name="tcaron" unicode="&#x165;" horiz-adv-x="367" 
d="M365 688q0 -51 -25.5 -74t-76.5 -23v42q25 0 36.5 8.5t11.5 27.5v18h-49v86h91q12 -52 12 -85zM188 548h143v-75h-143v-323q0 -40 17 -56.5t59 -16.5h67v-77h-82q-76 0 -114 35t-38 115v323h-71v75h71v138h91v-138z" />
    <glyph glyph-name="Utilde" unicode="&#x168;" horiz-adv-x="675" 
d="M166 697v-441q0 -93 45.5 -138t126.5 -45q80 0 125.5 45t45.5 138v441h91v-440q0 -87 -35 -146.5t-94.5 -88.5t-133.5 -29t-133.5 29t-94 88.5t-34.5 146.5v440h91zM223.5 830q26.5 27 66.5 27q19 0 32.5 -6.5t32.5 -18.5q14 -10 25 -15.5t24 -5.5q17 0 29 11t15 32h52
q-6 -50 -33 -77t-67 -27q-19 0 -33.5 6.5t-32.5 19.5q-16 10 -25.5 15t-22.5 5q-17 0 -28.5 -11t-14.5 -33h-53q7 51 33.5 78z" />
    <glyph glyph-name="utilde" unicode="&#x169;" 
d="M563 548v-548h-91v81q-26 -42 -72.5 -65.5t-102.5 -23.5q-64 0 -115 26.5t-80.5 79.5t-29.5 129v321h90v-309q0 -81 41 -124.5t112 -43.5q73 0 115 45t42 131v301h91zM207.5 685q26.5 27 66.5 27q19 0 32.5 -6.5t32.5 -18.5q14 -10 25 -15.5t24 -5.5q17 0 29 11t15 32h52
q-6 -50 -33 -77t-67 -27q-19 0 -33.5 6.5t-32.5 19.5q-16 10 -25.5 15t-22.5 5q-17 0 -28.5 -11t-14.5 -33h-53q7 51 33.5 78z" />
    <glyph glyph-name="Umacron" unicode="&#x16a;" horiz-adv-x="675" 
d="M166 697v-441q0 -93 45.5 -138t126.5 -45q80 0 125.5 45t45.5 138v441h91v-440q0 -87 -35 -146.5t-94.5 -88.5t-133.5 -29t-133.5 29t-94 88.5t-34.5 146.5v440h91zM513 854v-68h-352v68h352z" />
    <glyph glyph-name="umacron" unicode="&#x16b;" 
d="M563 548v-548h-91v81q-26 -42 -72.5 -65.5t-102.5 -23.5q-64 0 -115 26.5t-80.5 79.5t-29.5 129v321h90v-309q0 -81 41 -124.5t112 -43.5q73 0 115 45t42 131v301h91zM496 709v-68h-352v68h352z" />
    <glyph glyph-name="Ubreve" unicode="&#x16c;" horiz-adv-x="675" 
d="M166 697v-441q0 -93 45.5 -138t126.5 -45q80 0 125.5 45t45.5 138v441h91v-440q0 -87 -35 -146.5t-94.5 -88.5t-133.5 -29t-133.5 29t-94 88.5t-34.5 146.5v440h91zM442.5 783.5q-37.5 -36.5 -104.5 -36.5t-105 36.5t-38 94.5v17h54q0 -38 21 -57.5t68 -19.5
q46 0 67 19.5t21 57.5h54v-18q0 -57 -37.5 -93.5z" />
    <glyph glyph-name="ubreve" unicode="&#x16d;" 
d="M563 548v-548h-91v81q-26 -42 -72.5 -65.5t-102.5 -23.5q-64 0 -115 26.5t-80.5 79.5t-29.5 129v321h90v-309q0 -81 41 -124.5t112 -43.5q73 0 115 45t42 131v301h91zM425.5 638.5q-37.5 -36.5 -104.5 -36.5t-105 36.5t-38 94.5v17h54q0 -38 21 -57.5t68 -19.5
q46 0 67 19.5t21 57.5h54v-18q0 -57 -37.5 -93.5z" />
    <glyph glyph-name="Uring" unicode="&#x16e;" horiz-adv-x="675" 
d="M166 697v-441q0 -93 45.5 -138t126.5 -45q80 0 125.5 45t45.5 138v441h91v-440q0 -87 -35 -146.5t-94.5 -88.5t-133.5 -29t-133.5 29t-94 88.5t-34.5 146.5v440h91zM414.5 780.5q-30.5 -28.5 -76.5 -28.5q-45 0 -76 29t-31 76t31 76t76 29q46 0 76.5 -28.5t30.5 -76.5
t-30.5 -76.5zM376.5 898.5q-15.5 15.5 -38.5 15.5t-38.5 -15.5t-15.5 -40.5t15.5 -41t38.5 -16t38.5 16t15.5 41t-15.5 40.5z" />
    <glyph glyph-name="uring" unicode="&#x16f;" 
d="M563 548v-548h-91v81q-26 -42 -72.5 -65.5t-102.5 -23.5q-64 0 -115 26.5t-80.5 79.5t-29.5 129v321h90v-309q0 -81 41 -124.5t112 -43.5q73 0 115 45t42 131v301h91zM397.5 635.5q-30.5 -28.5 -76.5 -28.5q-45 0 -76 29t-31 76t31 76t76 29q46 0 76.5 -28.5t30.5 -76.5
t-30.5 -76.5zM359.5 753.5q-15.5 15.5 -38.5 15.5t-38.5 -15.5t-15.5 -40.5t15.5 -41t38.5 -16t38.5 16t15.5 41t-15.5 40.5z" />
    <glyph glyph-name="Uhungarumlaut" unicode="&#x170;" horiz-adv-x="675" 
d="M166 697v-441q0 -93 45.5 -138t126.5 -45q80 0 125.5 45t45.5 138v441h91v-440q0 -87 -35 -146.5t-94.5 -88.5t-133.5 -29t-133.5 29t-94 88.5t-34.5 146.5v440h91zM284 746h-61l67 154h81zM432 746h-60l72 154h80z" />
    <glyph glyph-name="uhungarumlaut" unicode="&#x171;" 
d="M563 548v-548h-91v81q-26 -42 -72.5 -65.5t-102.5 -23.5q-64 0 -115 26.5t-80.5 79.5t-29.5 129v321h90v-309q0 -81 41 -124.5t112 -43.5q73 0 115 45t42 131v301h91zM267 601h-61l67 154h81zM415 601h-60l72 154h80z" />
    <glyph glyph-name="Uogonek" unicode="&#x172;" horiz-adv-x="675" 
d="M600 697v-440q0 -108 -52.5 -173t-139.5 -84l-55 -27q-60 -29 -60 -70q0 -23 16 -35.5t43 -12.5q28 0 65 13v-60q-40 -14 -77 -14q-51 0 -86.5 24.5t-35.5 75.5q0 59 65 103q-94 15 -151 81t-57 179v440h91v-441q0 -93 45.5 -138t126.5 -45q80 0 125.5 45t45.5 138v441
h91z" />
    <glyph glyph-name="uogonek" unicode="&#x173;" 
d="M572 -133v-60q-40 -14 -77 -14q-51 0 -86.5 24.5t-35.5 75.5q0 72 99 123v65q-26 -42 -72.5 -65.5t-102.5 -23.5q-64 0 -115 26.5t-80.5 79.5t-29.5 129v321h90v-309q0 -81 41 -124.5t112 -43.5q73 0 115 45t42 131v301h91v-548h-1l1 -1l-55 -27q-60 -29 -60 -70
q0 -23 16 -35.5t43 -12.5q28 0 65 13z" />
    <glyph glyph-name="Wcircumflex" unicode="&#x174;" horiz-adv-x="976" 
d="M953 697l-202 -697h-102l-162 561l-168 -561l-101 -1l-195 698h97l152 -591l168 591h102l160 -589l153 589h98zM485 835l-139 -85v72l139 83l138 -83v-72z" />
    <glyph glyph-name="wcircumflex" unicode="&#x175;" horiz-adv-x="820" 
d="M807 548l-171 -548h-94l-132 435l-132 -435h-94l-172 548h93l126 -460l136 460h93l133 -461l124 461h90zM411 682l-139 -85v72l139 83l138 -83v-72z" />
    <glyph glyph-name="Ycircumflex" unicode="&#x176;" horiz-adv-x="584" 
d="M565 697l-227 -434v-263h-91v263l-228 434h101l172 -353l172 353h101zM293 827l-139 -85v72l139 83l138 -83v-72z" />
    <glyph glyph-name="ycircumflex" unicode="&#x177;" horiz-adv-x="563" 
d="M549 548l-330 -806h-94l108 264l-221 542h101l172 -444l170 444h94zM282 682l-139 -85v72l139 83l138 -83v-72z" />
    <glyph glyph-name="Ydieresis" unicode="&#x178;" horiz-adv-x="584" 
d="M565 697l-227 -434v-263h-91v263l-228 434h101l172 -353l172 353h101zM174.5 782q-15.5 15 -15.5 37t15.5 37.5t37.5 15.5q21 0 36.5 -15.5t15.5 -37.5t-15.5 -37t-36.5 -15q-22 0 -37.5 15zM337 782q-15 15 -15 37t15 37.5t37 15.5t37.5 -15.5t15.5 -37.5t-15.5 -37
t-37.5 -15t-37 15z" />
    <glyph glyph-name="Zacute" unicode="&#x179;" horiz-adv-x="541" 
d="M154 79h340v-79h-448v72l338 546h-334v79h442v-72zM368 848l-213 -114v68l213 125v-79z" />
    <glyph glyph-name="zacute" unicode="&#x17a;" horiz-adv-x="455" 
d="M145 75h269v-75h-373v75l266 399h-264v74h369v-74zM326 703l-213 -114v68l213 125v-79z" />
    <glyph glyph-name="Zdotaccent" unicode="&#x17b;" horiz-adv-x="541" 
d="M154 79h340v-79h-448v72l338 546h-334v79h442v-72zM233.5 776q-15.5 15 -15.5 37t15.5 37.5t37.5 15.5t37 -15.5t15 -37.5t-15 -37t-37 -15t-37.5 15z" />
    <glyph glyph-name="zdotaccent" unicode="&#x17c;" horiz-adv-x="455" 
d="M145 75h269v-75h-373v75l266 399h-264v74h369v-74zM191.5 632q-15.5 15 -15.5 37t15.5 37.5t37.5 15.5t37 -15.5t15 -37.5t-15 -37t-37 -15t-37.5 15z" />
    <glyph glyph-name="Zcaron" unicode="&#x17d;" horiz-adv-x="541" 
d="M154 79h340v-79h-448v72l338 546h-334v79h442v-72zM409 824l-138 -82l-139 82v72l139 -85l138 85v-72z" />
    <glyph glyph-name="zcaron" unicode="&#x17e;" horiz-adv-x="455" 
d="M145 75h269v-75h-373v75l266 399h-264v74h369v-74zM367 679l-138 -82l-139 82v72l139 -85l138 85v-72z" />
    <glyph glyph-name="uni018F" unicode="&#x18f;" horiz-adv-x="786" 
d="M568 660q76 -45 118 -126t42 -185q0 -105 -41.5 -185.5t-117.5 -125.5t-175 -45q-96 0 -170 38.5t-115 112.5t-41 177q0 29 3 62h558q-3 71 -34 125.5t-83 84.5t-117 30q-78 0 -135.5 -38t-80.5 -105h-105q33 104 118 164.5t203 60.5q97 0 173 -45zM510 101.5
q52 26.5 83.5 77t35.5 119.5h-466q0 -66 29 -116.5t81.5 -78.5t120.5 -28q64 0 116 26.5z" />
    <glyph glyph-name="florin" unicode="&#x192;" horiz-adv-x="332" 
d="M231.5 669q-27.5 -22 -32.5 -74l-5 -47h115l-7 -74h-116l-56 -531q-7 -74 -45 -107t-109 -33h-24l7 75h19q29 0 43 14.5t18 50.5l56 531h-70l7 74h71l5 47q10 90 62.5 131t153.5 41l-7 -76q-58 0 -85.5 -22z" />
    <glyph glyph-name="AEacute" unicode="&#x1fc;" horiz-adv-x="900" 
d="M556 626v-239h252v-70h-252v-245h282v-72h-373v155h-267l-87 -155h-99l395 698h431v-72h-282zM465 226v403l-227 -403h227zM657 854l-213 -114v68l213 125v-79z" />
    <glyph glyph-name="aeacute" unicode="&#x1fd;" horiz-adv-x="1100" 
d="M1051 243h-451q5 -56 32 -95.5t67 -59.5t84 -20q64 0 106 27.5t56 73.5h98q-22 -79 -86 -128.5t-159 -49.5q-67 0 -123.5 31t-85.5 84v-106h-79v105q-30 -51 -84 -82.5t-123 -31.5q-73 0 -132.5 36t-93.5 101t-34 148q0 84 34.5 147.5t94.5 98.5t136 35q67 0 119.5 -28.5
t85.5 -81.5v101h76v-101q71 110 209 110q76 0 134.5 -34.5t90.5 -94t32 -131.5q0 -29 -4 -54zM937.5 400.5q-23.5 38.5 -64 59t-89.5 20.5q-72 0 -124.5 -46t-59.5 -125h361q0 53 -23.5 91.5zM414.5 95.5q42.5 24.5 67.5 71t25 108.5t-25 108t-67.5 70.5t-93.5 24.5t-93 -24
t-67 -70t-25 -108q0 -63 25 -109.5t67 -71t93 -24.5t93.5 24.5zM721 703l-213 -114v68l213 125v-79z" />
    <glyph glyph-name="uni0218" unicode="&#x218;" horiz-adv-x="587" 
d="M174.5 17.5q-54.5 24.5 -85.5 68t-32 100.5h97q5 -49 40.5 -82.5t103.5 -33.5q65 0 102.5 32.5t37.5 83.5q0 40 -22 65t-55 38t-89 28q-69 18 -110.5 36t-71 56.5t-29.5 103.5q0 57 29 101t81.5 68t120.5 24q98 0 160.5 -49t70.5 -130h-100q-5 40 -42 70.5t-98 30.5
q-57 0 -93 -29.5t-36 -82.5q0 -38 21.5 -62t53 -36.5t88.5 -28.5q69 -19 111 -37.5t72 -57t30 -104.5q0 -51 -27 -96t-80 -73t-125 -28q-69 0 -123.5 24.5zM354 -132q0 -115 -101 -115v42q47 0 47 56v18h-47v82h90q11 -41 11 -83z" />
    <glyph glyph-name="uni0219" unicode="&#x219;" horiz-adv-x="522" 
d="M158 12.5q-50 21.5 -79 60t-32 88.5h94q4 -41 38.5 -67t90.5 -26q52 0 82 23t30 58q0 36 -32 53.5t-99 34.5q-61 16 -99.5 32.5t-66 49t-27.5 85.5q0 42 25 77t71 55.5t105 20.5q91 0 147 -46t60 -126h-91q-3 43 -34.5 69t-84.5 26q-49 0 -78 -21t-29 -55
q0 -27 17.5 -44.5t44 -28t73.5 -23.5q59 -16 96 -31.5t63.5 -46.5t27.5 -81q0 -45 -25 -81t-70.5 -56.5t-104.5 -20.5q-63 0 -113 21.5zM320 -132q0 -115 -101 -115v42q47 0 47 56v18h-47v82h90q11 -47 11 -83z" />
    <glyph glyph-name="uni021A" unicode="&#x21a;" horiz-adv-x="541" 
d="M506 697v-74h-190v-623h-91v623h-191v74h472zM323 -132q0 -115 -100 -115v42q47 0 47 56v18h-47v82h90q10 -43 10 -83z" />
    <glyph glyph-name="uni021B" unicode="&#x21b;" horiz-adv-x="364" 
d="M188 473v-323q0 -40 17 -56.5t59 -16.5h67v-77h-82q-76 0 -114 35t-38 115v323h-71v75h71v138h91v-138h143v-75h-143zM233 -49q11 -41 11 -83q0 -59 -25.5 -87t-75.5 -28v42q48 0 48 56v18h-48v82h90z" />
    <glyph glyph-name="uni0259" unicode="&#x259;" horiz-adv-x="620" 
d="M445.5 522q61.5 -35 96.5 -99.5t35 -149.5t-34 -149t-95.5 -98.5t-141.5 -34.5q-78 0 -138 34t-92.5 93.5t-32.5 134.5q0 27 3 55h438q-5 81 -55.5 126.5t-122.5 45.5q-59 0 -98.5 -27.5t-55.5 -73.5h-98q22 79 88 128.5t164 49.5q78 0 139.5 -35zM427.5 112
q48.5 44 55.5 122h-346q0 -52 23 -89.5t62.5 -57t87.5 -19.5q69 0 117.5 44z" />
    <glyph glyph-name="uni02BC" unicode="&#x2bc;" horiz-adv-x="219" 
d="M91 697h101l-96 -227h-64z" />
    <glyph glyph-name="circumflex" unicode="&#x2c6;" horiz-adv-x="311" 
d="M156 682l-139 -85v72l139 83l138 -83v-72z" />
    <glyph glyph-name="caron" unicode="&#x2c7;" horiz-adv-x="311" 
d="M294 679l-138 -82l-139 82v72l139 -85l138 85v-72z" />
    <glyph glyph-name="uni02C9" unicode="&#x2c9;" horiz-adv-x="387" 
d="M369 709v-68h-352v68h352z" />
    <glyph glyph-name="breve" unicode="&#x2d8;" horiz-adv-x="320" 
d="M264.5 638.5q-37.5 -36.5 -104.5 -36.5t-105 36.5t-38 94.5v17h54q0 -38 21 -57.5t68 -19.5q46 0 67 19.5t21 57.5h54v-18q0 -57 -37.5 -93.5z" />
    <glyph glyph-name="dotaccent" unicode="&#x2d9;" horiz-adv-x="143" 
d="M34.5 637q-15.5 15 -15.5 37t15.5 37.5t37.5 15.5t37 -15.5t15 -37.5t-15 -37t-37 -15t-37.5 15z" />
    <glyph glyph-name="ring" unicode="&#x2da;" horiz-adv-x="243" 
d="M198.5 635.5q-30.5 -28.5 -76.5 -28.5q-45 0 -76 29t-31 76t31 76t76 29q46 0 76.5 -28.5t30.5 -76.5t-30.5 -76.5zM160.5 753.5q-15.5 15.5 -38.5 15.5t-38.5 -15.5t-15.5 -40.5t15.5 -41t38.5 -16t38.5 16t15.5 41t-15.5 40.5z" />
    <glyph glyph-name="ogonek" unicode="&#x2db;" horiz-adv-x="241" 
d="M210 0l-55 -27q-60 -29 -60 -70q0 -23 16 -35.5t43 -12.5q28 0 65 13v-60q-40 -14 -77 -14q-51 0 -86.5 24.5t-35.5 75.5q0 38 27.5 70.5t89.5 61.5l49 21z" />
    <glyph glyph-name="tilde" unicode="&#x2dc;" horiz-adv-x="345" 
d="M50.5 685q26.5 27 66.5 27q19 0 32.5 -6.5t32.5 -18.5q14 -10 25 -15.5t24 -5.5q17 0 29 11t15 32h52q-6 -50 -33 -77t-67 -27q-19 0 -33.5 6.5t-32.5 19.5q-16 10 -25.5 15t-22.5 5q-17 0 -28.5 -11t-14.5 -33h-53q7 51 33.5 78z" />
    <glyph glyph-name="hungarumlaut" unicode="&#x2dd;" horiz-adv-x="344" 
d="M78 601h-61l67 154h81zM226 601h-60l72 154h80z" />
    <glyph glyph-name="Wgrave" unicode="&#x1e80;" horiz-adv-x="976" 
d="M953 697l-202 -697h-102l-162 561l-168 -561l-101 -1l-195 698h97l152 -591l168 591h102l160 -589l153 589h98zM540 807v-68l-213 114v79z" />
    <glyph glyph-name="wgrave" unicode="&#x1e81;" horiz-adv-x="820" 
d="M807 548l-171 -548h-94l-132 435l-132 -435h-94l-172 548h93l126 -460l136 460h93l133 -461l124 461h90zM455 657v-68l-213 114v79z" />
    <glyph glyph-name="Wacute" unicode="&#x1e82;" horiz-adv-x="976" 
d="M953 697l-202 -697h-102l-162 561l-168 -561l-101 -1l-195 698h97l152 -591l168 591h102l160 -589l153 589h98zM655 856l-213 -114v68l213 125v-79z" />
    <glyph glyph-name="wacute" unicode="&#x1e83;" horiz-adv-x="820" 
d="M807 548l-171 -548h-94l-132 435l-132 -435h-94l-172 548h93l126 -460l136 460h93l133 -461l124 461h90zM579 703l-213 -114v68l213 125v-79z" />
    <glyph glyph-name="Wdieresis" unicode="&#x1e84;" horiz-adv-x="976" 
d="M953 697l-202 -697h-102l-162 561l-168 -561l-101 -1l-195 698h97l152 -591l168 591h102l160 -589l153 589h98zM366.5 788q-15.5 15 -15.5 37t15.5 37.5t37.5 15.5q21 0 36.5 -15.5t15.5 -37.5t-15.5 -37t-36.5 -15q-22 0 -37.5 15zM529 788q-15 15 -15 37t15 37.5
t37 15.5t37.5 -15.5t15.5 -37.5t-15.5 -37t-37.5 -15t-37 15z" />
    <glyph glyph-name="wdieresis" unicode="&#x1e85;" horiz-adv-x="820" 
d="M807 548l-171 -548h-94l-132 435l-132 -435h-94l-172 548h93l126 -460l136 460h93l133 -461l124 461h90zM291.5 637q-15.5 15 -15.5 37t15.5 37.5t37.5 15.5q21 0 36.5 -15.5t15.5 -37.5t-15.5 -37t-36.5 -15q-22 0 -37.5 15zM454 637q-15 15 -15 37t15 37.5t37 15.5
t37.5 -15.5t15.5 -37.5t-15.5 -37t-37.5 -15t-37 15z" />
    <glyph glyph-name="uni1EBC" unicode="&#x1ebc;" horiz-adv-x="513" 
d="M168 623v-233h254v-75h-254v-240h284v-75h-375v698h375v-75h-284zM141.5 830q26.5 27 66.5 27q19 0 32.5 -6.5t32.5 -18.5q14 -10 25 -15.5t24 -5.5q17 0 29 11t15 32h52q-6 -50 -33 -77t-67 -27q-19 0 -33.5 6.5t-32.5 19.5q-16 10 -25.5 15t-22.5 5q-17 0 -28.5 -11
t-14.5 -33h-53q7 51 33.5 78z" />
    <glyph glyph-name="uni1EBD" unicode="&#x1ebd;" horiz-adv-x="620" 
d="M574 240h-438q5 -81 55.5 -126.5t122.5 -45.5q59 0 98.5 27.5t55.5 73.5h98q-22 -79 -88 -128.5t-164 -49.5q-78 0 -139.5 35t-96.5 99.5t-35 149.5t34 149t95.5 98.5t141.5 34.5q78 0 138 -34t92.5 -93.5t32.5 -134.5q0 -26 -3 -55zM460 403.5q-23 37.5 -62.5 57
t-87.5 19.5q-69 0 -117.5 -44t-55.5 -122h346q0 52 -23 89.5zM196.5 685q26.5 27 66.5 27q19 0 32.5 -6.5t32.5 -18.5q14 -10 25 -15.5t24 -5.5q17 0 29 11t15 32h52q-6 -50 -33 -77t-67 -27q-19 0 -33.5 6.5t-32.5 19.5q-16 10 -25.5 15t-22.5 5q-17 0 -28.5 -11t-14.5 -33
h-53q7 51 33.5 78z" />
    <glyph glyph-name="Ygrave" unicode="&#x1ef2;" horiz-adv-x="584" 
d="M565 697l-227 -434v-263h-91v263l-228 434h101l172 -353l172 353h101zM390 802v-68l-213 114v79z" />
    <glyph glyph-name="ygrave" unicode="&#x1ef3;" horiz-adv-x="563" 
d="M549 548l-330 -806h-94l108 264l-221 542h101l172 -444l170 444h94zM379 657v-68l-213 114v79z" />
    <glyph glyph-name="uni1EF8" unicode="&#x1ef8;" horiz-adv-x="584" 
d="M565 697l-227 -434v-263h-91v263l-228 434h101l172 -353l172 353h101zM179.5 830q26.5 27 66.5 27q19 0 32.5 -6.5t32.5 -18.5q14 -10 25 -15.5t24 -5.5q17 0 29 11t15 32h52q-6 -50 -33 -77t-67 -27q-19 0 -33.5 6.5t-32.5 19.5q-16 10 -25.5 15t-22.5 5
q-17 0 -28.5 -11t-14.5 -33h-53q7 51 33.5 78z" />
    <glyph glyph-name="uni1EF9" unicode="&#x1ef9;" horiz-adv-x="563" 
d="M549 548l-330 -806h-94l108 264l-221 542h101l172 -444l170 444h94zM168.5 685q26.5 27 66.5 27q19 0 32.5 -6.5t32.5 -18.5q14 -10 25 -15.5t24 -5.5q17 0 29 11t15 32h52q-6 -50 -33 -77t-67 -27q-19 0 -33.5 6.5t-32.5 19.5q-16 10 -25.5 15t-22.5 5q-17 0 -28.5 -11
t-14.5 -33h-53q7 51 33.5 78z" />
    <glyph glyph-name="uni200C" unicode="&#x200c;" horiz-adv-x="0" 
d="M-23 -230v1041h47v-1041h-47z" />
    <glyph glyph-name="uni200D" unicode="&#x200d;" horiz-adv-x="0" 
d="M95 560l-72 75v-865h-47v865l-69 -73l-33 33l93 93l-95 95l33 33l95 -95l96 95l32 -32l-96 -96l96 -95z" />
    <glyph glyph-name="endash" unicode="&#x2013;" horiz-adv-x="677" 
d="M602 405v-77h-526v77h526z" />
    <glyph glyph-name="emdash" unicode="&#x2014;" horiz-adv-x="885" 
d="M809 405v-77h-733v77h733z" />
    <glyph glyph-name="quoteleft" unicode="&#x2018;" horiz-adv-x="219" 
d="M126 470h-102l96 227h65z" />
    <glyph glyph-name="quoteright" unicode="&#x2019;" horiz-adv-x="219" 
d="M91 697h101l-96 -227h-64z" />
    <glyph glyph-name="quotesinglbase" unicode="&#x201a;" horiz-adv-x="186" 
d="M58 115h101l-96 -227h-65z" />
    <glyph glyph-name="quotedblleft" unicode="&#x201c;" horiz-adv-x="380" 
d="M126 470h-102l96 227h65zM288 470h-102l96 227h65z" />
    <glyph glyph-name="quotedblright" unicode="&#x201d;" horiz-adv-x="380" 
d="M91 697h101l-96 -227h-64zM253 697h101l-96 -227h-65z" />
    <glyph glyph-name="quotedblbase" unicode="&#x201e;" horiz-adv-x="350" 
d="M57 115h102l-96 -227h-65zM222 115h101l-96 -227h-65z" />
    <glyph glyph-name="dagger" unicode="&#x2020;" horiz-adv-x="546" 
d="M502 476l-193 8l9 -744h-90l9 744l-193 -8v72l193 -8l-9 241h90l-9 -241l193 8v-72z" />
    <glyph glyph-name="daggerdbl" unicode="&#x2021;" horiz-adv-x="547" 
d="M309 484v-447l193 9v-73l-193 8l9 -241h-90l9 241l-192 -8v73l192 -9v447l-192 -8v72l192 -8l-9 241h90l-9 -241l193 8v-72z" />
    <glyph glyph-name="bullet" unicode="&#x2022;" horiz-adv-x="412" 
d="M118.5 246.5q-35.5 35.5 -35.5 86.5q0 52 35.5 87.5t86.5 35.5q52 0 88 -35.5t36 -87.5q0 -51 -36 -86.5t-88 -35.5q-51 0 -86.5 35.5z" />
    <glyph glyph-name="ellipsis" unicode="&#x2026;" horiz-adv-x="581" 
d="M249 12q-18 18 -18 44t18 44t44 18q25 0 42.5 -18t17.5 -44t-17.5 -44t-42.5 -18q-26 0 -44 18zM437 12q-18 18 -18 44t18 44t44 18q25 0 42.5 -18t17.5 -44t-17.5 -44t-42.5 -18q-26 0 -44 18zM62 12q-18 18 -18 44t18 44t44 18q25 0 42.5 -18t17.5 -44t-17.5 -44
t-42.5 -18q-26 0 -44 18z" />
    <glyph glyph-name="perthousand" unicode="&#x2030;" horiz-adv-x="1005" 
d="M82 667q41 40 105 40t105 -40t41 -107t-41.5 -107.5t-104.5 -40.5q-64 0 -105 40.5t-41 107.5t41 107zM584 698l-404 -698h-90l404 698h90zM133 627.5q-20 -23.5 -20 -67.5t20 -67.5t54 -23.5t53.5 23.5t19.5 67.5t-19.5 67.5t-53.5 23.5t-54 -23.5zM384 246
q41 40 105 40t104.5 -40t40.5 -108q0 -67 -41 -107.5t-104 -40.5q-64 0 -105 40.5t-41 107.5q0 68 41 108zM713.5 245.5q41.5 40.5 104.5 40.5q64 0 105 -40t41 -108q0 -67 -41 -107.5t-105 -40.5q-63 0 -104.5 40.5t-41.5 107.5t41.5 107.5zM434 206q-20 -23 -20 -68
q0 -44 20 -67t54 -23t54 23t20 67q0 45 -20 68t-54 23t-54 -23zM764.5 206q-19.5 -23 -19.5 -68q0 -44 19.5 -67t53.5 -23t54 23t20 67q0 45 -20 68t-54 23t-53.5 -23z" />
    <glyph glyph-name="guilsinglleft" unicode="&#x2039;" horiz-adv-x="280" 
d="M141 120l-96 175l96 175h89l-99 -175l99 -175h-89z" />
    <glyph glyph-name="guilsinglright" unicode="&#x203a;" horiz-adv-x="280" 
d="M149 295l-99 175h89l96 -175l-96 -175h-89z" />
    <glyph glyph-name="fraction" unicode="&#x2044;" horiz-adv-x="494" 
d="M505 698l-405 -698h-91l405 698h91z" />
    <glyph glyph-name="uni20A8" unicode="&#x20a8;" horiz-adv-x="1109" 
d="M498.5 362q-44.5 -55 -136.5 -70l191 -292h-111l-184 288h-90v-288h-91v697h225q118 0 179.5 -57.5t61.5 -147.5q0 -75 -44.5 -130zM168 360h134q75 0 111.5 35.5t36.5 96.5q0 63 -36 98t-112 35h-134v-265zM719 351q18 -18 45 -27t76 -20q60 -13 97.5 -27t63.5 -45
t26 -84q0 -45 -26 -81t-71.5 -56t-103.5 -20q-94 0 -152 46t-65 129h94q4 -46 36.5 -74t86.5 -28q53 0 82 23.5t29 62.5q0 30 -18.5 48.5t-46.5 28t-77 20.5q-60 14 -96 27t-61.5 42.5t-25.5 79.5q0 45 24.5 81.5t71 58t108.5 21.5q89 0 144 -46.5t60 -127.5h-93
q-4 46 -33.5 73.5t-83.5 27.5q-51 0 -80 -23.5t-29 -61.5q0 -30 18 -48z" />
    <glyph glyph-name="Euro" unicode="&#x20ac;" horiz-adv-x="811" 
d="M583.5 109q54.5 33 83.5 94h108q-38 -100 -123 -154.5t-198 -54.5q-118 0 -208 65t-124 174h-97v64h83q-3 26 -3 52q0 25 3 49h-83v63h96q22 73 70.5 128.5t116 86t146.5 30.5q113 0 198 -55t123 -156h-108q-29 62 -83 95t-130 33q-84 0 -146.5 -43t-89.5 -119h236v-63
h-252q-3 -24 -3 -49q0 -29 4 -52h251v-64h-235q29 -74 91.5 -115.5t143.5 -41.5q75 0 129.5 33z" />
    <glyph glyph-name="uni20B9" unicode="&#x20b9;" horiz-adv-x="635" 
d="M466 540v-17h129v-66h-134q-9 -69 -39.5 -108t-88 -56t-152.5 -17v-79q0 -135 118 -135q116 0 116 130h84q-1 -100 -53 -151t-148 -51q-99 0 -150.5 55t-51.5 154v141q114 0 168.5 7.5t79.5 32t32 77.5h-325v66h329v18v90h-329v67h544v-67h-129v-91z" />
    <glyph glyph-name="uni20BA" unicode="&#x20ba;" horiz-adv-x="830" 
d="M722 417q0 -220 -87 -327.5t-277 -107.5q-74 0 -171 22v240l-160 -39v66l160 39v100l-163 -39v63l163 41v227h94v-204l177 44v-66l-177 -43v-100l173 42v-66l-173 -42v-192q32 -7 77 -7q142 0 206.5 88t64.5 261h93z" />
    <glyph glyph-name="uni20BD" unicode="&#x20bd;" horiz-adv-x="624" 
d="M213 291v-96h218v-73h-218v-122h-91v122h-86v73h86v96h-86v72h86v334h225q118 0 179.5 -57t61.5 -147q0 -87 -59.5 -144.5t-181.5 -57.5h-134zM213 363h134q75 0 111.5 34.5t36.5 95.5q0 63 -36 97.5t-112 34.5h-134v-262z" />
    <glyph glyph-name="partialdiff" unicode="&#x2202;" horiz-adv-x="572" 
d="M74 388q35 77 97 123.5t138 46.5q47 0 79.5 -21t49.5 -69q-3 100 -40 158.5t-113 58.5q-36 0 -80 -12v53q46 14 93 14q111 0 172.5 -86.5t61.5 -241.5q0 -127 -39.5 -222.5t-107 -147.5t-150.5 -52q-86 0 -141 59.5t-55 173.5q0 88 35 165zM398 441q-31 40 -86 40
q-52 0 -93 -34t-64 -93t-23 -131q0 -77 31 -116t82 -39q52 0 94 35t66 94t24 127q0 77 -31 117z" />
    <glyph glyph-name="Delta" unicode="&#x2206;" horiz-adv-x="680" 
d="M378 693l282 -622v-71h-640v71l282 622h76zM113 71h454l-227 518z" />
    <glyph glyph-name="product" unicode="&#x220f;" horiz-adv-x="739" 
d="M699 698v-72h-79v-626h-90v626h-321v-626h-91v626h-79v72h660z" />
    <glyph glyph-name="summation" unicode="&#x2211;" horiz-adv-x="457" 
d="M429 622h-312l266 -269v-71l-267 -274h313v-71h-389v106l260 272l-260 273v105h389v-71z" />
    <glyph glyph-name="minus" unicode="&#x2212;" horiz-adv-x="551" 
d="M475 405v-77h-399v77h399z" />
    <glyph glyph-name="uni2215" unicode="&#x2215;" horiz-adv-x="476" 
d="M417 942l-274 -1112h-90l273 1112h91z" />
    <glyph glyph-name="uni2219" unicode="&#x2219;" horiz-adv-x="212" 
d="M65 297q-18 18 -18 44t18 44t44 18q25 0 42.5 -18t17.5 -44t-17.5 -44t-42.5 -18q-26 0 -44 18z" />
    <glyph glyph-name="radical" unicode="&#x221a;" horiz-adv-x="788" 
d="M774 869l-492 -913h-45l-125 220l-65 -38l-28 47l143 84l114 -202l431 802h67z" />
    <glyph glyph-name="infinity" unicode="&#x221e;" horiz-adv-x="696" 
d="M620.5 456.5q43.5 -39.5 43.5 -108.5q0 -68 -44.5 -108.5t-110.5 -40.5q-50 0 -88 25.5t-76 71.5q-27 -43 -68 -70t-92 -27q-67 0 -109.5 39.5t-42.5 108.5q0 68 44 108.5t110 40.5q50 0 88 -26.5t75 -73.5q26 44 67.5 72t93.5 28q66 0 109.5 -39.5zM255 287q31 21 52 57
q-34 43 -59.5 64.5t-56.5 21.5q-37 0 -59.5 -22t-22.5 -61q0 -38 22 -59.5t59 -21.5q34 0 65 21zM564.5 287q22.5 22 22.5 61q0 38 -22 59.5t-59 21.5q-35 0 -66.5 -22t-52.5 -59q30 -40 57.5 -61.5t60.5 -21.5q37 0 59.5 22z" />
    <glyph glyph-name="integral" unicode="&#x222b;" horiz-adv-x="261" 
d="M180.5 885q37.5 33 105.5 33h22l-8 -76h-17q-26 0 -39.5 -14.5t-17.5 -48.5l-92 -836q-7 -74 -44 -107t-106 -33h-23l7 75h20q26 0 38.5 14.5t16.5 50.5l92 836q8 73 45.5 106z" />
    <glyph glyph-name="approxequal" unicode="&#x2248;" horiz-adv-x="519" 
d="M178 347q27 0 48.5 -9.5t48.5 -27.5q24 -15 39.5 -22t32.5 -7q26 0 44.5 17.5t22.5 47.5h68q-25 -146 -142 -146q-26 0 -46 9t-49 27q-24 15 -39 22.5t-34 7.5q-26 0 -45 -17.5t-23 -47.5h-67q26 146 141 146zM178 558q27 0 48.5 -9.5t48.5 -27.5q24 -15 39.5 -22
t32.5 -7q26 0 44.5 17.5t22.5 47.5h68q-25 -146 -142 -146q-26 0 -46 9t-49 27q-24 15 -39 22.5t-34 7.5q-26 0 -45 -17.5t-23 -47.5h-67q26 146 141 146z" />
    <glyph glyph-name="notequal" unicode="&#x2260;" horiz-adv-x="706" 
d="M455 435l-118 -138h284v-77h-350l-84 -98h-69l84 98h-101v77h167l117 138h-284v77h350l84 98h70l-84 -98h100v-77h-166z" />
    <glyph glyph-name="lessequal" unicode="&#x2264;" horiz-adv-x="511" 
d="M196 404l240 -192h-120l-242 191l242 192h120zM79 155h355v-69h-355v69z" />
    <glyph glyph-name="greaterequal" unicode="&#x2265;" horiz-adv-x="511" 
d="M75 212l239 192l-239 191h120l242 -192l-242 -191h-120zM77 155h355v-69h-355v69z" />
  </font>
</defs>
</svg>
