<?xml version="1.0" encoding="UTF-8" standalone="no"?><!DOCTYPE svg PUBLIC "-//W3C//DTD SVG 1.1//EN" "http://www.w3.org/Graphics/SVG/1.1/DTD/svg11.dtd"><svg width="100%" height="100%" viewBox="0 0 500 500" version="1.1" xmlns="http://www.w3.org/2000/svg" xmlns:xlink="http://www.w3.org/1999/xlink" xml:space="preserve" xmlns:serif="http://www.serif.com/" style="fill-rule:evenodd;clip-rule:evenodd;stroke-linejoin:round;stroke-miterlimit:2;"><g id="OBJECTS"><path d="M142.065,168.258l-1.249,-0.174c-0.656,-0.089 -1.22,0.463 -1.143,1.12l0.202,1.732c0.022,0.182 -0.007,0.366 -0.082,0.533l-1.329,2.944c-0.106,0.236 -0.119,0.505 -0.032,0.75l1.007,2.873c0.122,0.347 0.421,0.6 0.783,0.662l1.502,0.259c0.732,0.126 1.345,-0.554 1.146,-1.268l-0.79,-2.826c-0.072,-0.259 -0.038,-0.536 0.094,-0.77l1.144,-2.021c0.122,-0.217 0.16,-0.472 0.106,-0.715l-0.511,-2.317c-0.092,-0.411 -0.43,-0.724 -0.848,-0.782m-2.819,-3.275l0.004,0.149c0.012,0.427 0.292,0.802 0.699,0.933l2.351,0.761c0.51,0.165 1.059,-0.095 1.254,-0.595l0.545,-1.397c0.285,-0.732 -0.335,-1.495 -1.11,-1.365l-2.9,0.488c-0.498,0.083 -0.858,0.521 -0.843,1.026m-2.322,17.526l-1.112,1.387c-0.122,0.152 -0.197,0.337 -0.216,0.531l-0.074,0.738c-0.082,0.821 0.802,1.389 1.514,0.974l1.692,-0.985c0.446,-0.26 0.624,-0.814 0.414,-1.285l-0.506,-1.139c-0.308,-0.692 -1.238,-0.812 -1.712,-0.221m14.545,23.045l1.499,-1.113c0.724,-0.536 0.361,-1.685 -0.54,-1.71l-1.397,-0.037c-0.502,-0.013 -0.926,0.366 -0.971,0.866l-0.1,1.15c-0.072,0.815 0.853,1.33 1.509,0.844m-2.911,-61.497l1.556,1.135c0.225,0.164 0.507,0.228 0.781,0.177l4.746,-0.882c0.131,-0.024 0.264,-0.023 0.394,0.005l4.681,0.988c0.391,0.082 0.793,-0.073 1.027,-0.396l2.799,-3.863c0.343,-0.474 0.215,-1.139 -0.281,-1.45l-0.343,-0.216c-0.416,-0.26 -0.584,-0.78 -0.4,-1.235l1.284,-3.177c0.057,-0.141 0.145,-0.266 0.258,-0.369l4.672,-4.245c0.254,-0.231 0.373,-0.574 0.317,-0.913l-0.86,-5.19c-0.12,-0.727 -0.955,-1.085 -1.565,-0.67l-11.889,8.085c-0.393,0.267 -0.547,0.772 -0.369,1.214l0.547,1.357c0.329,0.815 -0.471,1.633 -1.294,1.324l-3.814,-1.434c-0.399,-0.15 -0.85,-0.033 -1.126,0.292l-2.363,2.779c-0.356,0.417 -0.312,1.044 0.097,1.411l1.832,1.629c0.484,0.431 0.443,1.199 -0.082,1.577l-0.599,0.43c-0.559,0.401 -0.562,1.232 -0.006,1.637m-2.347,15.736l0.119,-1.453c0.046,-0.565 -0.381,-1.057 -0.945,-1.091l-6.511,-0.403c-0.189,-0.012 -0.377,0.029 -0.544,0.12l-0.846,0.459c-0.627,0.339 -0.715,1.203 -0.169,1.662l2.956,2.484c0.249,0.209 0.584,0.285 0.899,0.206l4.282,-1.087c0.419,-0.106 0.724,-0.467 0.759,-0.897m53.909,70.161l-0.986,-0.849c-0.59,-0.509 -1.508,-0.129 -1.565,0.648l-0.106,1.446c-0.023,0.33 0.125,0.649 0.394,0.841l1.293,0.925c0.676,0.482 1.601,-0.074 1.493,-0.896l-0.201,-1.521c-0.031,-0.231 -0.145,-0.442 -0.322,-0.594m-47.303,-83.173l-1.925,0.957c-0.21,0.104 -0.376,0.277 -0.472,0.49l-0.801,1.777c-0.091,0.201 -0.244,0.366 -0.439,0.472l-1.772,0.964l3.286,2.236c0.374,0.255 0.872,0.23 1.218,-0.061l4.885,-4.098c0.596,-0.501 0.428,-1.456 -0.301,-1.724l-2.881,-1.056c-0.261,-0.095 -0.549,-0.079 -0.798,0.043m161.232,283.15l-4.177,2.111c-1.101,0.556 -0.844,2.197 0.372,2.392l0.013,0.003c0.159,0.025 0.31,0.08 0.448,0.161l3.791,2.251c0.261,0.154 0.571,0.211 0.871,0.158l2.62,-0.462c0.622,-0.11 1.069,-0.659 1.05,-1.29l-0.013,-0.518c-0.008,-0.248 0.057,-0.49 0.186,-0.7l0.36,-0.591c0.558,-0.913 -0.194,-2.065 -1.255,-1.923c-0.293,0.038 -0.59,-0.025 -0.84,-0.182l-2.18,-1.355c-0.377,-0.234 -0.849,-0.255 -1.246,-0.055m-90.481,-94.728l3.046,-2.271c1.014,-0.756 0.363,-2.364 -0.889,-2.201c-0.495,0.064 -0.98,-0.177 -1.226,-0.611l-1.837,-3.231c-0.249,-0.438 -0.74,-0.68 -1.239,-0.609l-4.918,0.697c-0.461,0.066 -0.842,0.38 -0.989,0.822c-0.267,0.795 -0.695,2.093 -0.973,3.011c-0.181,0.599 0.117,1.235 0.691,1.482l7.117,3.054c0.402,0.173 0.866,0.117 1.217,-0.143m-14.081,-40.454l-1.376,4.565c-0.334,1.11 0.615,2.183 1.756,1.988l2.309,-0.396c0.308,-0.052 0.592,-0.196 0.817,-0.412l6.272,-6.025c0.476,-0.457 0.613,-1.163 0.342,-1.765l-0.674,-1.497c-0.135,-0.299 -0.172,-0.63 -0.107,-0.951c0.293,-1.443 -1.393,-2.451 -2.526,-1.51l-6.317,5.253c-0.235,0.196 -0.408,0.456 -0.496,0.75m184.007,55.95l-1.455,-6.198c-0.066,-0.283 -0.239,-0.531 -0.481,-0.691l-10.2,-6.774c-0.182,-0.12 -0.393,-0.187 -0.612,-0.191l-14.32,-0.255c-0.028,-0.001 -0.055,-0.001 -0.082,0.001l-8.106,0.436c-0.554,0.03 -1.002,0.462 -1.052,1.014l-0.459,5.042c-0.017,0.178 -0.074,0.348 -0.17,0.5l-1.441,2.26c-0.377,0.59 -1.196,0.693 -1.706,0.214l-3.8,-3.561c-0.152,-0.144 -0.342,-0.241 -0.547,-0.28l-3.304,-0.652c-0.886,-0.174 -1.21,-1.272 -0.56,-1.9l6.967,-6.72c0.225,-0.219 0.35,-0.521 0.34,-0.836l-0.12,-4.195c-0.005,-0.224 -0.08,-0.441 -0.211,-0.622l-6.023,-8.318c-0.821,-1.134 -2.073,-1.88 -3.46,-2.06c-0.435,-0.058 -0.857,-0.187 -1.25,-0.382l-4.943,-2.456c-0.601,-0.298 -1.116,-0.744 -1.499,-1.297l-0.671,-0.968c-0.914,-1.32 -2.533,-1.961 -4.102,-1.623l-0.535,0.117c-0.103,0.021 -0.205,0.048 -0.306,0.078l-1.038,0.311c-0.694,0.209 -1.431,0.222 -2.131,0.043l-2.31,-0.595c-0.361,-0.093 -0.733,-0.135 -1.105,-0.124l-1.702,0.048l3.339,-0.888c0.6,-0.16 1.228,-0.177 1.835,-0.05l1.105,0.23c0.556,0.116 1.13,0.112 1.684,-0.012l2.653,-0.597c0.72,-0.163 1.47,-0.121 2.169,0.121l1.197,0.414c0.499,0.172 0.957,0.442 1.351,0.793l0.447,0.401c0.931,0.831 2.199,1.177 3.423,0.934l0.597,-0.119c0.471,-0.093 0.955,-0.101 1.428,-0.022l2.423,0.403l-8.763,-9.245l-2.087,-2.29c-1.22,-1.338 -1.38,-3.333 -0.388,-4.849c0.469,-0.72 1.161,-1.268 1.97,-1.561l1.059,-0.384l-3.264,-1.54c-0.643,-0.303 -1.194,-0.775 -1.593,-1.364l-1.011,-1.492c-0.171,-0.253 -0.448,-0.417 -0.754,-0.443l-0.897,-0.08c-0.315,-0.03 -0.598,-0.201 -0.769,-0.466l-4.458,-6.955c-0.315,-0.492 -0.768,-0.878 -1.302,-1.112l-6.423,-2.81c-0.226,-0.098 -0.463,-0.169 -0.705,-0.209l-8.205,-1.343c-1.29,-0.212 -2.288,-1.247 -2.452,-2.543l-0.009,-0.082c-0.122,-0.963 -0.709,-1.803 -1.571,-2.25c-0.657,-0.342 -1.163,-0.918 -1.415,-1.614l-3.153,-8.682c-0.112,-0.307 -0.264,-0.6 -0.453,-0.868l-3.324,-4.722c-0.281,-0.4 -0.479,-0.852 -0.587,-1.328l-2.736,-12.305c-0.023,-0.108 -0.07,-0.21 -0.139,-0.297l-3.017,-3.896c-0.147,-0.189 -0.375,-0.298 -0.614,-0.291l-2.096,0.061c-0.237,0.007 -0.461,-0.097 -0.608,-0.282l-8.88,-11.085c-0.115,-0.143 -0.278,-0.239 -0.457,-0.271l-4.331,-0.753c-0.473,-0.082 -0.923,-0.267 -1.317,-0.54l-3.305,-2.299c-0.206,-0.144 -0.432,-0.255 -0.671,-0.332l-5.106,-1.648c-0.838,-0.27 -1.759,-0.087 -2.429,0.484l-1.372,1.167c-0.087,0.075 -0.18,0.142 -0.276,0.204l-3.797,2.437c-0.777,0.499 -1.727,0.649 -2.618,0.414l-5.556,-1.461c-0.445,-0.117 -0.908,-0.14 -1.363,-0.066l-2.077,0.335c-0.435,0.07 -0.881,0.053 -1.308,-0.053l-4.436,-1.087c-0.662,-0.162 -1.231,-0.583 -1.581,-1.168l-1.249,-2.097l3.2,1.385c0.283,0.123 0.586,0.193 0.895,0.207l6.308,0.288c0.308,0.014 0.616,-0.028 0.909,-0.124l4.295,-1.411c0.721,-0.237 1.298,-0.783 1.575,-1.489l0.655,-1.671c0.384,-0.982 1.334,-1.624 2.388,-1.617l3.556,0.027c0.539,0.004 1.065,-0.163 1.503,-0.477l0.941,-0.675c1.64,-1.179 1.321,-3.705 -0.561,-4.438c-0.843,-0.328 -1.448,-1.078 -1.59,-1.971l-0.064,-0.407c-0.115,-0.718 -0.531,-1.352 -1.144,-1.744l-0.186,-0.119c-0.759,-0.486 -1.721,-0.532 -2.524,-0.122l-4.67,2.381c-0.991,0.505 -2.194,0.308 -2.973,-0.486l-0.01,-0.011l5.188,-3.684c0.45,-0.319 0.989,-0.484 1.54,-0.469l5.383,0.141c0.614,0.016 1.213,-0.19 1.686,-0.582l2.697,-2.228c0.457,-0.376 0.768,-0.902 0.879,-1.483l0.195,-1.016c0.131,-0.688 0.539,-1.289 1.127,-1.666l1.411,-0.903c0.366,-0.234 0.666,-0.558 0.87,-0.938l3.631,-6.755c0.05,-0.092 0.105,-0.182 0.166,-0.268l1.784,-2.513c0.402,-0.565 0.555,-1.271 0.424,-1.953l-0.072,-0.374c-0.112,-0.581 -0.018,-1.182 0.265,-1.701l1.872,-3.425c0.29,-0.533 0.27,-1.181 -0.053,-1.694l-0.118,-0.186c-0.275,-0.437 -0.333,-0.979 -0.155,-1.465l2.084,-5.715c0.102,-0.279 0.275,-0.525 0.503,-0.715l3.908,-3.246c0.396,-0.328 0.618,-0.821 0.603,-1.335l-0.08,-2.81c-0.014,-0.501 -0.252,-0.969 -0.649,-1.276l-5.974,-4.621c-0.615,-0.476 -1.479,-0.465 -2.082,0.028c-0.273,0.223 -0.61,0.354 -0.961,0.374l-11.882,0.687c-0.252,0.015 -0.506,0.004 -0.757,-0.029l-5.962,-0.803c-0.967,-0.13 -1.948,0.102 -2.755,0.65c-0.625,0.425 -1.358,0.662 -2.112,0.684l-2.07,0.059c-0.41,0.011 -0.82,-0.041 -1.215,-0.155l-3.577,-1.037c-0.431,-0.125 -0.88,-0.175 -1.329,-0.149l-1.848,0.106c-0.495,0.028 -0.917,0.373 -1.043,0.853l-0.05,0.19c-0.101,0.386 -0.397,0.692 -0.78,0.806l-3.845,1.149c-0.212,0.063 -0.416,0.146 -0.612,0.248l-4.294,2.254c-0.331,0.174 -0.698,0.263 -1.073,0.261l-0.745,-0.004c-0.506,-0.002 -0.999,0.163 -1.4,0.47l-2.791,2.134l-1.119,-0.962l4.477,-4.806c0.144,-0.154 0.275,-0.324 0.388,-0.504l4.398,-6.955l-2.192,1.211c-0.834,0.46 -1.823,0.553 -2.728,0.256l-0.679,-0.223c-0.941,-0.308 -1.074,-1.582 -0.219,-2.079c0.272,-0.157 0.467,-0.421 0.54,-0.726l0.597,-2.514c0.064,-0.267 0.222,-0.502 0.445,-0.663l11.643,-8.397c0.123,-0.089 0.228,-0.202 0.309,-0.331l3.159,-5.078c0.138,-0.222 0.349,-0.392 0.596,-0.482l3.288,-1.185c0.325,-0.117 0.583,-0.374 0.701,-0.701l1.374,-3.779c0.161,-0.441 0.042,-0.936 -0.301,-1.255l-0.939,-0.874c-0.416,-0.387 -0.492,-1.017 -0.184,-1.493l1.57,-2.416c0.159,-0.244 0.221,-0.536 0.176,-0.822c-0.163,-1.016 -1.054,-1.754 -2.083,-1.725l-3.567,0.103c-0.529,0.014 -1.033,0.235 -1.405,0.613l-1.437,1.466c-0.287,0.292 -0.706,0.413 -1.104,0.318l-2.696,-0.642c-0.431,-0.103 -0.884,-0.063 -1.29,0.113l-5.269,2.285l-5.669,-0.293l-4.531,1.813l-2.669,0.145l-2.711,2.467l0.546,-2.631l-2.581,-0.93l-4.95,4.275l1.383,-3.716l-7.215,-2.705l-0.854,3.21c-0.125,0.472 -0.405,0.889 -0.796,1.186l-0.619,0.47c-0.685,0.521 -1.003,1.394 -0.815,2.235l0.504,2.243l-1.47,0.137l0.203,2.683c0.083,1.088 -0.644,2.072 -1.707,2.311l-0.066,0.015c-1.511,0.342 -2.205,2.099 -1.334,3.383l0.022,0.03c0.449,0.661 0.505,1.513 0.145,2.225l-0.821,1.634c-0.346,0.686 -1.024,1.142 -1.789,1.204l-1.306,0.106l6.019,4.586c0.205,0.157 0.381,0.348 0.521,0.565l1.958,3.062l-5.054,-2.125c-0.768,-0.323 -1.652,-0.184 -2.283,0.357c-0.708,0.606 -1.719,0.701 -2.527,0.237l-3.253,-1.868l-0.236,1.847c-0.013,0.109 0.005,0.221 0.054,0.319l1.049,2.121c0.091,0.187 0.073,0.408 -0.048,0.577l-0.733,1.023c-0.238,0.334 -0.74,0.309 -0.944,-0.045l-1.454,-2.523c-0.229,-0.395 -0.807,-0.369 -0.998,0.047l-1.479,3.223c-0.099,0.217 -0.052,0.472 0.119,0.638l1.819,1.766c0.2,0.197 0.227,0.511 0.061,0.736l-1.168,1.584c-0.166,0.226 -0.14,0.539 0.06,0.735l3.273,3.207c0.103,0.1 0.241,0.157 0.383,0.16l3.407,0.053l-3.992,1.482c-0.143,0.054 -0.301,0.047 -0.438,-0.018l-3.154,-1.51c-0.413,-0.199 -0.878,0.157 -0.795,0.609l0.93,5.047c0.008,0.042 0.01,0.085 0.008,0.127l-0.059,1.37c-0.016,0.358 0.303,0.638 0.655,0.579l7.253,-1.235l-4.9,2.407c-0.123,0.06 -0.219,0.162 -0.271,0.288l-0.433,1.04l1.446,0.83c0.144,0.082 0.318,0.097 0.474,0.039l4.677,-1.726l-1.098,1.254l2.099,2.235l-3.504,-1.108c-0.153,-0.047 -0.318,-0.029 -0.456,0.053l-1.095,0.646c-0.117,0.069 -0.205,0.18 -0.248,0.309l-0.776,2.379c-0.082,0.248 0.019,0.519 0.241,0.654l1.694,1.032l-2.762,0.494c-0.149,0.027 -0.281,0.112 -0.365,0.237l-1.28,1.882c-0.218,0.318 -0.057,0.755 0.315,0.858l2.467,0.678c0.176,0.048 0.318,0.179 0.38,0.349l0.762,2.094l-5.168,-1.657c-0.302,-0.097 -0.625,0.075 -0.712,0.38l-0.511,1.797c-0.19,0.666 0.097,1.376 0.698,1.721c0.707,0.409 0.963,1.306 0.575,2.025l-0.401,0.746c-0.102,0.19 -0.244,0.355 -0.415,0.485l-1.876,1.428c-0.248,0.188 -0.546,0.295 -0.856,0.307l-4.805,0.189c-0.246,0.01 -0.479,0.115 -0.649,0.293l-1.134,1.186c-0.44,0.462 -0.309,1.216 0.26,1.503l0.742,0.373c0.158,0.079 0.336,0.113 0.512,0.098l4.241,-0.386c0.105,-0.009 0.212,0 0.315,0.025l3.07,0.767l-0.502,0.812c-0.168,0.272 -0.461,0.44 -0.78,0.449l-0.501,0.015c-0.882,0.024 -1.254,1.135 -0.566,1.687l2.64,2.118c0.274,0.219 0.646,0.27 0.967,0.131l0.441,-0.188c0.343,-0.148 0.741,-0.081 1.016,0.173l1.483,1.361c0.369,0.34 0.939,0.333 1.3,-0.015l11.919,-11.495l-1.541,2.762c-0.26,0.467 -0.084,1.054 0.388,1.302l1.069,0.559l-3.382,1.195c-0.25,0.088 -0.453,0.278 -0.557,0.522l-2.623,6.156c-0.08,0.187 -0.097,0.395 -0.05,0.593l0.243,1.008c0.054,0.231 0.022,0.474 -0.093,0.681l-3.16,5.705c-0.265,0.48 -0.07,1.084 0.426,1.317l0.053,0.025c0.449,0.212 0.659,0.734 0.481,1.197l-2.771,7.222c-0.063,0.166 -0.079,0.345 -0.045,0.519l0.888,4.647c0.052,0.268 -0.016,0.546 -0.183,0.762l-1.666,2.132c-0.257,0.33 -0.269,0.788 -0.028,1.13l1.042,1.479c0.271,0.386 0.785,0.513 1.205,0.3l1.491,-0.756l-3.784,5.698c-0.094,0.142 -0.149,0.306 -0.157,0.476l-0.403,7.947l-2.984,2.867l0.165,0.764c0.14,0.651 0.725,1.11 1.391,1.09l3.762,-0.108c0.879,-0.024 1.511,-0.854 1.302,-1.709l-0.618,-2.529l2.626,-5.984c0.064,-0.149 0.091,-0.312 0.075,-0.474l-0.298,-3.031c-0.025,-0.255 0.055,-0.51 0.221,-0.706l2.81,-3.309c0.208,-0.244 0.278,-0.576 0.187,-0.883l-2.479,-8.37c-0.174,-0.589 0.247,-1.185 0.859,-1.217l0.854,-0.046c0.253,-0.014 0.489,-0.128 0.659,-0.317l7.564,-8.521l-5.75,8.161c-0.097,0.136 -0.156,0.297 -0.17,0.464l-0.44,5.096c-0.032,0.352 0.137,0.692 0.437,0.883l0.552,0.349c0.587,0.371 1.36,0.008 1.447,-0.681l0.213,-1.666c0.032,-0.252 0.163,-0.479 0.364,-0.633l2.567,-1.97c0.513,-0.394 1.262,-0.17 1.473,0.441l0.657,1.895c0.28,0.807 1.4,0.861 1.758,0.085l1.982,-4.312c0.082,-0.18 0.107,-0.38 0.07,-0.575l-0.679,-3.525c-0.082,-0.421 0.13,-0.844 0.515,-1.032l0.322,-0.156c0.685,-0.334 1.463,0.234 1.353,0.988l-0.52,3.607c-0.054,0.37 0.115,0.737 0.43,0.937l6.296,3.996l-4.911,-1.083c-0.506,-0.111 -1.008,0.203 -1.127,0.707l-1.564,6.573c-0.037,0.154 -0.035,0.314 0.006,0.466l1.296,4.822c0.094,0.351 0.38,0.617 0.737,0.685l2.952,0.568l2.168,4.803l-5.022,4.997l-4.739,12.131c-0.088,0.226 -0.104,0.473 -0.047,0.708l0.641,2.589c0.241,0.977 -0.782,1.784 -1.677,1.318l-0.502,-0.262c-0.817,-0.425 -1.783,0.218 -1.707,1.136l0.289,3.475c0.019,0.24 0.114,0.469 0.269,0.654l2.572,3.078c0.814,0.975 2.379,0.137 2.02,-1.08l-0.199,-0.678c-0.181,-0.618 0.17,-1.266 0.788,-1.452l2.669,-0.798c0.32,-0.097 0.667,-0.051 0.952,0.125l9.075,5.619c0.771,0.478 1.769,-0.067 1.786,-0.975l0.054,-3.01c0.007,-0.391 -0.182,-0.759 -0.503,-0.983l-2.094,-1.452c-0.823,-0.572 -0.595,-1.844 0.374,-2.096c0.284,-0.073 0.585,-0.036 0.844,0.1l8.282,4.415c0.231,0.124 0.499,0.165 0.757,0.12l5.871,-1.054l-0.045,-1.585c-0.012,-0.421 0.324,-0.769 0.746,-0.772l4.016,-0.023c0.596,-0.003 1.121,-0.394 1.297,-0.964l0.898,-2.92c0.178,-0.578 0.714,-0.97 1.319,-0.964l4.478,0.046c1.591,0.016 1.872,2.282 0.332,2.686c-0.242,0.063 -0.434,0.241 -0.518,0.476l-5.421,15.292c-0.164,0.464 -0.103,0.977 0.167,1.388l6.863,10.446c0.456,0.694 1.371,0.913 2.091,0.504l0.253,-0.145c1.031,-0.586 2.314,0.137 2.349,1.321c0.041,1.444 1.844,2.072 2.773,0.966l1.624,-1.93c0.334,-0.4 0.845,-0.606 1.364,-0.552l5.507,0.571l-1.995,6.879l1.964,1.096l-5.082,3.835c-0.617,0.465 -0.885,1.262 -0.673,2.006l1.606,5.66c0.133,0.469 0.078,0.971 -0.153,1.401l-2.242,4.151c-0.378,0.702 -0.272,1.566 0.266,2.154l3.003,3.284c0.079,0.085 0.164,0.164 0.256,0.233l4.008,3.015c0.296,0.221 0.651,0.352 1.021,0.373l3.235,0.181l-2.086,1.455c-0.268,0.188 -0.582,0.302 -0.91,0.33l-2.693,0.233c-0.609,0.052 -1.203,-0.194 -1.596,-0.662l-2.28,-2.715c-0.512,-0.61 -1.356,-0.829 -2.101,-0.545c-1.132,0.433 -1.561,1.81 -0.877,2.808l1.373,2.004c0.17,0.246 0.395,0.449 0.658,0.59l2.741,1.474l-4.38,-0.684c-0.35,-0.055 -0.679,-0.209 -0.946,-0.444l-3.051,-2.683c-0.324,-0.284 -0.771,-0.378 -1.181,-0.249l-9.145,2.902c-0.164,0.053 -0.339,0.07 -0.511,0.05l-4.019,-0.465c-0.228,-0.026 -0.459,0.012 -0.666,0.11l-9.69,4.592c-0.184,0.087 -0.343,0.218 -0.464,0.381l-4.862,6.607c-0.095,0.129 -0.214,0.239 -0.351,0.321l-7.033,4.27c-0.143,0.085 -0.266,0.199 -0.362,0.335l-1.184,1.657c-0.639,0.894 0.13,2.114 1.212,1.922l1.565,-0.278c0.176,-0.031 0.357,-0.023 0.531,0.023l0.945,0.253c0.658,0.177 1.333,-0.217 1.505,-0.877l0.178,-0.688c0.11,-0.423 0.438,-0.755 0.86,-0.873l8.033,-2.234c0.856,-0.237 1.672,0.485 1.542,1.363l-0.397,2.681c-0.061,0.405 0.086,0.815 0.389,1.09l2.199,1.989c0.585,0.531 0.525,1.468 -0.125,1.918l-1.705,1.182c-0.544,0.378 -0.691,1.119 -0.332,1.675l1.497,2.315c0.185,0.287 0.481,0.482 0.817,0.543l0.355,0.062c0.827,0.146 1.267,1.06 0.864,1.797l-5.866,10.729l-4.981,1.756l-4.918,3.499l-2.503,0.228l-6.16,3.658c-0.162,0.097 -0.346,0.151 -0.534,0.156l-4.116,0.118c-0.202,0.006 -0.398,0.066 -0.568,0.175l-4.475,2.877c-0.878,0.565 -0.562,1.919 0.476,2.036l2.047,0.231c0.512,0.058 0.916,0.46 0.978,0.971l0.262,2.197c0.059,0.479 -0.2,0.941 -0.639,1.141l-0.036,0.016c-1.013,0.464 -0.787,1.966 0.319,2.109l3.84,0.499l-0.656,0.609c-0.586,0.544 -0.423,1.51 0.309,1.83l1.168,0.512c0.233,0.102 0.495,0.121 0.74,0.055l3.803,-1.045c0.095,-0.026 0.184,-0.064 0.268,-0.113l4.701,-2.758c0.063,-0.037 0.131,-0.068 0.202,-0.092l6.875,-2.354c0.614,-0.209 1.276,0.151 1.435,0.78l0.398,1.58c0.105,0.417 0.441,0.736 0.863,0.818l1.156,0.227c1.151,0.225 1.21,1.852 0.078,2.16c-0.418,0.112 -0.733,0.459 -0.805,0.886l-0.134,0.797c-0.114,0.679 0.411,1.297 1.099,1.295l7.531,-0.035l-0.021,-0.734c-0.015,-0.515 0.326,-0.972 0.823,-1.105l3.025,-0.805c0.382,-0.102 0.789,0.008 1.069,0.288l4.163,4.159l4.268,4.182l9.494,-0.336c0.432,-0.015 0.827,-0.248 1.048,-0.62l1.482,-2.491c0.257,-0.432 0.644,-0.773 1.108,-0.971l4.028,-1.731c0.045,-0.019 0.091,-0.037 0.139,-0.054l6.109,-2.183c0.213,-0.076 0.397,-0.216 0.529,-0.399l2.019,-2.824c0.112,-0.155 0.261,-0.28 0.434,-0.361l5.223,-2.433l-7.273,8.101c-0.052,0.058 -0.107,0.115 -0.166,0.168l-6.885,6.287c-0.259,0.237 -0.409,0.572 -0.413,0.925l-0.072,5.919c-0.009,0.707 -0.589,1.271 -1.295,1.257l-3.622,-0.064c-0.157,-0.003 -0.312,0.023 -0.46,0.077l-3.34,1.219c-0.314,0.114 -0.66,0.101 -0.965,-0.038l-4.051,-1.853c-0.14,-0.063 -0.29,-0.102 -0.444,-0.111l-13.101,-0.884l-9.315,2.486l0.272,4.351l-3.495,3.201c-0.192,0.176 -0.44,0.28 -0.702,0.292l-3.739,0.17c-0.567,0.026 -1.023,0.474 -1.06,1.041l-0.537,8.29c-0.019,0.292 -0.153,0.566 -0.372,0.76l-4.952,4.393c-0.102,0.089 -0.186,0.196 -0.248,0.315l-1.013,1.933c-0.161,0.305 -0.454,0.519 -0.792,0.579l-4.823,0.854c-0.435,0.077 -0.784,0.405 -0.888,0.835l-0.985,4.092c-0.117,0.489 -0.549,0.838 -1.051,0.852l-1.104,0.033c-0.435,0.012 -0.823,0.277 -0.993,0.679l-0.911,2.15c-0.081,0.192 -0.215,0.358 -0.386,0.478l-6.58,4.616c-0.278,0.195 -0.63,0.253 -0.957,0.157l-2.418,-0.718c-0.324,-0.097 -0.674,-0.041 -0.951,0.151l-4.117,2.854c-0.309,0.215 -0.489,0.571 -0.478,0.948l0.075,2.637c0.018,0.591 0.493,1.066 1.084,1.082l3.466,0.092c0.621,0.015 1.136,-0.479 1.143,-1.1l0.017,-1.413c0.008,-0.702 0.657,-1.222 1.344,-1.076l5.206,1.102c0.284,0.06 0.532,0.227 0.694,0.469l2.006,2.986c0.379,0.565 1.17,0.66 1.674,0.203l1.619,-1.471c0.417,-0.38 0.485,-1.011 0.157,-1.471l-0.558,-0.782c-0.29,-0.407 -0.273,-0.957 0.041,-1.346l1.7,-2.107c0.424,-0.525 1.214,-0.555 1.677,-0.065c0.417,0.443 1.112,0.468 1.561,0.057l2.614,-2.392c0.19,-0.173 0.433,-0.276 0.691,-0.29l1.472,-0.081c0.428,-0.024 0.804,-0.29 0.967,-0.686l1.126,-2.711c0.207,-0.496 0.738,-0.774 1.264,-0.661l4.658,1.002c0.233,0.05 0.474,0.024 0.69,-0.073l3.901,-1.751c0.184,-0.083 0.388,-0.114 0.589,-0.09l3.013,0.363c0.232,0.028 0.467,-0.018 0.672,-0.131l1.523,-0.843c0.459,-0.255 1.033,-0.153 1.378,0.242l1.772,2.032c0.236,0.271 0.588,0.411 0.946,0.377l2.212,-0.213c0.267,-0.026 0.536,0.046 0.754,0.202l3.749,2.679c0.212,0.152 0.47,0.225 0.73,0.205l3.159,-0.235c0.734,-0.054 1.215,-0.792 0.966,-1.486l-0.219,-0.611c-0.197,-0.549 0.064,-1.156 0.597,-1.393l2.518,-1.116c0.28,-0.124 0.497,-0.358 0.599,-0.648l0.741,-2.101c0.073,-0.207 0.083,-0.431 0.029,-0.644l-0.991,-3.911c-0.099,-0.391 0.02,-0.805 0.314,-1.083l2.415,-2.285c0.349,-0.33 0.789,-0.547 1.262,-0.623l1.008,-0.162c0.692,-0.11 1.3,-0.519 1.663,-1.119l0.093,-0.153c0.327,-0.54 0.854,-0.927 1.467,-1.079l9.889,-2.453c0.226,-0.056 0.457,-0.078 0.689,-0.067l5.282,0.253c0.207,0.009 0.408,0.07 0.587,0.176l6.115,3.618c0.32,0.19 0.708,0.23 1.06,0.109l1.846,-0.633c0.133,-0.045 0.272,-0.069 0.413,-0.069l6.979,0.002c0.134,0 0.267,0.021 0.393,0.062l2.663,0.865c0.63,0.205 1.312,-0.11 1.567,-0.722l1.179,-2.831c0.117,-0.284 0.333,-0.515 0.608,-0.652l5.955,-2.953c0.258,-0.129 0.553,-0.166 0.836,-0.104l3.786,0.824c0.331,0.072 0.676,0.009 0.961,-0.174l5.577,-3.602c0.265,-0.172 0.584,-0.238 0.896,-0.187l3.891,0.634c0.263,0.043 0.529,0.044 0.792,0.003l1.363,-0.214c0.39,-0.061 0.761,-0.214 1.081,-0.446l1.423,-1.032c0.667,-0.482 1.609,-0.214 1.923,0.547l0.112,0.273c0.119,0.288 0.34,0.523 0.62,0.659l3.04,1.484c0.404,0.197 0.884,0.167 1.258,-0.082l3.26,-2.151c0.414,-0.273 0.893,-0.429 1.388,-0.451l9.248,-0.418c0.142,-0.006 0.282,-0.024 0.42,-0.052l6.004,-1.212c0.213,-0.043 0.434,-0.038 0.645,0.014l5.939,1.471c0.044,0.008 0.087,0.018 0.131,0.027l2.388,0.367c0.4,0.061 0.808,-0.046 1.127,-0.294l3.844,-2.994c0.179,-0.139 0.386,-0.234 0.606,-0.281l4.387,-0.906c0.252,-0.052 0.486,-0.17 0.678,-0.34l3.838,-3.401c0.232,-0.207 0.524,-0.334 0.834,-0.363l2.454,-0.239c0.133,-0.013 0.266,-0.007 0.398,0.015l0.803,0.142c1.059,0.187 1.953,-0.789 1.676,-1.828c-0.165,-0.614 0.084,-1.264 0.618,-1.611l6.332,-4.126c0.024,-0.017 0.052,-0.028 0.08,-0.034l4.267,-0.933c0.105,-0.023 0.182,-0.114 0.188,-0.221l0.197,-3.987c0.002,-0.038 -0.006,-0.075 -0.021,-0.11l-1.25,-2.786c-0.024,-0.058 -0.027,-0.123 -0.005,-0.183l1.158,-3.055c0.062,-0.162 -0.065,-0.335 -0.239,-0.323l-7.876,0.495c-0.024,0.002 -0.047,0.007 -0.068,0.014l-5.801,2.155c-0.011,0.005 -0.024,0.009 -0.037,0.011l-3.329,0.639c-0.038,0.008 -0.078,0.005 -0.115,-0.006l-5.561,-1.675c-0.007,-0.002 -0.015,-0.004 -0.022,-0.006l-1.941,-0.39l1.782,-1.609c0.037,-0.033 0.082,-0.054 0.132,-0.061l1.68,-0.198l0.423,-1.022l-4.943,-1.004c-0.042,-0.008 -0.086,-0.006 -0.127,0.009l-4.242,1.496l5.884,-3.869c0.043,-0.029 0.095,-0.043 0.148,-0.039l3.835,0.256c0.042,0.003 0.083,-0.005 0.119,-0.023l3.601,-1.703c0.669,-0.317 0.969,-1.105 0.682,-1.787l-0.743,-1.767c-0.184,-0.436 -0.616,-0.714 -1.087,-0.7c-1.31,0.037 -1.932,-1.598 -0.93,-2.441l0.423,-0.357c0.024,-0.02 0.048,-0.041 0.071,-0.062l1.685,-1.625c0.484,-0.467 1.234,-0.517 1.777,-0.119l1.196,0.879c0.475,0.348 1.119,0.357 1.603,0.023l3.369,-2.322c0.141,-0.097 0.263,-0.219 0.359,-0.362l1.599,-2.354l-2.237,-0.319l0.072,-0.108c0.588,-0.89 -0.01,-2.084 -1.074,-2.144l-0.852,-0.049c-0.858,-0.049 -1.358,-0.994 -0.915,-1.73l0.546,-0.91c0.249,-0.415 0.732,-0.628 1.208,-0.532l1.938,0.392c0.358,0.071 0.659,0.311 0.812,0.643c0.354,0.772 1.397,0.901 1.93,0.24l2.264,-2.817c0.12,-0.149 0.275,-0.265 0.451,-0.339l2.61,-1.088c0.408,-0.17 0.683,-0.561 0.701,-1.004l0.334,-7.502c0.007,-0.127 0.033,-0.25 0.079,-0.369l2.762,-7.005c0.16,-0.407 0.075,-0.868 -0.22,-1.191l-2.047,-2.24c-0.132,-0.144 -0.224,-0.32 -0.27,-0.509m-202.837,-111.935l1.668,7.511l6.133,2.141l1.498,-5.332c0.069,-0.245 0.037,-0.508 -0.091,-0.73l-3.848,-6.689c-0.273,-0.476 -0.893,-0.621 -1.349,-0.316l-3.614,2.421c-0.324,0.217 -0.483,0.612 -0.397,0.994m182.076,159.354c-0.042,-0.002 -0.083,0.009 -0.119,0.028l-2.011,1.082l3.78,1.648c0.05,0.021 0.106,0.025 0.159,0.011l2.682,-0.742c0.18,-0.051 0.236,-0.278 0.1,-0.406l-1.583,-1.489c-0.042,-0.04 -0.099,-0.063 -0.158,-0.065l-2.85,-0.067Zm-186.727,-109.125l-1.503,-0.193c-0.88,-0.114 -1.427,-1.014 -1.121,-1.848l0.837,-2.279c0.139,-0.382 0.105,-0.805 -0.095,-1.157l-0.584,-1.035c-0.475,-0.839 0.033,-1.894 0.985,-2.046l0.414,-0.065c0.64,-0.103 1.265,0.254 1.503,0.856l0.78,1.969c0.32,0.806 1.53,0.459 1.374,-0.394l-0.781,-4.283c-0.118,-0.647 -0.676,-1.123 -1.336,-1.134l-3.241,-0.057c-1.33,-0.024 -1.862,-1.73 -0.781,-2.506c0.649,-0.466 0.769,-1.384 0.262,-2.001l-8.373,-10.181c-0.16,-0.193 -0.263,-0.426 -0.3,-0.674l-0.612,-4.095c-0.07,-0.469 -0.376,-0.869 -0.808,-1.06l-3.841,-1.698c-0.147,-0.065 -0.305,-0.105 -0.465,-0.115l-8.889,-0.602c-0.288,-0.02 -0.575,0.051 -0.822,0.204l-5.321,3.298c-0.166,0.103 -0.35,0.169 -0.542,0.195l-2.782,0.381c-0.313,0.042 -0.602,0.19 -0.818,0.419l-1.311,1.389c-0.194,0.206 -0.446,0.347 -0.724,0.404l-5.099,1.061c-0.273,0.057 -0.521,0.195 -0.715,0.396l-2.459,2.554c-0.103,0.107 -0.223,0.197 -0.355,0.267l-3.48,1.821c-0.313,0.164 -0.552,0.441 -0.666,0.775l-1.282,3.723c-0.166,0.482 -0.585,0.834 -1.09,0.915l-4.817,0.765c-0.44,0.07 -0.818,0.348 -1.018,0.745l-5.707,11.367c-0.294,0.585 -0.137,1.295 0.376,1.702l12.188,9.685c0.322,0.255 0.741,0.354 1.144,0.27l3.034,-0.638c0.536,-0.112 0.955,-0.532 1.068,-1.068l1.362,-6.474c0.069,-0.333 0.261,-0.628 0.534,-0.83l2.511,-1.846c0.394,-0.29 0.911,-0.35 1.36,-0.159l8.14,3.458c0.27,0.116 0.497,0.313 0.648,0.567l5.705,9.606c0.217,0.364 0.589,0.609 1.009,0.665l3.68,0.481c0.182,0.025 0.358,0.084 0.517,0.177l6.404,3.739c0.17,0.099 0.359,0.161 0.555,0.181l1.004,0.104l-0.316,-2.32c-0.128,-0.933 0.693,-1.717 1.619,-1.546l0.39,0.071c0.389,0.071 0.79,-0.027 1.102,-0.27l3.724,-2.913c0.295,-0.23 0.483,-0.57 0.523,-0.942l0.229,-2.134c0.081,-0.758 0.761,-1.308 1.521,-1.227l4.829,0.513c0.719,0.077 1.375,-0.414 1.505,-1.125l0.401,-2.188c0.144,-0.779 -0.397,-1.519 -1.183,-1.62m59.475,-194.926c-0.717,0.115 -0.995,1 -0.472,1.503c0.511,0.491 1.361,0.209 1.478,-0.489c0.099,-0.593 -0.412,-1.108 -1.006,-1.014m36.232,-41.317l-2.377,0.627c-0.333,0.089 -0.596,0.343 -0.692,0.674l-0.638,2.166c-0.135,0.46 0.075,0.947 0.505,1.158c0.738,0.361 1.887,0.92 2.781,1.327c0.625,0.286 1.34,-0.147 1.385,-0.832l0.267,-4.105c0.045,-0.671 -0.582,-1.187 -1.231,-1.015m-40.877,47.649l0.349,3.212c0.054,0.495 0.506,0.847 0.999,0.776l4.734,-0.68c0.184,-0.026 0.372,0.007 0.537,0.094l1.749,0.928c0.589,0.313 1.297,-0.118 1.292,-0.785l-0.017,-1.853c-0.005,-0.518 -0.454,-0.92 -0.97,-0.867l-5.856,0.607l1.581,-1.74c0.336,-0.369 0.297,-0.942 -0.083,-1.264l-2.788,-2.353c-0.185,-0.155 -0.425,-0.228 -0.665,-0.201l-3.447,0.386c-0.454,0.051 -0.794,0.442 -0.781,0.9l0.112,3.882c0.006,0.22 0.093,0.428 0.246,0.586l0.799,0.829c0.455,0.471 1.248,0.297 1.464,-0.322l0.745,-2.135Zm0.882,7.498l-1.518,-1.907c-0.212,-0.266 -0.558,-0.385 -0.889,-0.308l-0.855,0.201c-0.613,0.143 -0.881,0.866 -0.509,1.375l1.92,2.627c0.39,0.534 1.207,0.463 1.499,-0.131l0.453,-0.92c0.151,-0.305 0.112,-0.671 -0.101,-0.937m52.825,-65.89l-0.433,0.415c-0.342,0.329 -0.401,0.856 -0.137,1.252l0.19,0.289c0.451,0.68 1.487,0.547 1.75,-0.224l0.241,-0.704c0.334,-0.975 -0.867,-1.742 -1.611,-1.028m-3.23,10.736l-0.201,-5.579c-0.011,-0.322 -0.181,-0.619 -0.455,-0.794l-0.53,-0.337c-0.611,-0.389 -1.419,-0.007 -1.505,0.712l-0.216,1.806c-0.018,0.156 -0.074,0.305 -0.163,0.436l-1.735,2.552c-0.277,0.408 -0.209,0.958 0.158,1.286l1.974,1.764c0.395,0.353 0.997,0.331 1.365,-0.052l1.035,-1.077c0.184,-0.192 0.282,-0.45 0.273,-0.717m-3.417,23.42c-0.476,-0.381 -1.179,-0.242 -1.474,0.29l-2.039,3.675l3.459,-2.389c0.541,-0.374 0.569,-1.165 0.054,-1.576m-118.158,142.398l-1.781,5.526l2.264,-2.221c0.254,-0.247 0.347,-0.617 0.242,-0.956l-0.725,-2.349Zm-12.287,-17.815l2.21,-0.973c1.098,-0.484 1.928,-1.428 2.268,-2.579l0.758,-2.566l-5.236,6.118Zm21.352,26.898l2.561,-5.505c0.435,-0.935 -0.724,-1.795 -1.492,-1.106l-6.551,5.87c-0.31,0.277 -0.402,0.722 -0.231,1.099l1.367,3.003c0.295,0.65 1.174,0.753 1.611,0.19l2.624,-3.369c0.044,-0.057 0.081,-0.118 0.111,-0.182m-14.345,-44.55l1.274,2.111c0.326,0.542 1.063,0.654 1.536,0.234l0.556,-0.492c0.354,-0.314 0.443,-0.831 0.215,-1.246l-0.967,-1.749c-0.204,-0.369 -0.617,-0.574 -1.036,-0.51l-0.863,0.131c-0.712,0.107 -1.087,0.904 -0.715,1.521m15.817,20.086l-3.056,-0.333c-0.209,-0.022 -0.403,-0.114 -0.555,-0.257l-4.489,-4.308c-0.323,-0.31 -0.819,-0.351 -1.189,-0.1l-3.575,2.428c-0.623,0.424 -0.526,1.372 0.171,1.66l4.735,1.959c0.744,0.308 0.79,1.344 0.077,1.716l-1.723,0.901c-0.521,0.272 -0.671,0.948 -0.314,1.415c0.324,0.426 0.232,1.038 -0.204,1.347l-0.55,0.392c-0.847,0.603 -0.246,1.931 0.765,1.695l6.032,-1.401c0.496,-0.116 0.994,0.18 1.129,0.671l0.219,0.791l4.746,-3.452c0.38,-0.275 0.501,-0.786 0.285,-1.202l-1.763,-3.416c-0.146,-0.283 -0.425,-0.472 -0.741,-0.506m-13.226,-46.917l-1.666,0.742c-0.412,0.183 -0.652,0.617 -0.59,1.063l0.491,3.495c0.117,0.838 -0.783,1.441 -1.513,1.014l-3.219,-1.884c-0.709,-0.415 -1.591,0.146 -1.517,0.966l0.104,1.134c0.074,0.801 -0.774,1.363 -1.483,0.983c-0.382,-0.203 -0.852,-0.141 -1.17,0.157l-0.783,0.736c-0.48,0.451 -0.406,1.235 0.15,1.59l4.687,2.983l0.234,-2.173l1.612,1.075c0.413,0.276 0.565,0.81 0.359,1.262l-0.228,0.498c-0.145,0.317 -0.117,0.687 0.076,0.977l3.771,5.706c0.212,0.32 0.586,0.493 0.967,0.445l5.136,-0.63c0.87,-0.107 1.658,0.518 1.754,1.389l0.25,2.261c0.102,0.925 0.982,1.56 1.892,1.366l0.21,-0.046c0.346,-0.073 0.627,-0.322 0.743,-0.655l1.473,-4.213c0.044,-0.127 0.133,-0.234 0.25,-0.301l3.186,-1.835c0.37,-0.213 0.375,-0.746 0.01,-0.967l-1.299,-0.788c-0.12,-0.072 -0.263,-0.098 -0.401,-0.069l-2.849,0.571c-0.319,0.063 -0.65,0.027 -0.948,-0.106l-5.39,-2.396c-0.381,-0.17 -0.619,-0.557 -0.598,-0.974l0.414,-8.358c0.017,-0.349 -0.082,-0.694 -0.283,-0.981l-2.593,-3.696c-0.278,-0.396 -0.798,-0.539 -1.239,-0.341m6.355,79.17l-2.31,-7.483c-0.163,-0.528 -0.742,-0.805 -1.256,-0.601l-7.33,2.918c-0.375,0.15 -0.615,0.521 -0.597,0.925l0.23,5.008c0.032,0.719 0.824,1.141 1.44,0.767l2.65,-1.614c0.672,-0.408 1.52,0.129 1.437,0.91l-0.185,1.751c-0.083,0.774 0.753,1.311 1.425,0.916l4.071,-2.4c0.379,-0.223 0.555,-0.677 0.425,-1.097m-0.771,-49.072l-1.907,0.055c-0.59,0.016 -1.041,0.534 -0.975,1.121l0.175,1.578l2.707,-2.754Z" style="fill:none;fill-rule:nonzero;stroke:#000;stroke-width:4px;"/></g></svg>